<?xml version="1.0" encoding="utf-8"?>
<!-- Generator: Adobe Illustrator 19.0.0, SVG Export Plug-In . SVG Version: 6.00 Build 0)  -->
<svg version="1.1" id="图层_1" xmlns="http://www.w3.org/2000/svg" xmlns:xlink="http://www.w3.org/1999/xlink" x="0px" y="0px"
	 width="18px" height="14px" viewBox="-291 413.9 18 14" style="enable-background:new -291 413.9 18 14;" xml:space="preserve">
<g>
	<path d="M-277,413.9v6l4-3L-277,413.9z"/>
	<path d="M-279,427.9h-6c-3.3,0-6-2.7-6-6c0-3.3,2.7-6,6-6h8c0.6,0,1,0.4,1,1c0,0.6-0.4,1-1,1h-8c-2.2,0-4,1.8-4,4c0,2.2,1.8,4,4,4
		h6c2.2,0,4-1.8,4-4c0-0.6,0.4-1,1-1s1,0.4,1,1C-273,425.2-275.7,427.9-279,427.9"/>
	<path d="M-282,418.9v1h-1v1h1v4h1v-6H-282z"/>
</g>
</svg>
