<svg xmlns="http://www.w3.org/2000/svg" viewBox="0 0 14 15" enable-background="new 0 0 14 15"><path d="m10.578 5.03l.0001-.029c.298-.715.389-1.566.389-2.881.0001-1.275-1.156-2.119-2.223-2.119-.822 0-1.59.502-1.733 1.695-.366 3.075-2.44 4.277-4.01 4.277l-1 .028h-1c-.552 0-1 .434-1 .986v7c0 .553.448 1.014 1 1.014h2c.768 0 2 0 3 0v-.02c1-.002 1.46.02 1.952.02h.208c1.318 0 3.488-.073 5.578-6.594.791-2.467-.264-3.219-3.16-3.377m-8.578 8.971h-1v-7h1v7m10.786-5.899c-1.887 5.888-3.602 5.899-4.668 5.899h-.166c-.889 0-2.662 0-4.052 0h-.007-.893v-7.04c2.115 0 4.584-1.612 5-5.152.087-.729.464-.813.74-.813.5 0 1.224.399 1.224 1.119 0 1.257-.088 1.964-.312 2.503l-.155.378h-.502c-.276 0-.5.224-.5.5s.224.5.5.5h.609v-.004c1.055.014 2.913.078 3.29.595.166.225.125.763-.114 1.51"/></svg>