<?xml version="1.0" encoding="utf-8"?>
<!-- Generator: Adobe Illustrator 19.0.0, SVG Export Plug-In . SVG Version: 6.00 Build 0)  -->
<svg version="1.1" id="图层_1" xmlns="http://www.w3.org/2000/svg" xmlns:xlink="http://www.w3.org/1999/xlink" x="0px" y="0px"
	 width="19px" height="17px" viewBox="-288 413.9 19 17" style="enable-background:new -288 413.9 19 17;" xml:space="preserve">
<style type="text/css">
	.st0{fill-rule:evenodd;clip-rule:evenodd;}
</style>
<g>
	<g>
		<path class="st0" d="M-271,413.9h-12c-1.1,0-2,0.9-2,2v6.1c0.3-0.1,0.7-0.1,1-0.1v-6c0-0.6,0.4-1,1-1h12c0.6,0,1,0.4,1,1v12
			c0,0.6-0.4,1-1,1h-7.4c-0.2,0.4-0.4,0.7-0.6,1h8c1.1,0,2-0.9,2-2v-12C-269,414.8-269.9,413.9-271,413.9z M-283,422.9h-1
			c-2.2,0-4,1.8-4,4c0,2.2,1.8,4,4,4h1c2.2,0,4-1.8,4-4C-279,424.7-280.8,422.9-283,422.9z M-285,428.9v-4l4,2L-285,428.9z
			 M-281.5,418.9h9c0.3,0,0.5-0.2,0.5-0.5s-0.2-0.5-0.5-0.5h-9c-0.3,0-0.5,0.2-0.5,0.5S-281.8,418.9-281.5,418.9z M-281.5,421.9h9
			c0.3,0,0.5-0.2,0.5-0.5c0-0.3-0.2-0.5-0.5-0.5h-9c-0.3,0-0.5,0.2-0.5,0.5C-282,421.7-281.8,421.9-281.5,421.9z M-272.5,423.9h-5
			c-0.3,0-0.5,0.2-0.5,0.5s0.2,0.5,0.5,0.5h5c0.3,0,0.5-0.2,0.5-0.5S-272.2,423.9-272.5,423.9z"/>
	</g>
</g>
</svg>
