<svg xmlns="http://www.w3.org/2000/svg" viewBox="0 0 16 12" enable-background="new 0 0 16 12"><g><path d="m4 3h-2c0 0-2 .0001-2 2v2c0 0 0 1.999 2 1.999h2l4 3v-12l-4 2.999" fill-rule="evenodd"/><path d="m12 12c-.419 0-.809-.265-.948-.684-.175-.524.108-1.091.632-1.265.086-.031 2.316-.864 2.316-4.051 0-3.242-2.293-4.04-2.316-4.052-.523-.174-.807-.74-.632-1.265.175-.523.736-.809 1.265-.632.15.051 3.683 1.282 3.683 5.949s-3.533 5.898-3.684 5.948c-.105.035-.212.052-.316.052"/><path d="m10 9c-.256 0-.512-.098-.707-.293-.391-.391-.391-1.023 0-1.414 1.18-1.18.294-2.282-.006-2.592-.382-.394-.377-1.026.015-1.411.391-.385 1.017-.386 1.405.003 1.088 1.088 1.986 3.428 0 5.414-.195.195-.451.293-.707.293"/></g></svg>