<svg xmlns="http://www.w3.org/2000/svg" viewBox="-68.5 -60 138 138" enable-background="new -68.5 -60 138 138"><path d="M3.201-11.399c2-0.802,3.299-2.802,3.299-5.101C6.5-19.5,4-22,1-22s-5.5,2.5-5.5,5.5
	c0,2.201,1.299,4.101,3.201,5l-7.302,8.299L-17.399-9l1.899,19h33l2.201-19.101L10.5-3.201L3.201-11.399 M-1.5-16.5
	c0-1.399,1.101-2.5,2.5-2.5s2.5,1.101,2.5,2.5S2.399-14,1-14S-1.5-15.101-1.5-16.5 M16.402-3.299L14.799,7h-27.598l-1.101-10.201
	L-8.399,1L1-9.701l9.5,10.604L16.402-3.299 M0.5-35c-17.701,0-32,14.299-32,32s14.299,32,32,32s32-14.299,32-32S18.201-35,0.5-35
	 M0.5,26c-16,0-29-13-29-29s13-29,29-29s29,13,29,29S16.5,26,0.5,26"/></svg>