<svg xmlns="http://www.w3.org/2000/svg" viewBox="0 0 28 28" enable-background="new 0 0 28 28"><path fill-rule="evenodd" d="m6.934 6.924c-1.812 1.81-2.934 4.312-2.934 7.08 0 2.764 1.122 5.266 2.934 7.08l.707-.707c-1.631-1.63-2.641-3.881-2.641-6.369 0-2.488 1.01-4.74 2.641-6.369l-.707-.707m2.829 2.829c-1.089 1.086-1.763 2.588-1.763 4.247s.674 3.161 1.763 4.247l.707-.707c-.908-.905-1.47-2.157-1.47-3.54 0-1.383.562-2.635 1.47-3.54l-.707-.707m11.303-2.829l-.707.707c1.631 1.629 2.641 3.881 2.641 6.369 0 2.488-1.01 4.739-2.641 6.369l.706.706c1.813-1.809 2.935-4.311 2.935-7.07 0-2.764-1.121-5.266-2.934-7.08m-3.536 3.536c.908.905 1.47 2.157 1.47 3.54 0 1.384-.563 2.635-1.47 3.54l.707.707c1.089-1.086 1.763-2.588 1.763-4.247s-.674-3.161-1.763-4.247l-.707.707m-1.583 3.097c-.086-.376-.273-.712-.538-.975-.361-.359-.859-.582-1.409-.582-.953 0-1.747.667-1.948 1.56-.003.012-.009.023-.011.036-.027.131-.041.265-.041.404s.014.273.041.404c.003.017.011.031.015.048.026.113.059.225.103.329.0001.002.002.003.002.005.051.118.112.23.184.336.003.004.006.007.009.011.07.102.149.198.237.285.362.359.859.582 1.409.582s1.047-.223 1.409-.581c.0001-.0001.0001-.0001.002-.002.073-.073.138-.156.199-.241.014-.019.032-.034.045-.055.067-.099.124-.204.172-.314.004-.009.011-.017.015-.025.044-.104.075-.214.102-.326.004-.018.012-.033.016-.051.025-.132.04-.266.04-.405s-.015-.273-.041-.404c-.003-.014-.009-.026-.012-.039"/></svg>