<svg xmlns="http://www.w3.org/2000/svg" viewBox="10 -1 32 14" enable-background="new 10 -1 32 14"><path d="m37 6v3h1v1h-3v-1h1v-3-1-2h-1v-1h4v1h-2v2h2m-6-2h1v6h-1v-6zm-4 6v-6h1v6h-1m-2-3h1v3h-1v-3m-4 3v-3h1v3h-1m5-6v2h-1v-2h1zm-7 0h1v6h-1v-6m-4 6v-6h1v6h-1m-4 1h-1v-1h1v-5h-1v-1h1v-1h1v7h1v1h-1-1"/><path d="m18 2h3v1h-3v-1"/><path d="m18 9h3v1h-3v-1"/><path d="m24 2h3v1h-3v-1"/><path d="m23 3h1v2h-1v-2"/><path d="m24 5h3v1h-3v-1"/><path d="m24 9h3v1h-3v-1"/><path d="m30 2h3v1h-3v-1"/><path d="m30 9h3v1h-3v-1"/><path d="m35 2h4v1h-4v-1"/><path d="m36 3h1v7h-1v-7"/><path d="m35 9h3v1h-3v-1"/><path d="m39 3h1v2h-1v-2"/><path d="m37 5h2v1h-2v-1"/></svg>