<svg xmlns="http://www.w3.org/2000/svg" viewBox="0 0 27 27" enable-background="new 0 0 27 27"><path d="m27 21.7c0 .1 0 .2 0 .3 0 1.1-.4 2.1-1.2 2.8l-.8-.8-.4-.8c.2-.3.4-.7.4-1.2 0 0 0-.3 0-.3 0-1.2-.2-2.4-.7-3.4-.7-1.8-2-3.2-3.7-4.1-.1 0-.1-.1-.2-.1-.1 0-.1-.1-.2-.1 0 0-.1 0-.1.1-.4-.7-.8-1.3-1-1.7 1.7-.9 2.8-2.7 2.8-4.8 0-2.2-1.3-4.1-3.2-5 .1-.3.2-.4.3-.6.3-.5.9-.7 1.4-.9 2.2 1.4 3.6 3.7 3.6 6.4 0 2-.8 3.7-2 5.1 3 1.8 5 5.1 5 8.8 0 .1 0 .2 0 .3m-6-.4c0 .1 0 .2 0 .4 0 .1 0 .2 0 .3 0 2.2-1.8 4-4 4 0 0 0 0-.1 0h.1c-.6 0-1-.4-1-1 0-.6.4-1 1-1 0 0 0 0 0 0 1.1 0 2-.9 2-2 0 0 0-.3 0-.3 0-1.2-.2-2.4-.7-3.4-.7-1.8-2-3.2-3.7-4.1-.1 0-.1-.1-.2-.1-.1 0-.1-.1-.2-.1-1.1.7-2.4 1.1-3.8 1.1s-2.7-.4-3.8-1.1c0 0 0 0-.1 0-.1 0-.1.1-.2.1-1.6.9-2.9 2.4-3.7 4.1-.3 1.1-.6 2.2-.6 3.5 0 0 0 .3 0 .3 0 0 0 0 0 0 0 1.1.9 2 2 2 .6 0 1 .4 1 1 0 .6-.4 1-1 1h.1c0 0 0 0-.1 0-2.2 0-4-1.8-4-4 0-.1 0-.2 0-.3 0-.1 0-.2 0-.4 0-3.7 2-6.9 5-8.8-1.2-1.3-2-3.1-2-5.1 0-4 3.4-7.4 7.5-7.4 4.1 0 7.5 3.4 7.5 7.5 0 2-.8 3.7-2 5.1 3 1.8 5 5 5 8.7m-10.5-19.3c-3 0-5.5 2.4-5.5 5.5 0 3 2.5 5.5 5.5 5.5 3 0 5.5-2.5 5.5-5.5 0-3.1-2.5-5.5-5.5-5.5m.5 14c1.1 0 2 .9 2 2v2c0 .8-.4 1.4-1.1 1.8 0 .1.1.2.1.3v2c0 .6-.4 1-1 1-.6 0-1-.4-1-1v-2c0-.1 0-.2.1-.3-.7-.4-1.1-1-1.1-1.8v-2c0-1.1.9-2 2-2"/></svg>