<svg xmlns="http://www.w3.org/2000/svg" viewBox="8 -1 27 14" enable-background="new 8 -1 27 14"><path d="m31 5h1 1v1h-1v1 1 4h-1-1v-1h1v-1h-5v2h-1v-4-1-1h-1v-1h1 1 2v-1h-3v-1h3v-1h-4v-1h4v-1h1v1h4v1h-4v1h3v1h-3v1h2m-5 4h5v-1h-5v1m2-3h-2v1h5v-1h-2-1m-8 2h1v2h-1v-2m-2 4h-1-1v-1h1v-6h-3v-1h7v1h-3v7m-5-6h1v1h-1v5h-1v-5h-1v-2h1v-1h-2v-1h2v-3h1v3h1v1h-1v2m-3 2v-1h1v1h-1m5-7h5v1h-5v-1m0 9h-1v-1h1v1"/><path d="m14 9h1v1h-1v-1"/><path d="m15 7h1v2h-1v-2"/><path d="m19 7h1v1h-1v-1"/><path d="m22 1h1v1h-1v-1"/><path d="m23 2h1v1h-1v-1"/><path d="m22 5h1v1h-1v-1"/><path d="m23 6h1v1h-1v-1"/><path d="m23 9h1v1h-1v-1"/><path d="m22 10h1v1h-1v-1"/></svg>