<svg xmlns="http://www.w3.org/2000/svg" viewBox="0 0 16 16" enable-background="new 0 0 16 16"><path fill-rule="evenodd" d="m7 11h1v-1h-1v1m1-1h1v-1h-1v1m1-1h1v-1h-1v1m1-1h1v-1h-1v1m1-2v1h1v-1h-1m-5 3v1h1v-1h-1m-1-1v1h1v-1h-1"/><path d="M14,3H8.326L6.385,1H3.367C2.062,1,1,2.053,1,3.346v8.584C1,13.071,1.936,14,3.087,14h10.826C15.063,14,16,13.071,16,11.931
	V5.071C16,3.93,15.15,3,14,3z M15,11.931C15,12.521,14.513,13,13.913,13H3.087C2.488,13,2,12.521,2,11.931V3.346
	C2,2.604,2.613,2,3.367,2h2.594l1.954,2h1.379H14c0.6,0,1,0.481,1,1.071V11.931z"/></svg>