<svg xmlns="http://www.w3.org/2000/svg" viewBox="0 0 16 16" enable-background="new 0 0 16 16"><path d="m10.228 15h-8.228v-8.726l3.769.027c.507-.001 1.339-.144 2.02-.808.377-.368.573-.976.761-1.565.275-.859.617-1.928 1.726-1.928.347 0 1 .094 1.503.722.579.73.722 1.923.425 3.553h.448c.877 0 2.346 0 2.346 2.217 0 .67-.26 2.426-1.24 4.28-.872 1.644-2.447 2.228-3.532 2.228m-4.459-1h4.458c.179 0 1.774-.048 2.648-1.697.923-1.742 1.125-3.343 1.125-3.812 0-1.217-.422-1.217-1.346-1.217h-1.692l.143-.613c.498-2.142.147-2.998-.106-3.317-.227-.284-.517-.344-.721-.344-.343 0-.499.375-.773 1.233-.216.673-.46 1.435-1.017 1.977-.932.907-2.05 1.081-2.719 1.091v6.699m-2.769 0h1.769v-6.726h-1.769v6.726"/></svg>