<svg xmlns="http://www.w3.org/2000/svg" viewBox="0 0 14 17" enable-background="new 0 0 14 17"><path fill-rule="evenodd" d="m13 10.996v-4.99h1v4.99h-1m-3 5.989h-2v-2.994h-2v2.994h-2v-2.994h-2v-7.985h10v7.985h-2v2.994m-5-15.703v-.267h1.997c.0001 0 .002 0 .003 0s.002 0 .003 0h.997v.123c.063.013.129.022.191.037l.742-1.145 1.05.554-1.098.811c1.525.623 2.68 1.965 3.02 3.612h-9.799c.327-1.606 1.432-3.082 2.899-3.725m4 1.729v-.998h-1v.998h1m-4 0h1v-.998h-1v.998m-1.768-2.441l.821-.57.679 1.412-.819.547-.681-1.389m-3.232 5.436h1v4.99h-1v-4.99"/></svg>