<svg xmlns="http://www.w3.org/2000/svg" viewBox="0 0 16 16" enable-background="new 0 0 16 16"><path d="m11.369 15c-.251 0-.504-.065-.733-.188l-2.405-1.301c-.173-.093-.349-.091-.52.005l-2.235 1.261c-.512.292-1.149.261-1.635-.078-.495-.347-.734-.911-.641-1.51l.464-2.983c.029-.188-.021-.345-.156-.477l-2.044-2.02c-.423-.417-.569-1-.388-1.573.182-.569.64-.965 1.228-1.058l2.689-.428c.189-.031.327-.136.407-.313l1.107-2.435c.255-.556.791-.903 1.399-.904.611 0 1.146.344 1.401.898l1.121 2.438c.081.175.217.28.405.31l2.867.462c.579.093 1.035.483 1.219 1.043.184.558.049 1.143-.359 1.565l-2.069 2.136c-.134.138-.181.296-.145.484l.532 2.824c.114.599-.11 1.173-.601 1.534-.268.201-.583.307-.908.307m-3.394-2.559c.253 0 .5.064.732.19l2.403 1.3c.188.103.398.089.573-.041.179-.133.255-.325.213-.544l-.532-2.824c-.098-.509.048-.994.408-1.366l2.069-2.137c.15-.155.195-.352.128-.557-.067-.204-.219-.334-.428-.368l-2.868-.462c-.515-.083-.936-.404-1.153-.88l-1.121-2.437c-.188-.407-.796-.403-.982.004l-1.107 2.434c-.219.479-.642.802-1.16.885l-2.69.428c-.212.034-.365.166-.431.374s-.017.406.138.558l2.043 2.02c.364.357.521.835.442 1.342l-.464 2.984c-.034.219.046.409.227.536.177.122.381.134.569.027l2.237-1.263c.24-.133.493-.202.754-.202"/></svg>