<svg xmlns="http://www.w3.org/2000/svg" viewBox="8 -1 27 14" enable-background="new 8 -1 27 14"><path d="m31 5h1 1v1h-1v1 1 4h-1-1v-1h1v-1h-5v2h-1v-4-1-1h-1v-1h1 1 2v-1h-3v-1h3v-1h-4v-1h4v-1h1v1h4v1h-4v1h3v1h-3v1h2m-5 4h5v-1h-5v1m2-3h-2v1h5v-1h-2-1"/><path d="m22 1h1v1h-1v-1"/><path d="m23 2h1v1h-1v-1"/><path d="m22 5h1v1h-1v-1"/><path d="m23 6h1v1h-1v-1"/><path d="m22 10h1v1h-1v-1"/><path d="m23 9h1v1h-1v-1"/><path d="m13 12v-1h-1-1v-1-3h1v3h1v-1-1-2h-3v-1h3v-2h-2v-1h2v-2h1v2h1v1h-1v2h2v1h-2v2h2v-1-1h1 3 1v1 2 1h-1-3-1v-1h-2v1 1h7v1h-7-1m4-4v1h3v-2h-3v1m-7 4v-1h1v1h-1m7-10h-1v-1h1 1 2 1v1 2 1h-1-1v-1h1v-2h-2"/><path d="m17 2h1v2h-1v-2"/><path d="m16 4h1v1h-1v-1"/></svg>