<?xml version="1.0" encoding="utf-8"?>
<!-- Generator: Adobe Illustrator 19.0.0, SVG Export Plug-In . SVG Version: 6.00 Build 0)  -->
<svg version="1.1" id="图层_1" xmlns="http://www.w3.org/2000/svg" xmlns:xlink="http://www.w3.org/1999/xlink" x="0px" y="0px"
	 viewBox="0 0 17 17" style="enable-background:new 0 0 17 17;" xml:space="preserve">
<style type="text/css">
	.st0{fill:#040000;}
</style>
<g id="XMLID_2_">
	<g id="XMLID_64_">
		<path id="XMLID_65_" class="st0" d="M11.5,8C12.3,8,13,7.3,13,6.5C13,5.7,12.3,5,11.5,5C10.7,5,10,5.7,10,6.5
			C10,7.3,10.7,8,11.5,8z M5.5,8C6.3,8,7,7.3,7,6.5C7,5.7,6.3,5,5.5,5C4.7,5,4,5.7,4,6.5C4,7.3,4.7,8,5.5,8z M8.5,0
			C3.8,0,0,3.8,0,8.5C0,13.2,3.8,17,8.5,17c4.7,0,8.5-3.8,8.5-8.5C17,3.8,13.2,0,8.5,0z M8.5,16C4.4,16,1,12.6,1,8.5S4.4,1,8.5,1
			S16,4.4,16,8.5S12.6,16,8.5,16z M12.9,9c-0.3,2.2-2.1,4-4.4,4c-2.3,0-4.2-1.8-4.4-4h-1c0.3,2.8,2.6,5,5.4,5c2.9,0,5.2-2.2,5.4-5
			H12.9z"/>
	</g>
</g>
</svg>
