<svg xmlns="http://www.w3.org/2000/svg" viewBox="0 0 12 12" enable-background="new 0 0 12 12"><path d="m2.917 3.985c0 0 .199.037.551.024.174-.011.39-.021.628-.076.243-.041.504-.13.783-.246.262-.141.569-.277.816-.521.271-.215.522-.483.72-.805.203-.318.358-.677.51-1.042.152-.361.3-.749.59-1.034.301-.286.741-.31 1.128-.275.391.021.791.171 1.01.49.225.307.293.679.334 1.018.028.344.016.671-.007.971-.058.6-.151 1.095-.228 1.438s-.12.539-.12.539l-1-.245c0 0 .044-.184.12-.507.077-.321.17-.782.23-1.31.023-.26.037-.535.022-.794-.018-.244-.088-.473-.14-.524-.037-.042-.024-.061-.29-.092-.437-.021-.355.024-.382.019-.043.029-.203.32-.344.692-.15.365-.33.792-.584 1.192-.121.197-.326.465-.421.566-.157.199-.335.32-.5.474-.319.307-.71.495-1.049.672-.357.152-.691.263-.997.317-.303.069-.571.084-.793.097-.218.007-.402.004-.551-.012-.115-.012-.176-.019-.176-.019l.143-1.01"/><path d="m7.776 4c0 0 .283 0 .779 0 .248 0 .55 0 .896 0 .345.005.737-.017 1.157.053.424.053.845.354 1 .825.059.236.139.476.137.734l.026.387-.038.394c-.075.525-.251 1.051-.461 1.567-.183.528-.459 1.026-.686 1.546-.243.512-.504 1.018-.819 1.479-.307.457-.724.878-1.258.979-.526.072-1.044.02-1.53.036-.487 0-.948 0-1.374 0-1.701 0-2.835 0-2.835 0v-.938c0 0 .284-.038.78-.05.496-.026 1.205-.006 2.055-.012.425 0 .886 0 1.374 0 .244 0 .494 0 .75 0h.388c.087 0 .144-.007.201-.018.156-.027.358-.172.633-.57.134-.177.241-.391.372-.609.134-.267.259-.481.368-.731.216-.494.493-.998.657-1.474.081-.229.209-.502.251-.688.036-.214.126-.317.141-.609l.019-.198.009-.098.005-.049.002-.024v-.012-.006c-.004.037.002-.097-.006.084l-.024-.298c.002-.221-.061-.333-.082-.473-.115-.179-.013-.108-.249-.179-.201-.037-.633-.031-.97-.028-.346 0-.647.003-.895.005-.496.003-.78.004-.78.004v-1.031"/><path d="m2 5v6h-1v-6h1m1-1h-3v8h3v-8z"/></svg>