<svg xmlns="http://www.w3.org/2000/svg" viewBox="0 0 17 17" enable-background="new 0 0 17 17"><path fill-rule="evenodd" d="m15.51 12.814c0 0-.26 2.385-6.154 3.165-1.698.385-8.567-1.052-8.37-8.213-.094-2.654 2.631-6.558 7.251-6.756 2.642.063 4.476.968 5.097 1.717.86 1.039 1.232 1.562 1.668 3.373.276 3.742-1.357 5.548-3.035 5.673-1.274.094-1.968-1.551-1.968-1.551s.973-1.801.973-3.424c0-.197-.021-.555-.102-.972.178-.352.436-.822.724-1.214.528-.718.652-1.25.652-1.25l-1.057-.312c0 0-.279 0-.435.718-.067.31-.263.464-.462.544-.464-.716-1.236-1.29-2.521-1.263-2.124-.269-4.703 1.99-4.755 4.967-.037 2.172.719 4.551 2.984 4.997 1.953.384 3.501-1.541 3.501-1.541s.735 1.729 3.46 1.457c.859-.427 3.02-1.665 3-5.829.072-4.226-2.094-6.714-6.983-7.078-2.247-.159-5.03.537-6.876 2.485-1.201 1.266-1.871 3.239-2.074 5.259-.158 1.557.22 4.495 2.03 6.545 1.521 1.725 4.26 2.782 5.926 2.667 6.651.356 8.01-3.907 8.01-3.907l-.49-.257m-5.968-4.423c-.817 1.682-1.779 3.859-3.76 3.342-2.479-.649-1.927-4.997-.808-5.903 1.585-2.249 2.891-1.78 3.17-1.78 1.554.375 2.122 2.85 1.398 4.341"/></svg>