<?xml version="1.0" encoding="utf-8"?>
<!-- Generator: Adobe Illustrator 19.0.0, SVG Export Plug-In . SVG Version: 6.00 Build 0)  -->
<svg version="1.1" id="图层_1" xmlns="http://www.w3.org/2000/svg" xmlns:xlink="http://www.w3.org/1999/xlink" x="0px" y="0px"
	 viewBox="-50 4 13 13" style="enable-background:new -50 4 13 13;" xml:space="preserve">
<g id="图层_1_1_">
	<g id="Song_single">
	</g>
	<g id="Download">
	</g>
	<g id="Friend">
	</g>
	<g id="MV">
	</g>
	<g id="like">
	</g>
	<g id="Local_Music">
	</g>
	<g id="Discovery">
	</g>
	<g id="singer">
	</g>
	<g id="新建符号_8">
	</g>
	<g id="Cloud_music">
	</g>
	<g id="Private_fm">
	</g>
	<g id="radio">
	</g>
	<g id="search_for">
	</g>
	<g id="Skin">
	</g>
	<g id="News">
	</g>
	<g id="Set_up">
	</g>
	<g id="mini">
	</g>
	<g id="Maximize">
	</g>
	<g id="drop_out">
	</g>
	<g id="minimize">
	</g>
	<g id="Shuffle_Playback">
	</g>
	<g id="List_cycle">
	</g>
	<g id="Play_in_order">
	</g>
	<g id="Single_cycle">
		<g id="新建符号_1">
		</g>
	</g>
	<g id="playlist">
	</g>
	<g id="Enlarge">
	</g>
	<g id="Retreat">
	</g>
	<g id="go_ahead">
	</g>
	<g id="drop_down">
	</g>
	<g id="Lyrics">
	</g>
	<g id="play">
	</g>
	<g id="time_out">
	</g>
	<g id="On_a">
	</g>
	<g id="Next_song">
	</g>
	<g id="新建符号">
	</g>
	<g id="新建符号_1_1_">
	</g>
</g>
<g id="图层_3">
	<g id="Voice">
	</g>
	<g id="share_it">
	</g>
	<g id="Thumbs_up">
	</g>
	<g id="Silent">
	</g>
	<g id="XMLID_1044_">
		<path id="XMLID_41_" d="M-39.3,8.3H-43l-1.2-3.1c-0.1-0.3-0.5-0.3-0.6,0L-46,8.3h-3.7c-0.3,0-0.4,0.4-0.2,0.6l3,2.9l-1.1,3.5
			c-0.1,0.3,0.3,0.6,0.5,0.4l3-2.2l3,2.2c0.3,0.2,0.6-0.1,0.5-0.4l-1.1-3.5l3-2.9C-38.9,8.7-39,8.3-39.3,8.3z M-43.9,12.7l-0.6-0.4
			l-0.6,0.4l-1.3,1l0.5-1.6l0.2-0.6l-0.5-0.4L-48,9.3h2.1h0.7l0.2-0.7l0.5-1.4l0.5,1.4l0.3,0.7h0.7h2.1l-1.9,1.8l-0.5,0.4l0.2,0.6
			l0.5,1.6L-43.9,12.7z"/>
	</g>
</g>
</svg>
