<svg xmlns="http://www.w3.org/2000/svg" viewBox="0 0 168 168" enable-background="new 0 0 168 168"><path d="m168 66c0 1.7-1.3 3-3 3-.9 0-1.8-.4-2.3-1.1l-.5-.3c-18.2-22.7-45.9-36.6-77.2-36.6-31.6 0-59.7 14.8-77.8 37.8h-.1c-.6.7-1.5 1.2-2.6 1.2-1.9 0-3.5-1.6-3.5-3.5 0-1 .4-1.9 1.1-2.5 19.4-24.1 49.2-39.5 82.6-39.5 33.4 0 63.2 15.5 82.7 39.6.3.5.6 1.2.6 1.9m-143 16.3c13.9-16.9 34.8-27.7 58.4-27.7 24.3 0 45.8 11.4 59.7 29.2v.3c.1.3-.1 1-.1 1.3 0 1.7-.8 2.5-2.5 2.5-.5 0-1.7.2-2.1 0l-.6.2c-12.6-16.4-32.4-27.1-54.8-27.1-21.3 0-40.4 9.7-53 24.9-.2 1.7-1.7 3.1-3.5 3.1-1.9 0-3.5-1.6-3.5-3.5 0-1.4.8-2.6 2-3.2m24.3 19.9c8.1-9.9 20.4-16.2 34.1-16.2 11.6 0 22.2 4.5 30.1 11.9-2.1 1.4-3.9 3-5.6 4.8-6.6-6-15.3-9.7-24.9-9.7-12.1 0-22.9 5.9-29.7 14.9l-.2-.1c-.6.8-1.6 1.2-2.7 1.2-1.9 0-3.5-1.6-3.5-3.5.1-1.5 1.1-2.8 2.4-3.3m34.1 13.2c8.2 0 14.8 6.6 14.8 14.8 0 8.2-6.6 14.8-14.8 14.8s-14.8-6.6-14.8-14.8c0-8.2 6.6-14.8 14.8-14.8m46.7-16.6c13.3 0 24.1 10.8 24.1 24.1s-10.8 24.1-24.1 24.1-24.1-10.8-24.1-24.1 10.7-24.1 24.1-24.1m-10.2 31c-1 1-1 2.6 0 3.5 1 1 2.6 1 3.5 0l7.1-7.2 7.1 7.1c1 1 2.6 1 3.6 0 1-1 1-2.6 0-3.6l-7.1-7.1 7-7.1c1-1 1.1-2.6.1-3.5-1-1-2.7-1.1-3.7-.1l-7 7.2-7.2-7.2c-1-1-2.6-1-3.6 0s-1 2.6 0 3.6l7.2 7.2-7 7.2"/></svg>