<svg xmlns="http://www.w3.org/2000/svg" viewBox="0 0 84 84" enable-background="new 0 0 84 84"><path d="m76 57.1v2h-.1c.1.2.1.3.1.5 0 .8-.7 1.5-1.5 1.5s-1.5-.7-1.5-1.5c0-.2 0-.3.1-.5h-.1v-15c0-17.1-13.9-31-31-31s-31 13.9-31 31v15h-.1c.1.2.1.3.1.5 0 .8-.7 1.5-1.5 1.5-.8 0-1.5-.7-1.5-1.5 0-.2 0-.3.1-.5h-.1v-2c-2.3-.1-8-1.1-8-9 0 0 0-8.4 8.2-8.9 2-16.9 16.3-30 33.8-30s31.8 13.1 33.8 30c8.2.5 8.2 9 8.2 9 0 7.8-5.7 8.8-8 8.9m-34-39c15.5 0 28 12.5 28 28s-12.5 28-28 28-28-12.5-28-28 12.5-28 28-28m0 53c13.8 0 25-11.2 25-25s-11.2-25-25-25-25 11.2-25 25 11.2 25 25 25m-10.5-34c1.4 0 2.5 1.1 2.5 2.5v6c0 1.4-1.1 2.5-2.5 2.5-1.4 0-2.5-1.1-2.5-2.5v-6c0-1.4 1.1-2.5 2.5-2.5m21 0c1.4 0 2.5 1.1 2.5 2.5v6c0 1.4-1.1 2.5-2.5 2.5s-2.5-1.1-2.5-2.5v-6c0-1.4 1.1-2.5 2.5-2.5"/></svg>