<svg xmlns="http://www.w3.org/2000/svg" viewBox="0 0 134 134" enable-background="new 0 0 134 134"><path d="m53.7 75.5c-7.7 0-14 6.3-14 14v13c0 6.3 4.2 11.7 10 13.4v10.3c0 2.8 1.2 5 4 5s4-2.2 4-5v-10.3c5.8-1.7 10-7.1 10-13.4v-13c0-7.7-6.3-14-14-14m6 29c0 2.2-1.8 4-4 4h-4c-2.2 0-4-1.8-4-4v-17c0-2.2 1.8-4 4-4h4c2.2 0 4 1.8 4 4v17m16.7-42.8c6.8-6.3 11.1-15.3 11.1-25.3 0-19-15.5-34.5-34.5-34.5-19.1 0-34.5 15.4-34.5 34.5 0 10.1 4.3 19.2 11.2 25.5-9.4 5.2-24.8 16.8-27.5 38.1-2.5 20.1 4.2 23.5 6.3 25.9 2.5 2.8 11.3 4.9 14.5 4.1s4.3-4.5 2.6-7.1c-2.3-3.5-8.4.5-12.8-4.8-5.6-6.7-2.8-26.7 6.3-37.4 5.5-6.4 13-11 18-13.6 4.7 2.5 10.1 3.8 15.8 3.8 5.8 0 11.3-1.4 16-4 5 2.6 12.7 7.3 18.2 13.8 9.2 10.7 12.6 31.3 6.3 37.4-4.7 4.6-10.5 1.6-12.8 5.1-1.7 2.6-.6 6 2.6 6.8 3.2.8 12-1.3 14.5-4.1 2-2.4 8.8-5.8 6.3-25.9-2.5-21.5-18.3-33.2-27.6-38.3m-23.1 1.1c-14.6 0-26.5-11.9-26.5-26.5 0-14.6 11.9-26.5 26.5-26.5 14.6 0 26.5 11.9 26.5 26.5 0 14.7-11.9 26.5-26.5 26.5m56.4 3.7c0 0 6.8-7.1 7.2-22.3-5.4-24.8-19.9-28.5-19.9-28.5s-5.2-.8-5.2 2.5c-1 3.1.9 5.4 5.4 6.6 1.8 2 8.6 3.7 11.2 17.9 3.8 16.2-10.7 20.4-7.7 26.8 1 5 6.8-.2 18 16 13.6 18.2 4.7 34.3 4.7 34.3s.6 7.5 7.8 2.7c12.7-34.7-21.5-56-21.5-56"/></svg>