<svg xmlns="http://www.w3.org/2000/svg" viewBox="0 0 40 40" enable-background="new 0 0 40 40"><path d="m21.5 17c-.3 0-.5.2-.5.5v8c0 .3.2.5.5.5s.5-.2.5-.5v-8c0-.3-.2-.5-.5-.5m-3 0c-.3 0-.5.2-.5.5v8c0 .3.2.5.5.5s.5-.2.5-.5v-8c0-.3-.2-.5-.5-.5m10-3h-3.5v-1c0-1.1-.9-2-2-2h-6c-.8.1-2 .9-2 2v1h-3.5c-.3 0-.5.2-.5.5 0 .3.2.5.5.5h1.5v11c0 1.7 1.3 3 3 3h8c1.7 0 3-1.3 3-3v-11h1.5c.3 0 .5-.2.5-.5 0-.3-.2-.5-.5-.5m-10.5-2h4c2-.1 2 .9 2 2h-8c0 0-.4-2.2 2-2m8 14c0 1.1-.9 2-2 2h-8c-1.1 0-2-.9-2-2v-11h1 10 1v11"/></svg>