<svg xmlns="http://www.w3.org/2000/svg" viewBox="1 1 52 52" enable-background="new 1 1 52 52"><path d="m22.499 15.995c.213 0 .634.089 1.438.509l13.243 8.601c1.863 1.209 2.809 2.02 2.809 2.396s-.944 1.187-2.809 2.396l-13.243 8.602c-.804.42-1.225.509-1.438.509-.451 0-.486-1.378-.486-1.801v-19.41c0-.423.035-1.802.486-1.802m0-1c-.929 0-1.486.751-1.486 2.801 0 2.169 0 17.251 0 19.408 0 2.051.557 2.801 1.486 2.801.536 0 1.196-.25 1.944-.646 0 0 0 0 13.282-8.625 4.352-2.825 4.352-3.645 0-6.469-13.283-8.625-13.283-8.625-13.283-8.625-.748-.395-1.407-.645-1.943-.645z"/></svg>