<svg xmlns="http://www.w3.org/2000/svg" viewBox="0 0 18 18" enable-background="new 0 0 18 18"><path d="m13.165 3c.408 0 .723.143.99.449l.017.02.019.019 2.169 2.239c.434.513.415 1.263-.064 1.772l-6.333 7.088c-.267.281-.571.413-.959.413-.388 0-.693-.132-.945-.399l-6.398-7.091c-.471-.499-.482-1.255-.032-1.769l2.337-2.268.021-.021.021-.022c.268-.293.578-.43.974-.43h8.183m0-1h-8.183c-.677 0-1.255.256-1.712.756l-2.363 2.292c-.819.899-.808 2.262.026 3.147l6.384 7.07c.455.485 1.023.73 1.687.73s1.231-.245 1.687-.729l6.351-7.106c.822-.874.847-2.209.057-3.113l-2.189-2.26c-.458-.523-1.051-.792-1.745-.792z"/><g fill-rule="evenodd"><path d="m7.654 8.099c1.101-.295 2.16.091 2.366.861.207.771-.518 1.633-1.619 1.928-1.101.295-2.16-.09-2.366-.86-.206-.77.519-1.634 1.619-1.929"/><path d="m11.309 4.677c-.444-.472-1.01-.535-1.419-.506-.092-.102-.229-.171-.39-.171-.276 0-.5.191-.5.429v5.143c0 .237.224.428.5.428s.5-.191.5-.429v-4.186c.284.089.55.373 1.309.53 1.525.314 1.691-1.915 1.691-1.915s-.914 1.502-1.691.677"/></g></svg>