<svg xmlns="http://www.w3.org/2000/svg" viewBox="7 0 27 14" enable-background="new 7 0 27 14"><path d="m15 1h-1v1h-5v1h5 1 5v-1h-5z"/><path d="m10 8h-1v1 4h1v-4h9v3h-1v1h1 1v-1-3-1h-1z"/><path d="m18 7v-1-1-1h-1-6v1 1 1h1 5 1m-6-2h5v1h-5v-1"/><path d="m13 10h-1v1 1 1h1 3 1v-1-1-1h-1-3m3 2h-3v-1h3v1"/><path d="m32 3v-1h-4v-1h-1v1h-4v1h4v1h-3v1h3v1h-2-1-1v1h1v1 1 4h1v-2h5v1h-1v1h1 1v-4-1-1h1v-1h-1-1-2v-1h3v-1h-3v-1h4m-2 7h-5v-1h5v1m0-3v1h-5v-1h2 1 2"/><path d="m21 2h1v1h-1z"/><path d="m22 3h1v1h-1z"/><path d="m21 6h1v1h-1z"/><path d="m22 7h1v1h-1z"/><path d="m21 11h1v1h-1z"/><path d="m22 10h1v1h-1z"/></svg>