<svg xmlns="http://www.w3.org/2000/svg" viewBox="0 0 60 60" enable-background="new 0 0 60 60"><path d="m7 2h6v-2h-6v2m16-2h-6v2h6v-2m10 0h-6v2h6v-2m4 2h6v-2h-6v2m10 0h6v-2h-6v2m-40 58h6v-2h-6v2m10 0h6v-2h-6v2m10 0h6v-2h-6v2m10 0h6v-2h-6v2m10 0h6v-2h-6v2m-45-53h-2v6h2v-6m0 10h-2v6h2v-6m0 10h-2v6h2v-6m0 10h-2v6h2v-6m0 10h-2v6h2v-6m56-34h2v-6h-2v6m0 10h2v-6h-2v6m0 10h2v-6h-2v6m0 10h2v-6h-2v6m0 10h2v-6h-2v6m-58-50h2v-1h1v-2h-3v3m57-3v2h1v1h2v-3h-3m-55 57h-2v3h3v-2h-1v-1m56 1h-1v2h3v-3h-2v1m-29-21h2v-6h6v-2h-6v-6h-2v6h-6v2h6v6"/></svg>