<svg xmlns="http://www.w3.org/2000/svg" viewBox="0 0 16 16" enable-background="new 0 0 16 16"><path d="m14 8c0-.4-.1-.7-.3-1h-1.2c1-.5 1.5-1.2 1.5-2 0-1.7-2.7-3-6-3s-6 1.3-6 3c0 .8.6 1.5 1.5 2h-1.2c-.2.3-.3.6-.3 1 0 .8.6 1.5 1.5 2h-1.2c-.2.3-.3.6-.3 1 0 1.7 2.7 3 6 3s6-1.3 6-3c0-.4-.1-.7-.3-1h-1.2c.9-.5 1.5-1.2 1.5-2m-11-3c0-1.1 2.2-2 5-2s5 .9 5 2-2.2 2-5 2-5-.9-5-2m10 6c0 1.1-2.2 2-5 2s-5-.9-5-2c0-.3.2-.7.6-.9 1.1.5 2.7.9 4.4.9s3.3-.4 4.4-.9c.4.2.6.6.6.9m-5-1c-2.8 0-5-.9-5-2 0-.3.2-.7.6-.9 1.1.5 2.7.9 4.4.9s3.3-.4 4.4-.9c.4.2.6.6.6.9 0 1.1-2.2 2-5 2"/></svg>