<svg xmlns="http://www.w3.org/2000/svg" viewBox="0 0 9 12" enable-background="new 0 0 9 12"><path fill-rule="evenodd" d="m4.531 0c-2.503 0-4.531 2.08-4.531 5.03 0 1.309.681 2.571 1.343 3.5.137.192.28.366.426.531h.294v1h5v-1h.185c.184-.208.362-.432.531-.679.627-.916 1.283-2.082 1.283-3.352 0-2.951-2.029-5.03-4.531-5.03m2.326 7.799c-.527.656-1.065 1.076-1.794 1.21v-2.946h-1v2.94c-.714-.138-1.249-.528-1.762-1.189-.572-.734-1.201-1.775-1.201-2.85 0-2.278 1.566-3.884 3.498-3.884s3.497 1.605 3.497 3.884c0 1.098-.645 2.095-1.238 2.835m-4.794 4.264h5v-1h-5v1"/></svg>