<svg xmlns="http://www.w3.org/2000/svg" viewBox="0 0 18 18" enable-background="new 0 0 18 18"><path d="m9 5c-1.7 0-3 1.3-3 3 0 1.7 1.3 3 3 3 1.7 0 3-1.3 3-3 0-1.7-1.3-3-3-3m0 5c-1.1 0-2-.9-2-2 0-1.1.9-2 2-2 1.1 0 2 .9 2 2 0 1.1-.9 2-2 2m5.8 2c.8-1.1 1.3-2.5 1.3-4 0-3.9-3.1-7-7-7-4 0-7.1 3.1-7.1 7 0 1.5.5 2.9 1.3 4l-2.3 3.9h2.4l1.2 2.1 2-3.4c.7.2 1.5.4 2.4.4.9 0 1.7-.2 2.5-.4l2 3.4 1.2-2.1h2.4l-2.3-3.9m-10.1 4.1l-.7-1.1-1.5.1 1.3-2.4c.6.6 1.2 1.1 2 1.5l-1.1 1.9m4.3-2.1c-3.3 0-6-2.7-6-6 0-3.3 2.7-6 6-6s6 2.7 6 6c0 3.3-2.7 6-6 6m5 1l-.7 1.1-1.1-1.9c.7-.4 1.4-.9 2-1.5l1.4 2.4-1.6-.1"/></svg>