<svg xmlns="http://www.w3.org/2000/svg" viewBox="0 0 14 14" enable-background="new 0 0 14 14"><path d="M3.5,5H1.7C1.5,5,0,4.9,0,6.7v1.9c0,0,0,1.4,1.7,1.4h1.7L7,13V2.5L3.5,5z" fill-rule="evenodd"/><path d="m10.5 13c-.4 0-.7-.2-.8-.6-.2-.5.1-1 .6-1.1.1 0 2-.8 2-3.5 0-2.8-2-3.5-2-3.5-.5-.2-.8-.7-.6-1.2.2-.5.6-.7 1.1-.6.1 0 3.2 1.1 3.2 5.2s-3.1 5.2-3.2 5.2c-.1.1-.2.1-.3.1"/><path d="m8.7 10.4c-.2 0-.4-.1-.6-.3-.3-.3-.3-.9 0-1.2 1-1 .3-2 0-2.3-.3-.3-.3-.9 0-1.2.4-.4.9-.4 1.3 0 1 1 1.7 3 0 4.7-.2.2-.4.3-.7.3"/></svg>