<svg xmlns="http://www.w3.org/2000/svg" viewBox="0 0 20 20" enable-background="new 0 0 20 20"><path fill-rule="evenodd" d="m20 10c0-5.522-4.477-10-10-10-5.522 0-10 4.478-10 10s4.478 10 10 10c5.523 0 10-4.478 10-10m-6.302-2.867l-3.066 3c-.19.186-.435.299-.71.285-.266-.003-.519-.111-.704-.301l-2.931-3c-.387-.394-.379-1.028.016-1.413.396-.386 1.029-.379 1.414.017l2.232 2.285 2.351-2.301c.194-.19.447-.285.699-.285.26 0 .519.101.715.301.386.393.379 1.026-.016 1.413m0 4.997l-3.066 3c-.19.186-.435.303-.71.285-.266-.002-.519-.111-.704-.301l-2.932-3c-.386-.395-.378-1.028.017-1.414.396-.385 1.029-.378 1.415.017l2.231 2.287 2.351-2.303c.194-.19.446-.285.699-.285.26 0 .519.101.715.3.386.394.38 1.027-.016 1.414"/></svg>