<svg xmlns="http://www.w3.org/2000/svg" viewBox="0 0 20 20" enable-background="new 0 0 20 20"><path fill-rule="evenodd" d="m10 0c-5.523 0-10 4.477-10 10 0 5.523 4.477 10 10 10 5.522 0 10-4.477 10-10 0-5.523-4.478-10-10-10m.002 16.989c-.558 0-1.01-.445-1.01-.995 0-.551.452-.996 1.01-.996s1.01.445 1.01.996c0 .55-.453.995-1.01.995m1.017-4.129c0 .748 0 .1 0 .703 0 .601-1.975.601-1.975.072v-1.575c0-.623 2.969-2.677 2.969-4.153 0-1.038-.654-1.828-2.024-1.828-1.371 0-1.982 1.578-1.982 2.326 0 1.216-2.052 1.507-2.052.125 0-.914.282-4.551 3.992-4.551 3.045 0 4.073 2.208 4.073 4.053 0 1.849-3 4.08-3 4.828"/></svg>