<svg xmlns="http://www.w3.org/2000/svg" viewBox="0 0 20 20" enable-background="new 0 0 20 20"><path fill-rule="evenodd" d="m10 0c-5.522 0-10 4.477-10 10 0 5.522 4.478 10 10 10 5.523 0 10-4.478 10-10 0-5.523-4.477-10-10-10m3.714 14.281c-.196.199-.455.3-.715.3-.252 0-.505-.095-.699-.284l-2.351-2.302-2.232 2.285c-.386.396-1.018.402-1.414.018-.395-.386-.402-1.02-.017-1.414l2.931-3c.185-.19.438-.298.704-.301.275-.014.521.1.71.285l3.066 3c.396.387.403 1.02.017 1.414m0-4.997c-.196.199-.455.3-.715.3-.253 0-.505-.095-.699-.285l-2.351-2.302-2.232 2.286c-.386.395-1.018.402-1.414.017-.394-.386-.402-1.018-.017-1.414l2.931-3c.186-.19.439-.298.705-.301.275-.018.521.1.71.286l3.066 3c.396.386.402 1.019.016 1.413"/></svg>