<svg xmlns="http://www.w3.org/2000/svg" viewBox="0 0 18 10" enable-background="new 0 0 18 10"><path d="m16 3.3c.8 0 .8-.8 0-.8h-1.8c-.4 0-.6.2-.6.4 0 .2.2.4.6.4h.1l-1.3 3.3-1.3-3.3h.3c.8 0 .8-.8 0-.8h-2.5c-.4 0-.5.2-.6.4 0 .2.2.4.6.4h.1l2.9 6.7 3.5-6.7m-10.8 5.9h-.4c-.9 0-1.1-.8-1.1-1.4l.7-5.3c.1-.5.2-1.2 1-1.7.8 0 .8-.8 0-.8h-3.9c-.4 0-.6.2-.7.4 0 .2.2.4.6.4.8 0 .8.8.7 1.7l-.6 5c0 .9-.2 1.7-.9 1.7-.8 0-.8.8 0 .8h7.6c0 0 0 0 .8-3.5-.9 1.8-1.3 2.7-3.8 2.7m11.8-1.2c-.6 0-1 .4-1 1s.4 1 1 1 1-.4 1-1-.4-1-1-1"/></svg>