<svg xmlns="http://www.w3.org/2000/svg" viewBox="0 0 59 50" enable-background="new 0 0 59 50"><path fill-rule="evenodd" d="m34.09 0c-13.422 0-24.332 10.66-24.859 24h-9.233l11.175 16.87 11.175-16.87h-9.132c.523-11.13 9.653-20 20.874-20 11.555 0 20.923 9.402 20.923 21 0 11.598-9.368 21-20.923 21-1.018 0-2.01-.098-2.989-.239v.239c-1.102 0-1.993.895-1.993 2 0 1.104.892 2 1.993 2 .243 0 .473-.051.688-.131.76.075 1.522.131 2.301.131 13.756 0 24.908-11.193 24.908-25 0-13.807-11.152-25-24.908-25"/></svg>