<svg xmlns="http://www.w3.org/2000/svg" viewBox="0 0 20 20" enable-background="new 0 0 20 20"><path d="m17.966 4.667l-4.982-4.667v3.326c-2.627.129-6.747 3.32-6.984 7.84.568-3 3.832-4.971 6.984-5.04v3.204l4.982-4.665"/><path d="m3.62 1.01c-.567.024-1.131.288-1.389.776l-.101.175c-.007.048-.021.091-.041.134l-.035.064-.017.165-.034.336v1.251 5.405 5.405 1.352c.003.103-.004.243.006.316l.023.213c-.003.146.08.27.102.41.219.5.746.939 1.216.977l.336.035.021.002.011.002c.026.002-.188-.001-.092-.006h.042.084.169.675 1.351 2.703 5.405l1.344-.002c.271-.033.554-.059.783-.227.243-.131.445-.342.583-.586l.103-.186c.019-.055.024-.098.046-.145.055-.027.063-.35.088-.549l.002-5.307h1l-.007 5.404c-.036.893-.507 1.795-1.307 2.23-.789.502-1.75.34-2.635.365h-5.404-2.703c-.9-.016-1.803.039-2.7-.037-.908-.098-1.673-.775-2.037-1.588-.329-.854-.166-1.785-.207-2.676v-5.402-5.405c.026-.885-.132-1.845.366-2.635.224-.39.558-.717.957-.926.194-.119.406-.192.625-.248.106-.04.218-.053.331-.06l.168-.016"/><path d="m3.624 1.01h.003.004.008.031.062.123.245.492.983 1.968v-1h-1.968-.983-.492c-.082-.004-.164.011-.246-.001l-.402.026c.021.139-.021-.094 0 0"/></svg>