<svg xmlns="http://www.w3.org/2000/svg" viewBox="0 0 30 17" enable-background="new 0 0 30 17"><g id="0"><path id="1" d="m9 9h1v-1h3v-1h-4v-2h-1v2h-4v1h3v1h1v3h-3v1h3v2h1v-2h3v-1h-3v-3m-6 4h1v-1h-1v1m1-2v1h1v-1h-1m2-1h-1v1h1v-1m1-1h-1v1h1v-1m4 1v-1h-1v1h1m1 1v-1h-1v1h1m0 0v1h1v-1h-1m1 2h1v-1h-1v1m5-8h-1v3h-1v1h1v4h-1v1h3v-1h-1v-4h1v-1h-1v-3m6 0h-1v3h-2v-3h-1v9h7v-2h-1v1h-5v-4h2v2h1v-3h2v3h1v-4h-3v-2m4.5-3h-27c-.828 0-1.5.672-1.5 1.5v12c0 .828.672 1.5 1.5 1.5h27c.828 0 1.5-.672 1.5-1.5v-12c0-.828-.672-1.5-1.5-1.5m.5 13.5c0 .276-.224.5-.5.5h-27c-.276 0-.5-.224-.5-.5v-12c0-.276.224-.5.5-.5h27c.276 0 .5.224.5.5v12"/></g></svg>