<svg xmlns="http://www.w3.org/2000/svg" viewBox="0 0 35 17" enable-background="new 0 0 35 17"><g id="0"><path id="1" d="m3 13v1h5v-1h-2v-8h-1c0 .497-.687 1-2 1v1c.862 0 1.517-.187 2-.469v6.469h-2m7-7v4h1v-4h-1m1-1v1h4v-1h-4m0 5v1h4v2h1v-7h-1v4h-4m-1 2v1h1v-1h-1m1 2h4v-1h-4v1m7-6h1v-2h-1v2m1-3v1h4v-1h-4m5 4v-3h-1v3h1m-2 1h1v-1h-1v1m-1 1h1v-1h-1v1m-2 1h2v-1h-2v1m-1 2h6v-2h-1v1h-4v-1h-1v2m8-1v1h3v-1h-1v-1h2v-1h-2v-5h-2v1h1v6h-1m5-3h1v-1h-2v2h1v-1m1 4v-1h-1v-1h-1v2h2m-14-14l-3 3h6l-3-3m15.5 2h-11.5v1h11.5c.276 0 .5.224.5.5v12c0 .276-.224.5-.5.5h-32c-.276 0-.5-.224-.5-.5v-12c0-.276.224-.5.5-.5h12.5v-1h-12.5c-.828 0-1.5.672-1.5 1.5v12c0 .828.672 1.5 1.5 1.5h32c.828 0 1.5-.672 1.5-1.5v-12c0-.828-.672-1.5-1.5-1.5"/></g></svg>