<svg xmlns="http://www.w3.org/2000/svg" viewBox="0 0 49 17" enable-background="new 0 0 49 17"><g id="0"><path id="1" d="m7 9h-1v1h1v-1m4 1v-1h-1v1h1m-8 3h1v-1h-1v1m3-3h-1v1h1v-1m7 3h1v-1h-1v1m-1-2v-1h-1v1h1m-8 0v1h1v-1h-1m14-6h-1v3h-1v1h1v4h-1v1h3v-1h-1v-4h1v-1h-1v-3m-9 4h1v-1h3v-1h-4v-2h-1v2h-4v1h3v1h1v3h-3v1h3v2h1v-2h3v-1h-3v-3m15-4h-1v3h-2v-3h-1v9h7v-2h-1v1h-5v-4h2v2h1v-3h2v3h1v-4h-3v-2m-12 6v1h1v-1h-1m35.5-9h-46c-.828 0-1.5.672-1.5 1.5v12c0 .828.672 1.5 1.5 1.5h46c.828 0 1.5-.672 1.5-1.5v-12c0-.828-.672-1.5-1.5-1.5m.5 13.5c0 .276-.224.5-.5.5h-46c-.276 0-.5-.224-.5-.5v-12c0-.276.224-.5.5-.5h46c.276 0 .5.224.5.5v12m-19-9.5v3c0 .551.448 1 1 1h5v3h-6v1h6c.552 0 1-.449 1-1v-3c0-.551-.448-1-1-1h-5v-3h6v-1h-6c-.552 0-1 .449-1 1m15.85 7.143c.093-.196.15-.412.15-.643v-6c0-.828-.672-1.5-1.5-1.5h-4c-.828 0-1.5.672-1.5 1.5v6c0 .828.672 1.5 1.5 1.5h4c.231 0 .448-.057.643-.15l.503.503c.098.098.226.147.354.147s.256-.049.354-.146c.195-.195.195-.512 0-.707l-.504-.504m-.85-.85l-.646-.646c-.195-.195-.512-.195-.707 0s-.195.512 0 .707l.646.646h-3.793c-.276 0-.5-.224-.5-.5v-6c0-.276.224-.5.5-.5h4c.276 0 .5.224.5.5v5.793"/></g></svg>