<svg xmlns="http://www.w3.org/2000/svg" viewBox="0 0 36 17" enable-background="new 0 0 36 17"><g id="0"><path id="1" d="m3 7h1v-1h-1v1m1-2v1h4v-1h-4m4 4h1v-3h-1v3m-3 1h3v-1h-3v1m4 3v-3h-1v3h1m-5 1h4v-1h-4v1m-1-2v1h1v-1h-1m8-4h1v-2h-1v2m1-3v1h4v-1h-4m4 4h1v-3h-1v3m-1 1h1v-1h-1v1m-1 1h1v-1h-1v1m-2 1h2v-1h-2v1m-1 2h6v-2h-1v1h-4v-1h-1v2m8-8v7h1v-7h-1m5-1h-4v1h4v-1m0 8h1v-7h-1v7m-4 1h4v-1h-4v1m9-8h-2v1h1v6h-1v1h3v-1h-1v-1h2v-1h-2v-5m2 5h1v-1h1v-1h-2v2m2 3v-1h-1v-1h-1v2h2m1.5-12h-33c-.828 0-1.5.672-1.5 1.5v12c0 .828.672 1.5 1.5 1.5h33c.828 0 1.5-.672 1.5-1.5v-12c0-.828-.672-1.5-1.5-1.5m.5 13.5c0 .276-.224.5-.5.5h-33c-.276 0-.5-.224-.5-.5v-12c0-.276.224-.5.5-.5h33c.276 0 .5.224.5.5v12"/></g></svg>