<svg xmlns="http://www.w3.org/2000/svg" viewBox="0 0 24 17" enable-background="new 0 0 24 17"><g id="0"><path id="1" d="m7.5 12.419l-2.473-7.419h-1.027v9h1v-5.919l2.025 5.919h.949l2.026-5.919v5.919h1v-9h-1.027l-2.473 7.419m9-.457l-2.333-6.962h-1.085l2.944 9h.949l2.948-9h-1.108l-2.315 6.962m6-9.962h-21c-.828 0-1.5.672-1.5 1.5v12c0 .828.672 1.5 1.5 1.5h21c.828 0 1.5-.672 1.5-1.5v-12c0-.828-.672-1.5-1.5-1.5m.5 13.5c0 .276-.224.5-.5.5h-21c-.276 0-.5-.224-.5-.5v-12c0-.276.224-.5.5-.5h21c.276 0 .5.224.5.5v12"/></g></svg>