<svg xmlns="http://www.w3.org/2000/svg" viewBox="0 0 30 17" enable-background="new 0 0 30 17"><g id="0"><path id="1" d="m28.5 2h-27c-.828 0-1.5.672-1.5 1.5v12c0 .828.672 1.5 1.5 1.5h27c.828 0 1.5-.672 1.5-1.5v-12c0-.828-.672-1.5-1.5-1.5m.5 13.5c0 .276-.224.5-.5.5h-27c-.276 0-.5-.224-.5-.5v-12c0-.276.224-.5.5-.5h27c.276 0 .5.224.5.5v12m-17-10.5h-8v1h8v-1m-9 4h4v1h1v-1h5v-1h-10v1m3 2h1v-1h-1v1m-1 1h1v-1h-1v1m-1 2h8v-2h-1v1h-6v-1h-1v2m6-3v1h1v-1h-1m5 0h1v-1h-1v1m1-2v1h1v-1h-1m9 1h-1v-1h-1v1h-2v-2h3v1h1v-1h1v-1h-1v-2h-4v-1h-1v1h-3v2h-1v1h1v1h1v-1h2v2h-3v3h-2v1h12v-1h-2v-3m-3-4h2v1h-2v-1m-4 1v-1h3v1h-3m1 6h-1v-2h1v2m3 0h-2v-2h2v2m2 0h-1v-2h1v2"/></g></svg>