<svg xmlns="http://www.w3.org/2000/svg" viewBox="0 0 36 17" enable-background="new 0 0 36 17"><g id="0"><path id="1" d="m3 7h1v-1h-1v1m1-2v1h4v-1h-4m5 1h-1v3h1v-3m-4 3v1h3v-1h-3m4 4v-3h-1v3h1m-5 1h4v-1h-4v1m-1-2v1h1v-1h-1m8-4h1v-2h-1v2m1-3v1h4v-1h-4m5 1h-1v3h1v-3m-1 3h-1v1h1v-1m-1 1h-1v1h1v-1m-1 1h-2v1h2v-1m-3 1v2h6v-2h-1v1h-4v-1h-1m8-6v7h1v-7h-1m1-1v1h4v-1h-4m5 8v-7h-1v7h1m-5 1h4v-1h-4v1m7-1v1h3v-1h-1v-1h2v-1h-2v-5h-2v1h1v6h-1m5-3h1v-1h-2v2h1v-1m1 4v-1h-1v-1h-1v2h2m-15-14l-3 3h6l-3-3m16.5 2h-12.5v1h12.5c.276 0 .5.224.5.5v12c0 .276-.224.5-.5.5h-33c-.276 0-.5-.224-.5-.5v-12c0-.276.224-.5.5-.5h12.5v-1h-12.5c-.828 0-1.5.672-1.5 1.5v12c0 .828.672 1.5 1.5 1.5h33c.828 0 1.5-.672 1.5-1.5v-12c0-.828-.672-1.5-1.5-1.5"/></g></svg>