<svg xmlns="http://www.w3.org/2000/svg" viewBox="0 0 24 17" enable-background="new 0 0 24 17"><path d="m17 11v1h1v-1h-1m-6.5-5c.3 0 .5-.2.5-.5 0-.3-.2-.5-.5-.5h-6c-.3 0-.5.2-.5.5 0 .3.2.5.5.5h-.5v3h.5c-.3 0-.5.2-.5.5 0 .3.2.5.5.5h5.5v3h-5.5c-.3 0-.5.2-.5.5 0 .3.2.5.5.5h5.5v-.5c0 .3.2.5.5.5s.5-.2.5-.5v-4c0-.3-.2-.5-.5-.5s-.5.2-.5.5v-.5h-5v-3h5.5m9.5 1c0-1.1-.9-2-2-2h-3c-1.1 0-2 .9-2 2v5c0 1.1.9 2 2 2h3c.4 0 .7-.1 1-.3v.3h1v-1h-.3c.2-.3.3-.6.3-1v-5m-1 5h-1v1h-3c-.6 0-1-.4-1-1v-5c0-.6.4-1 1-1h3c.6 0 1 .4 1 1v5"/><path d="m22 2h-20c-1.1 0-2 .9-2 2v11c0 1.1.9 2 2 2h20c1.1 0 2-.9 2-2v-11c0-1.1-.9-2-2-2m1 14h-22v-13h22v13" fill-rule="evenodd"/></svg>