<svg xmlns="http://www.w3.org/2000/svg" viewBox="0 0 18 18" enable-background="new 0 0 18 18"><path d="m16.8 11.3c0 0 0 0 0 0l-1.7-2c0-.1 0-.2 0-.2 0-.1 0-.1 0-.2l1.7-2c0 0 0 0 0 0 .2-.2.3-.4.2-.6v-.1c0 0 0 0 0 0l-1.4-2.3c0 0 0 0 0 0v-.1c-.1-.2-.4-.2-.6-.1l-2.4.4c-.3-.1-.6-.3-.9-.5l-.8-2.1c0 0 0 0 0 0 0-.2-.2-.4-.5-.4h-2.8c-.2-.1-.4.1-.4.3l-.8 2.2c-.3.2-.6.3-.8.5l-2.5-.4c0 0 0 0 0 0-.2-.1-.4 0-.5.1v.1c0 0 0 0 0 0l-1.5 2.3c0 0 0 0 0 0v.1c-.1.2 0 .4.2.5l1.7 2c0 .1 0 .1 0 .2 0 .1 0 .2 0 .2l-1.7 2c0 0 0 0 0 0-.2.1-.3.4-.2.5v.1c0 0 0 0 0 0l1.4 2.4c.1.2.4.2.6.1l2.5-.4c.2.1.4.3.7.4l.9 2.2c0 .2.2.4.5.4.1 0 .2 0 .3-.1h2.3c.1.1.2.1.3.1.3 0 .5-.2.5-.4l.9-2.2c.2-.1.5-.3.7-.4l2.5.4c0 0 0 0 0 0 .2.1.5.1.6-.1v-.1l1.4-2.4c-.1-.1-.2-.3-.4-.4m-.8.4l-1.1 1.8-.4-.1-1.2-.2c0 0 0 0 0 0l-1.3-.2c-.3.2-.7.4-1.1.6 0 0 .1.1.1.1h.1l-.9 2.3h-2.3l-.9-2.3h.1c0 0 .1-.1.1-.1-.4-.2-.7-.4-1-.6l-2.9.5-1.1-1.8 1.7-2c.1.1.2.1.3 0-.1-.2-.2-.4-.2-.7 0-.2 0-.4.1-.6l-.1.2-1.9-2.2 1.1-1.8 2.8.4c.3-.3.7-.5 1.1-.7l.8-2.3v-.1h2.1v.1l.2.4.3.8c0 0 0 0 0 0l.4 1.1c0 0 0 0 0 0 .4.2.7.4 1.1.7l2.8-.5 1.2 1.9-.3.3-.8.9c0 0 0 0 0 0l-.6.7c-.1-.1-.2-.1-.3 0 0 .2 0 .5 0 .7 0 .2 0 .3 0 .5v-.1l.8 1 1.2 1.3m-7-5.7c-1.6 0-3 1.3-3 3s1.3 3 3 3c1.7 0 3-1.3 3-3s-1.3-3-3-3m0 5c-1.1 0-2-.9-2-2 0-1.1.9-2 2-2s2 .9 2 2c0 1.1-.9 2-2 2"/></svg>