<svg xmlns="http://www.w3.org/2000/svg" viewBox="0 0 19 19" enable-background="new 0 0 19 19"><path d="m11.535 0c-4.143 0-7.5 3.358-7.5 7.5 0 1.918.726 3.663 1.911 4.989-.083.021-.164.057-.229.122l-1.173 1.173-3.645-3.644c-.191-.192-.502-.192-.694 0-.191.191-.191.503 0 .694l3.645 3.645-3.703 3.703c-.195.195-.195.512 0 .707s.512.195.707 0l3.703-3.703 3.645 3.645c.192.191.503.191.694 0s.191-.503 0-.694l-3.645-3.645 1.173-1.173c.065-.065.101-.146.122-.229 1.326 1.183 3.071 1.91 4.989 1.91 4.143 0 7.5-3.357 7.5-7.5 0-4.142-3.357-7.5-7.5-7.5m0 14c-3.59 0-6.5-2.91-6.5-6.5s2.91-6.5 6.5-6.5 6.5 2.91 6.5 6.5-2.91 6.5-6.5 6.5"/></svg>