<?xml version="1.0" encoding="iso-8859-1"?>
<!-- Generator: Adobe Illustrator 19.0.0, SVG Export Plug-In . SVG Version: 6.00 Build 0)  -->
<svg version="1.1" xmlns="http://www.w3.org/2000/svg" xmlns:xlink="http://www.w3.org/1999/xlink" x="0px" y="0px"
	 viewBox="0 0 12 12" style="enable-background:new 0 0 12 12;" xml:space="preserve">
<g id="&#x56FE;&#x5C42;_1">
	<g id="Song_single">
	</g>
	<g id="Download">
	</g>
	<g id="Friend">
	</g>
	<g id="MV">
	</g>
	<g id="like">
	</g>
	<g id="Local_Music">
	</g>
	<g id="Discovery">
	</g>
	<g id="singer">
	</g>
	<g id="&#x65B0;&#x5EFA;&#x7B26;&#x53F7;_8">
	</g>
	<g id="Cloud_music">
	</g>
	<g id="Private_fm">
	</g>
	<g id="radio">
	</g>
	<g id="search_for">
	</g>
	<g id="Skin">
	</g>
	<g id="News">
	</g>
	<g id="Set_up">
	</g>
	<g id="mini">
	</g>
	<g id="Maximize">
	</g>
	<g id="drop_out">
	</g>
	<g id="minimize">
	</g>
	<g id="Shuffle_Playback">
	</g>
	<g id="List_cycle">
	</g>
	<g id="Play_in_order">
	</g>
	<g id="Single_cycle">
		<g id="&#x65B0;&#x5EFA;&#x7B26;&#x53F7;_1">
		</g>
	</g>
	<g id="playlist">
	</g>
	<g id="Enlarge">
	</g>
	<g id="Retreat">
	</g>
	<g id="go_ahead">
	</g>
	<g id="drop_down">
	</g>
	<g id="Lyrics">
	</g>
	<g id="play">
	</g>
	<g id="time_out">
	</g>
	<g id="On_a">
	</g>
	<g id="Next_song">
	</g>
	<g id="&#x65B0;&#x5EFA;&#x7B26;&#x53F7;">
	</g>
	<g id="&#x65B0;&#x5EFA;&#x7B26;&#x53F7;_1_1_">
	</g>
</g>
<g id="&#x56FE;&#x5C42;_3">
	<g id="Voice">
	</g>
	<g id="share_it">
	</g>
	<g id="Thumbs_up">
	</g>
	<g id="Silent">
	</g>
	<path id="XMLID_1054_" d="M7,0.028c-2.761,0-5,2.239-5,5c0,1.22,0.454,2.323,1.18,3.191L2.5,8.899L0.814,7.213
		c-0.174-0.174-0.455-0.174-0.629,0s-0.174,0.455,0,0.629l1.686,1.686l-1.686,1.685c-0.174,0.174-0.174,0.455,0,0.629
		c0.087,0.087,0.2,0.13,0.314,0.13c0.113,0,0.228-0.043,0.314-0.13L2.5,10.157l1.685,1.685c0.087,0.087,0.201,0.13,0.314,0.13
		s0.228-0.043,0.314-0.13c0.174-0.174,0.174-0.455,0-0.629L3.129,9.528l0.68-0.68C4.677,9.574,5.78,10.028,7,10.028
		c2.761,0,5-2.239,5-5C12,2.266,9.761,0.028,7,0.028z M7,9.119c-1.117,0-2.13-0.452-2.869-1.181C4.125,7.93,4.122,7.921,4.115,7.914
		c-0.007-0.007-0.017-0.01-0.024-0.016c-0.729-0.739-1.182-1.752-1.182-2.87c0-2.256,1.835-4.091,4.091-4.091
		c2.256,0,4.091,1.835,4.091,4.091C11.091,7.284,9.256,9.119,7,9.119z"/>
</g>
</svg>
