<?xml version="1.0" encoding="iso-8859-1"?>
<!-- Generator: Adobe Illustrator 19.0.0, SVG Export Plug-In . SVG Version: 6.00 Build 0)  -->
<svg version="1.1" xmlns="http://www.w3.org/2000/svg" xmlns:xlink="http://www.w3.org/1999/xlink" x="0px" y="0px"
	 viewBox="0 0 12 12" style="enable-background:new 0 0 12 12;" xml:space="preserve">
<g id="&#x56FE;&#x5C42;_1">
	<g id="Song_single">
	</g>
	<g id="Download">
	</g>
	<g id="Friend">
	</g>
	<g id="MV">
	</g>
	<g id="like">
	</g>
	<g id="Local_Music">
	</g>
	<g id="Discovery">
	</g>
	<g id="singer">
	</g>
	<g id="&#x65B0;&#x5EFA;&#x7B26;&#x53F7;_8">
	</g>
	<g id="Cloud_music">
	</g>
	<g id="Private_fm">
	</g>
	<g id="radio">
	</g>
	<g id="search_for">
	</g>
	<g id="Skin">
	</g>
	<g id="News">
	</g>
	<g id="Set_up">
	</g>
	<g id="mini">
	</g>
	<g id="Maximize">
	</g>
	<g id="drop_out">
	</g>
	<g id="minimize">
	</g>
	<g id="Shuffle_Playback">
	</g>
	<g id="List_cycle">
	</g>
	<g id="Play_in_order">
	</g>
	<g id="Single_cycle">
		<g id="&#x65B0;&#x5EFA;&#x7B26;&#x53F7;_1">
		</g>
	</g>
	<g id="playlist">
	</g>
	<g id="Enlarge">
	</g>
	<g id="Retreat">
	</g>
	<g id="go_ahead">
	</g>
	<g id="drop_down">
	</g>
	<g id="Lyrics">
	</g>
	<g id="play">
	</g>
	<g id="time_out">
	</g>
	<g id="On_a">
	</g>
	<g id="Next_song">
	</g>
	<g id="&#x65B0;&#x5EFA;&#x7B26;&#x53F7;">
	</g>
	<g id="&#x65B0;&#x5EFA;&#x7B26;&#x53F7;_1_1_">
	</g>
</g>
<g id="&#x56FE;&#x5C42;_3">
	<g id="Voice">
	</g>
	<g id="share_it">
	</g>
	<g id="Thumbs_up">
	</g>
	<g id="Silent">
	</g>
	<path id="XMLID_855_" d="M11.5,0H7C6.723,0,6.5,0.224,6.5,0.5S6.723,1,7,1h3.293L8.148,3.145C7.286,2.44,6.2,2,5,2
		C2.239,2,0,4.239,0,7c0,2.761,2.239,5,5,5s5-2.239,5-5c0-1.2-0.44-2.287-1.145-3.148L11,1.707V5c0,0.276,0.224,0.5,0.5,0.5
		S12,5.276,12,5V0.5C12,0.224,11.776,0,11.5,0z M5,11.091c-2.256,0-4.091-1.835-4.091-4.091c0-2.256,1.835-4.091,4.091-4.091
		c2.256,0,4.091,1.835,4.091,4.091C9.091,9.256,7.256,11.091,5,11.091z"/>
</g>
</svg>
