<svg xmlns="http://www.w3.org/2000/svg" viewBox="0 0 30 30" enable-background="new 0 0 30 30"><path d="m14 13.39v7.207c-.441-.204-.982-.269-1.533-.139-1.15.271-1.9 1.269-1.676 2.228.227.959 1.342 1.518 2.493 1.246 1.151-.271 1.901-1.268 1.676-2.227-.026-.111-.067-.216-.116-.315h.156v-6.134c.708.035 1.6.375 2 1.745 0-4.49-3-3.611-3-3.611m-2.729 4.126c-.631-.93-.922-2.108-.695-3.355.319-1.754 1.711-3.192 3.455-3.559 2.903-.61 5.469 1.601 5.469 4.398 0 1.332-.582 2.531-1.505 3.355-.274.245-.321.656-.117.962.254.381.791.452 1.132.146 1.221-1.098 1.99-2.691 1.99-4.463 0-3.313-2.687-6-6-6s-6 2.687-6 6c0 1.236.374 2.387 1.016 3.341.253.377.789.435 1.127.132.271-.245.333-.655.128-.957m3.729-11.516c-4.971 0-9 4.03-9 9 0 1.781.517 3.441 1.41 4.838.243.38.752.48 1.108.204.3-.233.387-.659.182-.978-.99-1.529-1.438-3.438-1.073-5.455.537-2.971 2.907-5.383 5.869-5.962 4.791-.936 9 2.725 9 7.353 0 3.206-2.02 5.949-4.857 7.02-.369.139-.588.516-.484.895l.008.025c.115.428.576.646.992.491 3.411-1.28 5.841-4.572 5.841-8.431 0-4.971-4.03-9-9-9"/></svg>