<svg xmlns="http://www.w3.org/2000/svg" viewBox="0 0 12 12" enable-background="new 0 0 12 12"><path fill-rule="evenodd" d="m11.611 2.719l-2.342-2.332c-.518-.516-1.357-.516-1.876 0l-3.106 3.092.644.641 2.725-2.715c.324-.322.85-.322 1.173 0l1.76 1.752c.324.322.324.844 0 1.167l-2.725 2.713.642.639 3.105-3.092c.519-.516.519-1.35 0-1.865m-7.293 7.843c-.324.322-.849.322-1.173 0l-1.759-1.751c-.324-.322-.324-.846 0-1.167l2.72-2.709-.612-.61-3.106 3.092c-.518.515-.518 1.35 0 1.865l2.344 2.331c.517.516 1.357.516 1.875 0l3.107-3.091-.674-.671-2.722 2.711m-.446-2.468c.171.17.448.17.619 0l3.795-3.778c.171-.17.171-.446 0-.616-.171-.17-.448-.17-.619 0l-3.795 3.778c-.171.17-.171.445 0 .616"/></svg>