<svg xmlns="http://www.w3.org/2000/svg" viewBox="0 0 15 11" enable-background="new 0 0 15 11"><path fill-rule="evenodd" d="m14.743 1.59c.372-.394.335-.997-.081-1.348s-1.055-.316-1.425.077l-7.542 8.202-3.883-4.807c-.338-.419-.971-.5-1.415-.18-.443.319-.529.919-.19 1.338l4.647 5.753c.028.034.067.053.099.082.001.009.014.021.024.03.011.001.026.012.038.021.093.075.193.132.305.169.002.0001.005.002.007.003.31.102.661.076.941-.125.055-.04.088-.095.132-.143 0 0 .0001 0 .002-.0001l.081-.089c.014-.02.038-.033.05-.054l8.21-8.928"/></svg>