<svg xmlns="http://www.w3.org/2000/svg" viewBox="0 0 14 12" enable-background="new 0 0 14 12"><path fill-rule="evenodd" d="m11.257 6.212l.034-.029c-.678 0-.678-.728-.678-.728 0-2.91 2.71-4.364 2.71-4.364l-.011-.035c.201-.072.349-.271.349-.511 0-.301-.227-.545-.507-.545-.057 0-.108.016-.159.034l-.011-.034c-6.433 3.638-5.078 9.09-5.078 9.09 0 1.605 1.364 2.909 3.047 2.909 1.683 0 3.047-1.304 3.047-2.909 0-1.506-1.205-2.732-2.743-2.879m-7.787 0l.034-.029c-.678 0-.678-.728-.678-.728 0-2.91 2.709-4.364 2.709-4.364l-.001-.034c.202-.072.349-.271.349-.511 0-.302-.228-.546-.508-.546-.056 0-.108.016-.158.034l-.011-.034c-6.433 3.638-5.078 9.09-5.078 9.09 0 1.605 1.363 2.909 3.046 2.909 1.684 0 3.047-1.304 3.047-2.909 0-1.506-1.204-2.731-2.742-2.879"/></svg>