<svg xmlns="http://www.w3.org/2000/svg" viewBox="0 0 30 30" enable-background="new 0 0 30 30"><path d="m15 8.296l2.363 4.438.389.729.823.062 2.873.216-2.661 2.445-.617.567.16.823.758 3.905-3.172-2.445-.916-.704-.916.705-3.173 2.445.758-3.905.16-.823-.617-.567-2.661-2.445 2.873-.216.823-.062.388-.729 2.365-4.439m0-2.296c-.283 0-.566.144-.706.431l-2.982 5.598-4.593.346c-.67.05-.963.834-.479 1.279l3.957 3.637-1.128 5.813c-.107.501.312.896.767.896.165 0 .333-.051.484-.168l4.68-3.606 4.68 3.606c.15.117.319.168.484.168.455 0 .874-.395.767-.896l-1.128-5.813 3.957-3.637c.484-.445.191-1.229-.479-1.279l-4.594-.346-2.981-5.598c-.14-.287-.423-.431-.706-.431z"/></svg>