<svg xmlns="http://www.w3.org/2000/svg" viewBox="0 0 40 40" enable-background="new 0 0 40 40"><path fill-rule="evenodd" d="m21 29.03h-9l-.03-.031c-.099.018-.199.031-.303.031-.921 0-1.667-.738-1.667-1.646 0-.103.013-.201.031-.3l-.031-.028c0 0 .017-5.688 6.308-7.768.829.34 1.738.531 2.692.531.83 0 1.623-.15 2.361-.412.96.35 1.752.792 2.43 1.277l1.248-1.233c-.645-.472-1.262-.825-1.77-1.075 1.658-1.263 2.729-3.238 2.729-5.464.0001-3.815-3.132-6.908-6.998-6.908s-7 3.093-7 6.908c0 2.113.964 4 2.479 5.268-1.816.806-5.96 3.242-6.479 8.876h.034c-.011.11-.034.217-.034.329 0 1.999 1.642 3.619 3.667 3.619h9.333c.553 0 1-.442 1-.987 0-.544-.447-.987-1-.987m-7-16.12c0-2.725 2.239-4.934 5-4.934 2.761 0 5 2.209 5 4.934s-2.239 4.934-5 4.934c-2.762 0-5-2.209-5-4.934m17 12.17h-3v-2.961c0-.544-.446-.986-1-.986-.552 0-1 .442-1 .986v2.961h-2.999c-.552 0-1 .442-1 .987s.448.986 1 .986h2.999v2.961c0 .545.448.987 1 .987.554 0 1-.442 1-.987v-2.961h3c.552 0 1-.441 1-.986s-.448-.987-1-.987"/></svg>