<svg xmlns="http://www.w3.org/2000/svg" viewBox="0 0 40 40" enable-background="new 0 0 40 40"><path fill-rule="evenodd" d="m26.333 15.667h-12.666c-.553 0-1 .448-1 1s.448 1 1 1h12.666c.552 0 1-.448 1-1s-.449-1-1-1m1.668-6.667h-16c-2.209 0-4 1.791-4 4v11.335c0 2.207 1.791 3.999 4 3.999h1.333v3.666c0 .554.448 1 1 1 .018 0 .033-.009.05-.001.266 0 .532-.102.735-.306l5.618-4.351h7.265c2.208 0 3.999-1.792 3.999-3.999v-11.334c0-2.209-1.791-4-3.999-4m1.999 14.667c0 1.472-1.192 2.666-2.666 2.666h-6.667v.061c-.37-.138-.8-.063-1.097.233l-4.236 3.282v-2.576c0-.552-.448-1-1-1-.118 0-.228.029-.333.067v-.067h-1.333c-1.473 0-2.667-1.194-2.667-2.666v-10c-.0001-1.473 1.193-2.667 2.666-2.667h14.667c1.474 0 2.666 1.194 2.666 2.667v10m-9-4h-7.333c-.553 0-1 .447-1 1 0 .551.448.999 1 .999h7.333c.553 0 1-.448 1-.999 0-.553-.447-1-1-1"/></svg>