<svg xmlns="http://www.w3.org/2000/svg" viewBox="0 0 40 40" enable-background="new 0 0 40 40"><path d="m19.354 28.725c-1.082 0-1.959.878-1.959 1.959 0 1.082.877 1.959 1.959 1.959 1.082 0 1.958-.877 1.958-1.959.0001-1.081-.876-1.959-1.958-1.959m.348-21.725c-4.247 0-7.702 3.455-7.702 7.702 0 1.135.92 2.056 2.055 2.056 1.135 0 2.056-.92 2.056-2.056 0-1.98 1.61-3.591 3.591-3.591 1.98 0 3.591 1.611 3.591 3.591 0 1.172-.574 2.273-1.538 2.946-.088.059-1.437.973-2.521 1.679-1.946 1.267-1.937 3.081-1.926 5.181l.002.604c0 1.135.92 2.055 2.055 2.055s2.055-.92 2.055-2.055l-.002-.626c-.004-.675-.008-1.434.063-1.717 1.148-.748 2.598-1.729 2.598-1.729l-.003-.004c.008-.005.017-.007.024-.012 2.068-1.441 3.305-3.805 3.305-6.324-.0001-4.245-3.456-7.7-7.703-7.7"/></svg>