<svg xmlns="http://www.w3.org/2000/svg" viewBox="0 0 30 30" enable-background="new 0 0 30 30"><path d="m18.273 13.752c1.05-.917 1.727-2.249 1.727-3.752 0-2.762-2.238-5-5-5s-5 2.238-5 5c0 1.503.677 2.835 1.727 3.752-2.712 1.271-4.727 4.04-4.727 7.248 0 1.657 1.344 3 3 3 .414 0 .75-.336.75-.75s-.336-.75-.75-.75c-.827 0-1.5-.673-1.5-1.5 0-2.921 2.164-5.531 4.919-6.279.499.167 1.024.279 1.581.279s1.082-.112 1.581-.279c2.755.748 4.919 3.358 4.919 6.279 0 .827-.673 1.5-1.5 1.5-.414 0-.75.336-.75.75s.336.75.75.75c1.656 0 3-1.343 3-3 0-3.213-2.02-5.977-4.727-7.248m-6.773-3.752c0-1.93 1.57-3.5 3.5-3.5s3.5 1.57 3.5 3.5-1.57 3.5-3.5 3.5-3.5-1.57-3.5-3.5"/></svg>