<svg xmlns="http://www.w3.org/2000/svg" viewBox="0 0 13 13" enable-background="new 0 0 13 13"><path fill-rule="evenodd" d="m6.5 0c-3.59 0-6.5 2.91-6.5 6.5s2.91 6.5 6.5 6.5 6.5-2.91 6.5-6.5-2.91-6.5-6.5-6.5m0 12c-3.037 0-5.5-2.463-5.5-5.5s2.463-5.5 5.5-5.5 5.5 2.463 5.5 5.5-2.463 5.5-5.5 5.5m3-7.909c-.229-.161-.545-.106-.705.124l-3.421 4.09-1.331-1.867c-.195-.221-.7-.212-.877.012-.318.402-.133.682.031.913l1.615 2.265c.02.036.044.067.071.1l.024.034c.2.229.427.288.636.208.215-.063.34-.274.44-.417l3.979-4.756c.161-.231-.233-.546-.462-.706"/></svg>