<svg xmlns="http://www.w3.org/2000/svg" viewBox="0 0 26 26" enable-background="new 0 0 26 26"><path d="m13 0c-7.168 0-13 5.832-13 13 0 7.168 5.832 13 13 13 7.168 0 13-5.832 13-13 0-7.168-5.832-13-13-13m11 13c0 1.412-.277 2.759-.764 4h-3.127c.24-1.15.395-2.422.395-3.861 0-1.546-.174-2.912-.447-4.139h3.18c.486 1.242.763 2.588.763 4m-22 0c0-1.412.277-2.758.764-4h3.184c-.274 1.223-.448 2.584-.448 4.125 0 1.445.156 2.722.4 3.875h-3.136c-.487-1.241-.764-2.588-.764-4m5.5.125c0-1.572.194-2.936.499-4.125h4v8h-4.056c-.274-1.121-.444-2.404-.444-3.875m6.5-10.537c.776.583 2.276 1.953 3.333 4.412h-3.333v-4.412m-2 .025v4.387h-3.324c1.048-2.422 2.532-3.79 3.324-4.387m0 16.387v4.38c-.787-.554-2.333-1.895-3.393-4.38h3.393m2 4.436v-4.436h3.424c-1.069 2.559-2.646 3.897-3.424 4.436m0-6.436v-8h4.01c.305 1.193.498 2.561.498 4.139 0 1.465-.164 2.744-.432 3.861h-4.072m8.208-10h-2.73c-.662-1.812-1.551-3.198-2.401-4.208 2.111.846 3.901 2.326 5.131 4.208m-13.252-4.22c-.86 1.012-1.758 2.401-2.426 4.22h-2.738c1.237-1.891 3.038-3.375 5.164-4.22m-5.164 16.22h2.658c.648 1.818 1.541 3.182 2.404 4.183-2.082-.851-3.844-2.322-5.062-4.183m13.417 4.159c.85-1 1.724-2.356 2.358-4.159h2.641c-1.205 1.843-2.943 3.305-4.999 4.159"/></svg>