<svg xmlns="http://www.w3.org/2000/svg" viewBox="0 0 26 26" enable-background="new 0 0 26 26"><path d="M25,12H14V1h8.363C23.817,1,25,2.183,25,3.637V12z M16,10h7V3.637C23,3.286,22.715,3,22.363,3H16V10z"/><path d="M12,12H1V3.637C1,2.183,2.183,1,3.637,1H12V12z M3,10h7V3H3.637C3.286,3,3,3.286,3,3.637V10z"/><path d="M12,25H3.637C2.183,25,1,23.817,1,22.363V14h11V25z M3,16v6.363C3,22.715,3.286,23,3.637,23H10v-7H3z"/><path d="M22.363,25H14V14h11v8.363C25,23.817,23.817,25,22.363,25z M16,23h6.363C22.715,23,23,22.715,23,22.363V16h-7V23z"/></svg>