<svg xmlns="http://www.w3.org/2000/svg" viewBox="0 0 26 26" enable-background="new 0 0 26 26"><path d="m12 1h2v5h-2z"/><path d="m8 2h2v4h-2z"/><path d="m16 0h2v6h-2z"/><path d="m26 14.3c0-2.2-1.5-4.1-3.4-4.4-.6-1.1-1.7-1.9-3.1-1.9h-15c-1.9 0-3.5 1.5-3.5 3.4v3.4c0 2.7 2 10.2 11 10.2 5.8 0 8.7-3.3 10-6.2 2.2 0 4-2 4-4.5m-23-2.9c0-.8.7-1.4 1.5-1.4h15.1c.8 0 1.5.6 1.5 1.4v2.8h-18.1v-2.8m9 11.6c-6.3 0-8.2-4.4-8.8-6.7h17.5c-.5 2.3-2.5 6.7-8.7 6.7m10.7-6.4c.2-.8.3-1.4.3-1.8v-2.7c.6.4 1 1.2 1 2.2 0 1-.5 1.9-1.3 2.3"/></svg>