<svg xmlns="http://www.w3.org/2000/svg" viewBox="0 0 26 26" enable-background="new 0 0 26 26"><path d="m22.2 3h-3.8-2.7-5.3-2.7-3.9c-1.5 0-2.8 1.3-2.8 2.8v13.4c0 1.5 1.3 2.8 2.8 2.8h18.3c1.6 0 2.8-1.3 2.8-2.8v-13.4c.1-1.5-1.2-2.8-2.7-2.8m-4.2 2v8h-2v-8h2m-7.7 10c.9 0 1.7-.8 1.7-1.8v-8.2h2v8.2c0 1 .7 1.8 1.7 1.8h.3v5h-6v-5h.3m-.3-10v8h-2v-8h2m-7 14.2v-13.4c0-.4.4-.8.8-.8h2.2v8.2c0 1 .7 1.8 1.7 1.8h.3v5h-4.2c-.4 0-.8-.4-.8-.8m20 0c0 .4-.4.8-.8.8h-4.2v-5h.3c.9 0 1.7-.8 1.7-1.8v-8.2h2.2c.4 0 .8.4.8.8v13.4"/></svg>