<svg xmlns="http://www.w3.org/2000/svg" viewBox="0 0 26 26" enable-background="new 0 0 26 26"><path d="m13 26c-7.168 0-13-5.832-13-13 0-7.168 5.832-13 13-13 7.168 0 13 5.832 13 13 0 7.168-5.832 13-13 13m0-24c-6.07 0-11 4.935-11 11s4.935 11 11 11 11-4.935 11-11-4.935-11-11-11"/><path d="m13 22c-4.411 0-8-3.141-8-7h2c0 2.757 2.691 5 6 5s6-2.243 6-5h2c0 3.859-3.589 7-8 7"/><path fill-rule="evenodd" d="m18.534 8c-.811 0-1.467.672-1.467 1.5s.656 1.5 1.467 1.5c.81 0 1.466-.672 1.466-1.5s-.656-1.5-1.466-1.5m-11.07 0c-.81 0-1.466.672-1.466 1.5s.656 1.5 1.466 1.5c.811 0 1.467-.672 1.467-1.5s-.657-1.5-1.467-1.5"/></svg>