<svg xmlns="http://www.w3.org/2000/svg" viewBox="0 0 16 16" enable-background="new 0 0 16 16"><g fill-rule="evenodd"><path d="m9.238 3.28v1.29c1.45.512 2.495 1.872 2.495 3.487 0 2.051-1.676 3.714-3.743 3.714-.095 0-.183-.021-.276-.027-.0001.009-.003.018-.004.027-2.257 0-4.087-1.673-4.087-3.736 0-1.378.732-2.979 2.355-3.789l-.23-.591c-1.624.818-2.748 2.472-2.748 4.403 0 2.735 2.234 4.952 4.99 4.952s4.99-2.217 4.99-4.952c0-2.305-1.593-4.225-3.742-4.778"/><path d="m9.02 3.624l-1.023-.624v4.03c-.417.1-.798.408-.944.873-.182.586.096 1.082.623 1.108.526.024 1.101-.43 1.284-1.017.066-.213.054-.389.007-.542l.053-3.829"/></g></svg>