<svg xmlns="http://www.w3.org/2000/svg" viewBox="-288 411.9 18 18" enable-background="new -288 411.9 18 18"><path d="m-274 418.2c-.1-2.4-2.1-4.3-4.5-4.3-2.5 0-4.5 2-4.5 4.5 0 .2 0 .3 0 .5-2.2 0-4 1.8-4 4 0 2.2 1.8 4 4 4h8v-.1c2.2-.3 4-2.1 4-4.4 0-2-1.3-3.6-3-4.2m-1 7.6l-8 .1c-1.7 0-3-1.3-3-3 0-1.7 1.3-3 3-3 .5 0 1 0 1.4 0 2.7.2 3.6 3 3.6 3 0-3.7-3.4-4-3.9-4 0-.2-.1-.3-.1-.5 0-1.9 1.6-3.5 3.5-3.5 1.9 0 3.5 1.6 3.5 3.5 0 .2 0 .4-.1.5 1.7.2 3.1 1.7 3.1 3.5 0 1.8-1.3 3.2-3 3.4" fill-rule="evenodd"/></svg>