<svg xmlns="http://www.w3.org/2000/svg" viewBox="-288 411.9 18 18" enable-background="new -288 411.9 18 18"><g fill-rule="evenodd"><path d="m-286 420.9c0-2.3 1.1-4.3 2.8-5.6l-.6-.8c-1.9 1.5-3.2 3.8-3.2 6.4 0 2.6 1.3 4.9 3.2 6.4l.6-.8c-1.7-1.3-2.8-3.3-2.8-5.6"/><path d="m-281.4 417.7l-.6-.8c-1.2.9-2 2.4-2 4s.8 3.1 2 4l.6-.8c-1-.7-1.6-1.9-1.6-3.2 0-1.3.6-2.5 1.6-3.2"/><path d="m-276 416.9l-.6.8c1 .7 1.6 1.9 1.6 3.2 0 1.3-.6 2.5-1.6 3.2l.6.8c1.2-.9 2-2.4 2-4s-.8-3.1-2-4"/><path d="m-274.2 414.5l-.6.8c1.7 1.3 2.8 3.3 2.8 5.6 0 2.3-1.1 4.3-2.8 5.6l.6.8c1.9-1.5 3.2-3.8 3.2-6.4 0-2.6-1.3-4.9-3.2-6.4"/><circle cx="-279" cy="420.9" r="2"/></g></svg>