<svg xmlns="http://www.w3.org/2000/svg" viewBox="0 0 114 20" enable-background="new 0 0 114 20"><path d="m113.9 16.7c-1.4-2.4-1.9-4.7-1.9-4.7h-1.9c.5 3.3 2.3 4.7 3.8 5 0 0 .2-.1 0-.3"/><path d="m92.9 9h-10.4c-.8 0-1.4 0-1.4-.2v7.5c0 1.5.6 1.7 2 1.7h12v-7.3c.1-1.5-.8-1.7-2.2-1.7m.3 8h-8.9c-.7 0-1.1 0-1.1-.5v-2.5h10v3m0-4h-10v-3h9c.7 0 1 0 1 .5v2.5"/><path d="m96.1 7h-2.3c.2 0 .3-.8.3-1.3v-.7h-2v.8c0 .7-.3 1.2-1 1.2h-5.9c-.7 0-1-.5-1-1.2v-.8h-2v.7c0 .5.1 1.3.3 1.3h-3.3c0 1 .3 1 1 1h17c-.1-1-.4-1-1.1-1"/><path d="m65.1 9h12.1c0-1-.3-1-1-1h-16c0 1 .3 1 1 1h1.8c0 0-.9 4.6-1.3 6.3-.1.6-.1.9 0 1.1.2 1.1 1.1 1.5 2.2 1.5h10.6c1.2 0 2-.4 2.2-1.5 0-.2.1-.6 0-1.1-.2-1-.7-3.3-.7-3.3h-2c0 0 .5 2.6.6 3.4.2.9-.4 1.6-1 1.6h-9c-1.1 0-1.1-1.1-1-1.6.5-1.7 1.5-6.4 1.5-6.4"/><path d="m113.2 10c0-1-.2-1-.7-1-1.4 0-5.3 0-5.3 0v-3h-2c0 0 0 2 0 3h-3.3c-.7 0-.7 0-.7-.7v-.1l.1-4.1c.9 0 7.7 0 11.5-.2.3 0 .2-1 0-1-4.5.2-11.6.1-11.6.1-1.5 0-2.1-.1-2.1-.1s-.3 4.1-.3 5.1c0 2 .9 2 2.3 2h4.1v6.1c0 .6-.2.8-2.1 1-.2 0-.5.9-.5.9h2.3c1.3 0 2.3-.4 2.3-1.7 0-1.5 0-6.3 0-6.3h5.3c.4 0 .7 0 .7 0"/><path d="m81.2 4h15c0-1-.3-1-1-1h-6v-1h-2v1h-7c0 1 .3 1 1 1"/><path d="m55.9 9h-10.9c-.5 0-.7-.1-.8-.3-.1-.2-.3-.2-.3-.2-.3 1.6-.6 2.1-2.1 2.9-.1 0-.4.3-.2.3.4 0 1-.1 1.4-.2.8-.2 1.7-.7 2.3-1.6h1.8c-1 1.4-3 4.5-5.8 5.9-.1.2-1.6.2-1.5.2h2c1.8 0 6.7-3.9 7.3-6h2.9c-1.2 2.7-3.7 6.3-6.8 7.7 0 0-.4.3-.2.3h.7c2.1 0 7.6-3.9 8.5-8h.9c.7 0 1 .3 1 1v3c0 1.5-.8 3.4-3.6 3.4-.2 0-.3.5-.3.5h1.9c4 0 4.1-2.2 4.1-4.1v-2.8c0-1.6-.9-2-2.3-2"/><path d="m98.4 16.7c-.1.3 0 .3 0 .3 1.4-.4 3.3-1.8 3.8-5h-1.9c0 0-.5 2.3-1.9 4.7"/><path d="m46.1 8h11.1v-2.9c0-1.5-1.3-2.1-2.7-2.1h-8.3c-1.5 0-2.1-.2-2.1-.7 0 .3 0 2.3 0 3.6.1 1.6.6 2.1 2 2.1m.1-4h8.1c.7 0 .9.2.9.9v.1h-9v-1m0 2h9v1h-8c-.7 0-1-.1-1-.8v-.2"/><path d="m36.5 3h-11.5c-1.4 0-2-.2-2-.7v15.7h2v-14h11c.7 0 1 .2 1 .9v11.3c0 .6-.4.8-2.2 1-.2 0-.3.9-.3.9h1.9c1.4 0 2.7-.5 2.7-2.1v-10.9c-.1-1.6-1.2-2.1-2.6-2.1"/><path d="m62.1 4h14c0-1-.3-1-1-1h-14c.1 1 .4 1 1 1"/><path d="m14.5 5.8c-.8-.5-1.9-.8-2.9-.9l-.3-.9c0 0 0-.1 0-.1l-.1-.3c-.2-.7.1-1.1.3-1.2 0 0 .1 0 .1-.1.7-.5 1.7.3 1.7.3.4.4 1.2.5 1.7.1.4-.4.3-1.3-.1-1.7-.7-.7-2.8-1.8-4.6-.6-1.5 1.2-1.6 2.7-1.3 3.5l.3 1.2c-.5.2-1 .4-1.5.7-1.8 1.1-2.6 2.9-2.4 5 .2 2.1 1.8 3.7 3.8 3.7 2.1 0 3.8-1.7 3.8-3.8 0-.5 0-.5-.1-.9-.1-.4-.7-2.5-.7-2.5.4.1.8.2 1.1.4 3.6 2.3 2.1 6.1 2 6.2-1 2.4-3.2 3.8-6 3.9-1.8.1-3.6-.6-4.9-1.9-1.4-1.4-2.2-3.3-2.2-5.2 0-3 1.9-5.7 4.7-6.7.6-.2 1-.8.7-1.6-.2-.6-.9-.8-1.5-.6-3.6 1.4-6.1 4.9-6.1 8.8 0 2.6 1.1 5.1 2.9 6.8 1.7 1.7 3.9 2.6 6.2 2.6.1 0 .2 0 .3 0 3.6-.1 6.6-2.1 7.9-5.3.9-1.9 1.4-6.2-2.8-8.9m-3.7 4.8c0 .9-.7 1.6-1.6 1.6-1 0-1.5-.9-1.6-1.7-.2-1.5.7-2.4 1.4-2.8.3-.2.6-.3.9-.4 0 0 .8 2.4.8 2.8.1.4.1.5.1.5"/><path d="m36 15.5c0 0 .1-1.1 0-1.2-.8-1-1.4-2-1.8-3 1.3-2.7 1.7-5.2 1.7-5.3h-1.7c0 0 0 1.6-.6 3.6-.7-2-.7-3.6-.7-3.6h-1.7c0 .1.5 2.6 1.8 5.3-.4 1-1 2-1.8 3-.1.2 0 1.2 0 1.2 1-.9 1.8-2 2.4-3 .6 1 1.4 2.1 2.4 3"/><path d="m28.8 6c0 0-.1 1.6-.7 3.6-.6-2-.6-3.6-.6-3.6h-1.7c0 .1.4 2.6 1.7 5.3-.4 1-1 2-1.8 3-.1.2 0 1.2 0 1.2 1-.9 1.8-2 2.4-3 .6 1.1 1.4 2.1 2.4 3 0 0 .1-1.1 0-1.2-.8-1-1.3-2-1.8-3 1.4-2.7 1.8-5.2 1.8-5.3h-1.7"/></svg>