<svg xmlns="http://www.w3.org/2000/svg" viewBox="0 0 16 15" enable-background="new 0 0 16 15"><path d="m7.5 5c-1.379 0-2.5 1.121-2.5 2.5s1.121 2.5 2.5 2.5 2.5-1.121 2.5-2.5-1.121-2.5-2.5-2.5m0 4c-.827 0-1.5-.673-1.5-1.5s.673-1.5 1.5-1.5 1.5.673 1.5 1.5-.673 1.5-1.5 1.5m5.492-.862c.024-.21.04-.422.04-.638 0-.216-.016-.428-.04-.638l1.476-1.665c.143-.161.167-.396.059-.582l-.999-1.73c-.09-.157-.257-.25-.434-.25-.033 0-.066.003-.099.001l-2.189.447c-.339-.252-.704-.47-1.097-.64l-.704-2.11c-.068-.204-.26-.342-.474-.342h-2.062c-.214 0-.406.138-.474.342l-.704 2.11c-.392.17-.758.387-1.097.64l-2.189-.448c-.033-.007-.066-.001-.099-.001-.176 0-.344.093-.434.25l-.999 1.73c-.107.188-.083.422.06.583l1.476 1.665c-.025.21-.041.422-.041.638 0 .216.016.428.04.638l-1.475 1.665c-.143.161-.167.396-.059.582l.999 1.73c.09.157.257.25.433.25.033 0 .066-.003.1-.001l2.189-.447c.262.195.54.367.835.513l.847 2.254c.072.196.258.325.466.325h2.313c.208 0 .395-.129.468-.324l.847-2.254c.294-.147.573-.318.835-.513l2.189.447c.033.007.066.001.1.001.176 0 .343-.093.433-.25l.999-1.73c.109-.187.084-.421-.059-.582l-1.476-1.666m-.151 3.165l-1.835-.375-.438-.09-.359.267c-.215.16-.445.302-.683.42l-.352.175-.139.37-.725 1.93h-1.62l-.725-1.93-.138-.368-.352-.175c-.238-.119-.468-.26-.683-.42l-.359-.267-.438.09-1.835.375-.64-1.109 1.237-1.396.296-.335-.051-.443c-.023-.193-.034-.364-.034-.522 0-.158.011-.329.034-.522l.051-.444-.296-.335-1.237-1.395.639-1.107 1.835.375.438.089.359-.267c.289-.216.591-.392.897-.524l.41-.178.141-.424.59-1.768h1.341l.59 1.768.141.424.41.178c.306.133.608.309.897.524l.359.267.438-.089 1.835-.375.639 1.107-1.237 1.396-.296.335.051.444c.023.193.034.364.034.522 0 .158-.011.329-.034.522l-.051.444.296.335 1.237 1.396-.638 1.105"/></svg>