<svg xmlns="http://www.w3.org/2000/svg" viewBox="-48 3 16 16" enable-background="new -48 3 16 16"><path d="m-43 5.1c.6 1 1.7 1.9 3 1.9s2.4-.9 3-1.9c.1 0 .2.1.3.2.4.2 1 .5 1.6.9l1.9 1c-.2.4-.4 1-.6 1.4l-.8-.4c-.1-.1-.3-.1-.4-.1-.2 0-.4.1-.5.2-.3.2-.5.5-.5.8v7c0 .4-.6 1-1 1h-3-3c-.4 0-1-.6-1-1v-7c0-.3-.2-.7-.5-.8-.2-.1-.3-.2-.5-.2-.1 0-.3 0-.4.1l-.8.4c-.2-.4-.4-.9-.6-1.4l1.9-1c.6-.3 1.2-.6 1.6-.9.1-.1.2-.1.3-.2m6-1.1c-.3 0-.6.1-.7.3-.4.8-1.3 1.6-2.3 1.6s-1.9-.8-2.3-1.6c-.2-.2-.4-.3-.7-.3l-4.8 2.5c-.1.1-.2.2-.2.3v.1c.3.7 1.1 2.6 1.1 2.6.1.1.2.2.3.2s.1 0 .2 0l1.4-.6v7c0 1 1 2 2 2h3 3c1 0 2-1 2-2v-7l1.4.6c.1 0 .1 0 .2 0s.2-.1.3-.2c0 0 .8-1.8 1.1-2.6v-.1c0-.1 0-.3-.2-.3 0 0-4.8-2.5-4.8-2.5z"/></svg>