<svg xmlns="http://www.w3.org/2000/svg" viewBox="0 0 26 22" enable-background="new 0 0 26 22"><path d="m18.3 7.984l-5.3.008h-.406l-.295-.291-1.952-1.923-.447-.44.146-.276.033-.062.983.983-2.481.026-.518.006-.308.032c-.11.012-.064.04-.105.044-.114.05-.345.18-.44.347-.11.17-.165.359-.176.565l.007 1.241.015 2.481.015 2.481.007 1.241.003.62v.155.038.02c-.002-.044.005.116-.005-.099l.005.078c.009.084.011.249.025.267.017.003.007-.002.008.019.021.033.035.068.046.107.047.065.094.128.156.184.066.047.135.092.214.117.094.023.108.039.369.035l2.481-.004 4.962-.007 2.481-.003h.31.155c-.042.003.109-.005-.093.005l.02-.002.038-.004.077-.008c.305-.027.153-.042.25-.064.147-.071.273-.199.338-.351.027-.079.046-.157.051-.242l.006-.598.004-1.241v-2.48l.004-1.24.002-.621v-.31-.078-.039c.003.042-.005-.106.005.09l-.002-.019-.015-.154c-.023-.328-.343-.633-.694-.632m0-.984c.841-.011 1.61.681 1.682 1.516.037.825 0 1.653.019 2.48v2.481 1.241c-.012.408.046.838-.128 1.225-.157.383-.46.703-.832.881-.374.191-.804.18-1.213.177h-2.481-4.962-2.483c-.828.082-1.69-.479-1.855-1.316-.094-.821-.026-1.653-.047-2.479v-2.481-2.481c.029-.808-.145-1.707.375-2.403.235-.343.594-.587.979-.725.391-.152.817-.109 1.227-.116h2.481v.063l1.938 1.937h5.3"/></svg>