<svg xmlns="http://www.w3.org/2000/svg" viewBox="0 0 26 22" enable-background="new 0 0 26 22"><path fill-rule="evenodd" d="m15.896 11.746c.68-.717 1.104-1.68 1.104-2.746 0-2.209-1.791-4-4-4s-4 1.791-4 4c0 1.066.424 2.029 1.104 2.746-1.85 1.023-3.104 2.991-3.104 5.254h1c0-2.419 1.718-4.436 4-4.899v-1.013c-.306.053-.604.126-.893.222-.67-.55-1.107-1.375-1.107-2.31 0-1.657 1.343-3 3-3 1.656 0 3 1.343 3 3 0 .935-.437 1.759-1.107 2.31-.288-.096-.587-.169-.893-.222v1.013c2.282.464 4 2.48 4 4.899h1c0-2.263-1.254-4.231-3.104-5.254"/></svg>