<svg xmlns="http://www.w3.org/2000/svg" viewBox="-288 411.9 18 18" enable-background="new -288 411.9 18 18"><path d="m-274.9 421.3c1.1-.7 1.9-2 1.9-3.4 0-2.2-1.8-4-4-4v1c1.7 0 3 1.3 3 3 0 1.7-1.3 3-3 3v1c2.8 0 5 2.2 5 5 0 .6-.4 1-1 1v1c1.1 0 2-.9 2-2 0-2.6-1.6-4.8-3.9-5.6m-4 0c1.1-.7 1.9-2 1.9-3.4 0-2.2-1.8-4-4-4-2.2 0-4 1.8-4 4 0 1.4.8 2.7 1.9 3.4-2.3.9-3.9 3-3.9 5.6 0 1.1.9 2 2 2v-1c-.6 0-1-.4-1-1 0-2.8 2.2-5 5-5s5 2.2 5 5c0 .6-.4 1-1 1v1c1.1 0 2-.9 2-2 0-2.6-1.6-4.8-3.9-5.6m-5.1-3.4c0-1.7 1.3-3 3-3 1.7 0 3 1.3 3 3 0 1.7-1.3 3-3 3-1.7 0-3-1.4-3-3"/></svg>