<svg xmlns="http://www.w3.org/2000/svg" viewBox="-288 411.9 18 18" enable-background="new -288 411.9 18 18"><path d="m-274 420.9c0-2.8-2.2-5-5-5s-5 2.2-5 5c0 .6.1 1.2.3 1.8l.9-.6c-.1-.4-.2-.8-.2-1.2 0-2.2 1.8-4 4-4 2.2 0 4 1.8 4 4 0 1.7-1.1 3.2-2.6 3.7l.1 1c2-.6 3.5-2.5 3.5-4.7m-5-8c-4.4 0-8 3.6-8 8 0 1.2.3 2.4.8 3.5l.8-.6c-.4-.9-.6-1.9-.6-2.9 0-3.9 3.1-7 7-7s7 3.1 7 7c0 3.2-2.2 5.9-5.2 6.8l.1 1c3.5-.9 6-4 6-7.7.1-4.5-3.5-8.1-7.9-8.1m2 6l-4 1v2 3.1c-.7-.2-1.7 0-2.5.5-1.2.8-1.8 2.1-1.2 2.8.6.8 2.1.7 3.3-.1.9-.6 1.4-1.3 1.4-2 0 0 0 0 0-.1v-4.5l3-.8v-1.9" fill-rule="evenodd"/></svg>