<?xml version="1.0" encoding="utf-8"?>
<!-- Generator: Adobe Illustrator 19.0.0, SVG Export Plug-In . SVG Version: 6.00 Build 0)  -->
<svg version="1.1" id="图层_1" xmlns="http://www.w3.org/2000/svg" xmlns:xlink="http://www.w3.org/1999/xlink" x="0px" y="0px"
	 width="18px" height="14px" viewBox="-291 413.9 18 14" style="enable-background:new -291 413.9 18 14;" xml:space="preserve">
<g>
	<g>
		<path d="M-277,423.9c-1.1,0-1.9-0.8-3.1-2.2c-0.4,0.5-0.9,1-1.4,1.5c1.3,1.5,2.5,2.7,4.4,2.7v2l4-3l-4-3V423.9z M-277,417.9v2l4-3
			l-4-3v2c-2.2,0-3.5,1.6-5,3.4c-1.8,2.2-3.9,4.6-8,4.6c-0.6,0-1,0.4-1,1s0.4,1,1,1c5.1,0,7.7-3.1,9.6-5.3
			C-279.1,418.9-278.2,417.9-277,417.9z M-290,417.9c2.7,0,4.5,1,5.9,2.3c0.5-0.5,0.9-1,1.3-1.5c-1.7-1.5-3.9-2.8-7.2-2.8
			c-0.6,0-1,0.4-1,1S-290.5,417.9-290,417.9z"/>
	</g>
</g>
</svg>
