<svg xmlns="http://www.w3.org/2000/svg"><symbol viewBox="0 0 24 22" id="close"><title>close</title><path fill-rule="evenodd" d="m14 10v-1h1v-1h1v-1h1v-1h-2v1h-1v1h-1v1h-1-1v-1h-1v-1h-1v-1h-2v1h1v1h1v1h1v1h1v1h-1v1h-1v1h-1v1h-1v1h2v-1h1v-1h1v-1h1 1v1h1v1h1v1h2v-1h-1v-1h-1v-1h-1v-1h-1v-1z"/></symbol><symbol viewBox="0 0 14 15" id="delete"><title>delete</title><path d="m5 3v-1h4v1h1v-2h-1-5v2h-1-1-1v1h1v10h1v-10h8v10h-9v1h9 1v-11h1v-1h-8m0 9h1v-6h-1v6m3 0h1v-6h-1v6" fill-rule="evenodd"/></symbol><symbol viewBox="0 0 15 15" id="fav"><title>fav</title><path d="m13.3 3h-6.3l-1.9-1.9v-.1h-.1-3c-1.1 0-2 .9-2 2v9.3c0 .9.8 1.7 1.7 1.7h11.6c.9 0 1.7-.8 1.7-1.7v-7.6c0-.9-.8-1.7-1.7-1.7m.7 9.3c0 .4-.3.7-.7.7h-11.6c-.4 0-.7-.3-.7-.7v-9.3c0-.6.4-1 1-1h2.6l2 2h6.7c.4 0 .7.3.7.7v7.6m-6-6.3h-1v2h-2v1h2v2h1v-2h2v-1h-2v-2" fill-rule="evenodd"/></symbol><symbol viewBox="-291 413.9 18 14" id="loop"><title>loop</title> <g> <path d="M-277,413.9v6l4-3L-277,413.9z"/> <path d="M-279,427.9h-6c-3.3,0-6-2.7-6-6c0-3.3,2.7-6,6-6h8c0.6,0,1,0.4,1,1c0,0.6-0.4,1-1,1h-8c-2.2,0-4,1.8-4,4c0,2.2,1.8,4,4,4
		h6c2.2,0,4-1.8,4-4c0-0.6,0.4-1,1-1s1,0.4,1,1C-273,425.2-275.7,427.9-279,427.9"/> </g> </symbol><symbol viewBox="0 0 14 15" id="love"><title>love</title><path d="m10 3c1.7 0 3 1.3 3 3 0 3.6-4.6 6.2-6 6.9-1.4-.7-6-3.3-6-6.9 0-1.7 1.3-3 3-3 .9 0 1.7.4 2.2 1l.8.9.8-.9c.5-.6 1.3-1 2.2-1m0-1c-1.2 0-2.3.5-3 1.4-.7-.9-1.8-1.4-3-1.4-2.2 0-4 1.8-4 4 0 5 7 8 7 8s7-3 7-8c0-2.2-1.8-4-4-4z"/></symbol><symbol viewBox="0 0 14 15" id="loved"><title>loved</title><path d="m10 2c-1.2 0-2.3.5-3 1.4-.7-.9-1.8-1.4-3-1.4-2.2 0-4 1.8-4 4 0 5 7 8 7 8s7-3 7-8c0-2.2-1.8-4-4-4"/></symbol><symbol viewBox="0 0 16 16" id="lrc"><title>lrc</title><path d="m5 6h-2v1h1v6h1v-1h1v-1h-1v-5m-1-3h-1v1h1v-1m1 2v-1h-1v1h1m1-2v1h6v8h-2v1h3v-10h-7m5 4h-5v4h5v-4m-1 3h-3v-2h3v2m1-5h-5v1h5v-1" fill-rule="evenodd"/></symbol><symbol viewBox="0 0 32 32" id="max"><title>max</title><path d="M10.142,20.444L2,28.586V22H0v10h10v-2H3.414
			l8.142-8.142L10.142,20.444z M22,0v2h6.586l-8.142,8.142l1.414,1.414L30,3.414V10h2V0H22z" fill-rule="evenodd"/></symbol><symbol viewBox="0 0 30 30" id="next"><title>next</title><g fill-rule="evenodd"><path d="m18 10h2v10h-2v-10"/><path d="m10 10l7 5-7 5v-10"/></g></symbol><symbol viewBox="-291 413.9 18 14" id="one"><title>one</title> <g> <path d="M-277,413.9v6l4-3L-277,413.9z"/> <path d="M-279,427.9h-6c-3.3,0-6-2.7-6-6c0-3.3,2.7-6,6-6h8c0.6,0,1,0.4,1,1c0,0.6-0.4,1-1,1h-8c-2.2,0-4,1.8-4,4c0,2.2,1.8,4,4,4
		h6c2.2,0,4-1.8,4-4c0-0.6,0.4-1,1-1s1,0.4,1,1C-273,425.2-275.7,427.9-279,427.9"/> <path d="M-282,418.9v1h-1v1h1v4h1v-6H-282z"/> </g> </symbol><symbol viewBox="-291 413.9 18 14" id="order"><title>order</title> <path d="M-273,424.9l-4-3v2h-14v2h14v2L-273,424.9 M-274,418.9h-17v2h17V418.9 M-274,413.9h-17v2h17V413.9"/> </symbol><symbol viewBox="0 0 34 34" id="pause"><title>pause</title><g fill-rule="evenodd"><path d="m12 9h2v16h-2z"/><path d="m20 9h2v16h-2z"/></g></symbol><symbol viewBox="0 0 34 34" id="play"><title>play</title><path d="m13 9l12 8-12 8v-16" fill-rule="evenodd"/></symbol><symbol viewBox="0 0 18 14" id="playlist"><title>playlist</title><path d="m10.818 8h7.182v-2h-8.03c.389.606.678 1 .849 2m-8.818-8v2h16v-2h-16m7.18 14h8.82v-2h-7.501c-.314 1-.765 1.424-1.319 2m-4.68-9c-2.485 0-4.5 2.01-4.5 4.5 0 2.485 2.02 4.5 4.5 4.5s4.5-2.02 4.5-4.5c0-2.485-2.01-4.5-4.5-4.5m-1.5 7.088v-5.088l4 2.544-4 2.544" fill-rule="evenodd"/></symbol><symbol viewBox="0 0 14 15" id="praise"><title>praise</title><path d="m10.578 5.03l.0001-.029c.298-.715.389-1.566.389-2.881.0001-1.275-1.156-2.119-2.223-2.119-.822 0-1.59.502-1.733 1.695-.366 3.075-2.44 4.277-4.01 4.277l-1 .028h-1c-.552 0-1 .434-1 .986v7c0 .553.448 1.014 1 1.014h2c.768 0 2 0 3 0v-.02c1-.002 1.46.02 1.952.02h.208c1.318 0 3.488-.073 5.578-6.594.791-2.467-.264-3.219-3.16-3.377m-8.578 8.971h-1v-7h1v7m10.786-5.899c-1.887 5.888-3.602 5.899-4.668 5.899h-.166c-.889 0-2.662 0-4.052 0h-.007-.893v-7.04c2.115 0 4.584-1.612 5-5.152.087-.729.464-.813.74-.813.5 0 1.224.399 1.224 1.119 0 1.257-.088 1.964-.312 2.503l-.155.378h-.502c-.276 0-.5.224-.5.5s.224.5.5.5h.609v-.004c1.055.014 2.913.078 3.29.595.166.225.125.763-.114 1.51"/></symbol><symbol viewBox="0 0 30 30" id="prev"><title>prev</title><g fill-rule="evenodd"><path d="m10 10h2v10h-2v-10"/><path d="m20 10l-7 5 7 5v-10"/></g></symbol><symbol viewBox="0 0 8 8" id="resize"><title>resize</title><g><path d="m7 6h1v1h-1z"/><path d="m6 7h1v1h-1z"/><path d="m6 4h1v1h-1z"/><path d="m7 2.999h1v1h-1z"/><path d="m7 0h1v1h-1z"/><path d="m6 1h1v1h-1z"/><path d="m5 2h1v1h-1z"/><path d="m4 2.999h1v1h-1z"/><path d="m3 4h1v1h-1z"/><path d="m2 5h1v1h-1z"/><path d="m1 6h1v1h-1z"/><path d="m0 7h1v1h-1z"/><path d="m4 6h1v1h-1z"/><path d="m3 7h1v1h-1z"/><path d="m5 5h1v1h-1z"/></g></symbol><symbol viewBox="0 0 14 15" id="share"><title>share</title><path d="M9,5.592V8l4-3.5L9,1v2.486
					C7,3.486,4.545,5.539,4.359,9C4.802,6.708,6.55,5.592,9,5.592z M12,14H1V2h4V1H0v14h13V9h-1V14z" fill-rule="evenodd"/></symbol><symbol viewBox="-291 413.9 18 14" id="shuffle"><title>shuffle</title> <g> <g> <path d="M-277,423.9c-1.1,0-1.9-0.8-3.1-2.2c-0.4,0.5-0.9,1-1.4,1.5c1.3,1.5,2.5,2.7,4.4,2.7v2l4-3l-4-3V423.9z M-277,417.9v2l4-3
			l-4-3v2c-2.2,0-3.5,1.6-5,3.4c-1.8,2.2-3.9,4.6-8,4.6c-0.6,0-1,0.4-1,1s0.4,1,1,1c5.1,0,7.7-3.1,9.6-5.3
			C-279.1,418.9-278.2,417.9-277,417.9z M-290,417.9c2.7,0,4.5,1,5.9,2.3c0.5-0.5,0.9-1,1.3-1.5c-1.7-1.5-3.9-2.8-7.2-2.8
			c-0.6,0-1,0.4-1,1S-290.5,417.9-290,417.9z"/> </g> </g> </symbol><symbol viewBox="0 2 16 12" id="silence"><title>silence</title><path d="M4,5H2c0,0-2,0-2,2v2c0,0,0,1.999,2,1.999h2l4,3v-12L4,4.998"/></symbol><symbol viewBox="0 0 13 13" id="src"><title>src</title><path d="m5.2 11.3c-.5.5-1.1.7-1.8.7s-1.3-.3-1.7-.7c-1-1-1-2.5 0-3.5l1.7-1.7-.7-.7-1.7 1.7c-1.3 1.3-1.3 3.5 0 4.9.7.7 1.6 1 2.4 1 .9 0 1.8-.3 2.4-1l1.7-1.7-.6-.7-1.7 1.7m6.8-10.3c-.7-.7-1.6-1-2.4-1-.9 0-1.8.3-2.5 1l-1.7 1.7.7.7 1.7-1.7c.5-.4 1.1-.7 1.8-.7s1.3.3 1.7.7c1 1 1 2.5 0 3.5l-1.7 1.7.7.7 1.7-1.7c1.3-1.4 1.3-3.6 0-4.9m-8.3 7.6l.7.7 4.9-4.9-.7-.7-4.9 4.9"/></symbol><symbol viewBox="0 0 14 14" id="state_pause"><title>state_pause</title><path fill-rule="evenodd" d="M4,12h2V2H4V12z M8,2v10h2V2H8z"/></symbol><symbol viewBox="0 0 14 14" id="state_play"><title>state_play</title><path fill-rule="evenodd" d="m4 2l7 5-7 5v-10"/></symbol><symbol viewBox="-288 413.9 19 17" id="state_playlist"><title>state_playlist</title> <style type="text/css"> .st0{fill-rule:evenodd;clip-rule:evenodd;} </style> <g> <g> <path class="st0" d="M-271,413.9h-12c-1.1,0-2,0.9-2,2v6.1c0.3-0.1,0.7-0.1,1-0.1v-6c0-0.6,0.4-1,1-1h12c0.6,0,1,0.4,1,1v12
			c0,0.6-0.4,1-1,1h-7.4c-0.2,0.4-0.4,0.7-0.6,1h8c1.1,0,2-0.9,2-2v-12C-269,414.8-269.9,413.9-271,413.9z M-283,422.9h-1
			c-2.2,0-4,1.8-4,4c0,2.2,1.8,4,4,4h1c2.2,0,4-1.8,4-4C-279,424.7-280.8,422.9-283,422.9z M-285,428.9v-4l4,2L-285,428.9z
			 M-281.5,418.9h9c0.3,0,0.5-0.2,0.5-0.5s-0.2-0.5-0.5-0.5h-9c-0.3,0-0.5,0.2-0.5,0.5S-281.8,418.9-281.5,418.9z M-281.5,421.9h9
			c0.3,0,0.5-0.2,0.5-0.5c0-0.3-0.2-0.5-0.5-0.5h-9c-0.3,0-0.5,0.2-0.5,0.5C-282,421.7-281.8,421.9-281.5,421.9z M-272.5,423.9h-5
			c-0.3,0-0.5,0.2-0.5,0.5s0.2,0.5,0.5,0.5h5c0.3,0,0.5-0.2,0.5-0.5S-272.2,423.9-272.5,423.9z"/> </g> </g> </symbol><symbol viewBox="0 0 16 12" id="voice"><title>voice</title><g><path d="m4 3h-2c0 0-2 .0001-2 2v2c0 0 0 1.999 2 1.999h2l4 3v-12l-4 2.999" fill-rule="evenodd"/><path d="m12 12c-.419 0-.809-.265-.948-.684-.175-.524.108-1.091.632-1.265.086-.031 2.316-.864 2.316-4.051 0-3.242-2.293-4.04-2.316-4.052-.523-.174-.807-.74-.632-1.265.175-.523.736-.809 1.265-.632.15.051 3.683 1.282 3.683 5.949s-3.533 5.898-3.684 5.948c-.105.035-.212.052-.316.052"/><path d="m10 9c-.256 0-.512-.098-.707-.293-.391-.391-.391-1.023 0-1.414 1.18-1.18.294-2.282-.006-2.592-.382-.394-.377-1.026.015-1.411.391-.385 1.017-.386 1.405.003 1.088 1.088 1.986 3.428 0 5.414-.195.195-.451.293-.707.293"/></g></symbol></svg>