<svg xmlns="http://www.w3.org/2000/svg"><symbol viewBox="0 0 28 28" id="act"><title>act</title><path fill-rule="evenodd" d="m18 9v-2-1h-1-8-1v1 11 1h1 2v3h10v-13h-3m-9 9v-11h8v11h-8m11 3h-8v-2h6v-1-8h2v11m-6.5-6h-3c-.276 0-.5.224-.5.5s.224.5.5.5h3c.276 0 .5-.224.5-.5s-.224-.5-.5-.5m1-3h-4c-.276 0-.5.224-.5.5s.224.5.5.5h4c.276 0 .5-.224.5-.5s-.224-.5-.5-.5m1-3h-5c-.276 0-.5.224-.5.5s.224.5.5.5h5c.276 0 .5-.224.5-.5s-.224-.5-.5-.5"/></symbol><symbol viewBox="0 0 10 11" id="creator"><title>creator</title><path d="m8.7 11v-1c.2 0 .3-.1.3-.3 0-2-1.6-3.7-3.5-3.7v-1c2.5 0 4.5 2.1 4.5 4.7 0 .7-.6 1.3-1.3 1.3"/><path d="m1.3 10.9c-.7 0-1.3-.6-1.3-1.3 0-2.6 2-4.7 4.5-4.7v1c-1.9 0-3.5 1.7-3.5 3.7 0 .2.1.3.3.3v1"/><path d="m5 0c-1.7 0-3 1.3-3 3s1.3 3 3 3 3-1.3 3-3-1.3-3-3-3m0 5c-1.1 0-2-.9-2-2 0-1.1.9-2 2-2s2 .9 2 2c0 1.1-.9 2-2 2"/></symbol><symbol viewBox="-5 14 30 30" id="crown"><title>crown</title><path d="m7.9 20.7l1.8 2.5-5.6 5.6-2.4-1.8 1-.1 1-.1-.1-1-.5-3.7 3.5.5 1 .1.1-1 .2-1m-.7-2.7l-.4 3.6-4.8-.6.7 4.9-3.7.4 5.2 3.7 6.8-6.7-3.8-5.3z"/><path d="m1.5 19.8c.4 0 .7.3.7.7s-.3.7-.7.7-.7-.3-.7-.7.3-.7.7-.7m0-1c-.9 0-1.7.8-1.7 1.7s.8 1.7 1.7 1.7 1.7-.8 1.7-1.7-.8-1.7-1.7-1.7z"/></symbol><symbol viewBox="-68.5 -60 138 138" id="crown_enter"><title>crown_enter</title><path d="M3.201-11.399c2-0.802,3.299-2.802,3.299-5.101C6.5-19.5,4-22,1-22s-5.5,2.5-5.5,5.5
	c0,2.201,1.299,4.101,3.201,5l-7.302,8.299L-17.399-9l1.899,19h33l2.201-19.101L10.5-3.201L3.201-11.399 M-1.5-16.5
	c0-1.399,1.101-2.5,2.5-2.5s2.5,1.101,2.5,2.5S2.399-14,1-14S-1.5-15.101-1.5-16.5 M16.402-3.299L14.799,7h-27.598l-1.101-10.201
	L-8.399,1L1-9.701l9.5,10.604L16.402-3.299 M0.5-35c-17.701,0-32,14.299-32,32s14.299,32,32,32s32-14.299,32-32S18.201-35,0.5-35
	 M0.5,26c-16,0-29-13-29-29s13-29,29-29s29,13,29,29S16.5,26,0.5,26"/></symbol><symbol viewBox="-51 6 12 9" id="earphone"><title>earphone</title><path d="m-45 6c-2.8 0-5 2.2-5 5v2.5c0 .3.2.5.5.5s.5-.2.5-.5v.5c0 .6.4 1 1 1s1-.4 1-1v-2c0-.6-.4-1-1-1s-1 .4-1 1v-1c0-2.2 1.8-4 4-4s4 1.8 4 4v1c0-.6-.4-1-1-1s-1 .4-1 1v2c0 .6.4 1 1 1s1-.4 1-1v-.5c0 .3.2.5.5.5s.5-.2.5-.5v-2.5c0-2.8-2.2-5-5-5"/></symbol><symbol viewBox="0 0 40 40" id="love"><title>love</title><path d="m35 16c-.2-2.7-1.9-8-8-9-3.5-.3-5.7 1.4-6.6 2.2-.3.2-.6.3-.9 0-1.1-.9-3.9-2.6-6.8-2.2-4.2.8-7.4 4.2-7.7 9 1.3 10.3 12.6 15.1 14.7 16.6.2.1.4.1.6 0 2.1-1.2 14.7-8 14.7-16.6m-14.7 15.4c-.2.1-.4.1-.6 0-2.1-1-13.2-6.9-13.7-15.3-.1-3.9 2.8-7.3 7.2-8.1 2.4-.3 5.3 1.7 6.4 2.5.3.2.6.2.9 0 1-.9 3.5-2.9 6.1-2.5 5.3.6 7.2 5.1 7.4 7.6.5 7.8-11.5 14.7-13.7 15.8"/></symbol><symbol viewBox="0 0 40 40" id="newalist"><title>newalist</title><path fill-rule="evenodd" d="m27 19h-6v-6h-2v6h-6v2h6v6h2v-6h6z"/></symbol><symbol viewBox="4 4 32 32" id="play_mv"><title>play_mv</title><path fill-rule="evenodd" d="m26 17h-1v1h1v-1m-1 5v1h1v-1h-1m-1-1v-2h1v-1h-1v-3h-11v10h11v-3h1v-1h-1m-1 3h-9v-8h9v8m4.5-8c-.276 0-.5.224-.5.5v-.5h-1v1h1v6h-1v1h1v-.5c0 .276.224.5.5.5s.5-.224.5-.5v-7c0-.276-.224-.5-.5-.5"/></symbol><symbol viewBox="0 0 20 20" id="play_mv_s"><title>play_mv_s</title><path fill-rule="evenodd" d="m16.5 7c-.276 0-.5.224-.5.5v-.5h-1v1h1v5h-1v1h1v-.5c0 .276.224.5.5.5s.5-.224.5-.5v-6c0-.276-.224-.5-.5-.5m-2.5 2h1v-1h-1v1m-1 1h1v-1h-1v1m1 2v1h1v-1h-1m-1-1v1h1v-1h-1"/><path d="m12 8v5h-7v-5h7m1-1h-9v7h9v-7z"/></symbol><symbol viewBox="0 1 10 10" id="play_rb"><title>play_rb</title><path d="m3 1v10l7-5-7-5"/></symbol><symbol viewBox="0 0 28 28" id="radio"><title>radio</title><path fill-rule="evenodd" d="m6.934 6.924c-1.812 1.81-2.934 4.312-2.934 7.08 0 2.764 1.122 5.266 2.934 7.08l.707-.707c-1.631-1.63-2.641-3.881-2.641-6.369 0-2.488 1.01-4.74 2.641-6.369l-.707-.707m2.829 2.829c-1.089 1.086-1.763 2.588-1.763 4.247s.674 3.161 1.763 4.247l.707-.707c-.908-.905-1.47-2.157-1.47-3.54 0-1.383.562-2.635 1.47-3.54l-.707-.707m11.303-2.829l-.707.707c1.631 1.629 2.641 3.881 2.641 6.369 0 2.488-1.01 4.739-2.641 6.369l.706.706c1.813-1.809 2.935-4.311 2.935-7.07 0-2.764-1.121-5.266-2.934-7.08m-3.536 3.536c.908.905 1.47 2.157 1.47 3.54 0 1.384-.563 2.635-1.47 3.54l.707.707c1.089-1.086 1.763-2.588 1.763-4.247s-.674-3.161-1.763-4.247l-.707.707m-1.583 3.097c-.086-.376-.273-.712-.538-.975-.361-.359-.859-.582-1.409-.582-.953 0-1.747.667-1.948 1.56-.003.012-.009.023-.011.036-.027.131-.041.265-.041.404s.014.273.041.404c.003.017.011.031.015.048.026.113.059.225.103.329.0001.002.002.003.002.005.051.118.112.23.184.336.003.004.006.007.009.011.07.102.149.198.237.285.362.359.859.582 1.409.582s1.047-.223 1.409-.581c.0001-.0001.0001-.0001.002-.002.073-.073.138-.156.199-.241.014-.019.032-.034.045-.055.067-.099.124-.204.172-.314.004-.009.011-.017.015-.025.044-.104.075-.214.102-.326.004-.018.012-.033.016-.051.025-.132.04-.266.04-.405s-.015-.273-.041-.404c-.003-.014-.009-.026-.012-.039"/></symbol><symbol viewBox="0 0 12 12" id="subscribe"><title>subscribe</title><path d="m5.934 2.919l.762 2.245.23.679h.717 1.547l-1.427 1.164-.553.451.246.669.661 1.8-1.657-.86-.447-.231-.452.221-1.808.881.745-1.781.287-.687-.576-.472-1.41-1.155h1.311.683l.249-.636.892-2.288m.066-2.919l-1.89 4.843h-4.11l3.575 2.929-1.767 4.228 4.192-2.045 3.944 2.045-1.55-4.218 3.606-2.939h-4.357l-1.643-4.843z"/></symbol><symbol viewBox="0 0 10 10" id="user"><title>user</title><g enable-background="new    "><path d="m5 6c-1.655 0-3-1.346-3-3s1.346-3 3-3 3 1.346 3 3-1.346 3-3 3m0-5c-1.104 0-2 .897-2 2s.897 2 2 2c1.103 0 2-.897 2-2s-.897-2-2-2"/><path d="m10 10h-10v-.5c0-2.481 2.243-4.5 5-4.5 2.757 0 5 2.02 5 4.5v.5m-8.959-1h7.919c-.279-1.694-1.948-3-3.96-3-2.01 0-3.681 1.306-3.959 3"/></g></symbol><symbol viewBox="0 0 28 28" id="video"><title>video</title><path fill-rule="evenodd" d="m21.5 10c-.276 0-.5.224-.5.5v-.5h-1v1h1v6h-1v1h1v-.5c0 .276.224.5.5.5s.5-.224.5-.5v-7c0-.276-.224-.5-.5-.5m-2.5 6v1h1v-1h-1m1-5h-1v1h1v-1m-2 4v-2h1v-1h-1v-3h-11v10h11v-3h1v-1h-1m-1 3h-9v-8h9v8"/></symbol><symbol viewBox="0 0 30 30" id="video_d"><title>video_d</title><g><path d="m19 10h-11v10h11v-3h1v-1h-1v-2h1v-1h-1v-3m-1 9h-9v-8h9v8m3-8v1h1v6h-1v1h2v-8h-2"/><path d="m20 17h1v1h-1z"/><path d="m20 12h1v1h-1z"/></g></symbol><symbol viewBox="0 0 14 9" id="video_mv"><title>video_mv</title><path fill-rule="evenodd" d="m13.5 1c-.276 0-.5.224-.5.5v-.5h-1v1h1v5h-1v1h1v-.5c0 .276.224.5.5.5.275 0 .5-.224.5-.5v-6c0-.276-.225-.5-.5-.5m-2.5 2h1v-1h-1v1m-1 1h1v-1h-1v1m1 2v1h1v-1h-1m-1-1v1h1v-1h-1"/><path d="m9 1v7h-8v-7h8m1-1h-10v9h10v-9z"/></symbol></svg>