<svg xmlns="http://www.w3.org/2000/svg"><symbol viewBox="10 -1 32 14" id="1080p"><title>1080p</title><path d="m37 6v3h1v1h-3v-1h1v-3-1-2h-1v-1h4v1h-2v2h2m-6-2h1v6h-1v-6zm-4 6v-6h1v6h-1m-2-3h1v3h-1v-3m-4 3v-3h1v3h-1m5-6v2h-1v-2h1zm-7 0h1v6h-1v-6m-4 6v-6h1v6h-1m-4 1h-1v-1h1v-5h-1v-1h1v-1h1v7h1v1h-1-1"/><path d="m18 2h3v1h-3v-1"/><path d="m18 9h3v1h-3v-1"/><path d="m24 2h3v1h-3v-1"/><path d="m23 3h1v2h-1v-2"/><path d="m24 5h3v1h-3v-1"/><path d="m24 9h3v1h-3v-1"/><path d="m30 2h3v1h-3v-1"/><path d="m30 9h3v1h-3v-1"/><path d="m35 2h4v1h-4v-1"/><path d="m36 3h1v7h-1v-7"/><path d="m35 9h3v1h-3v-1"/><path d="m39 3h1v2h-1v-2"/><path d="m37 5h2v1h-2v-1"/></symbol><symbol viewBox="0 0 27 27" id="artist"><title>artist</title><path d="m27 21.7c0 .1 0 .2 0 .3 0 1.1-.4 2.1-1.2 2.8l-.8-.8-.4-.8c.2-.3.4-.7.4-1.2 0 0 0-.3 0-.3 0-1.2-.2-2.4-.7-3.4-.7-1.8-2-3.2-3.7-4.1-.1 0-.1-.1-.2-.1-.1 0-.1-.1-.2-.1 0 0-.1 0-.1.1-.4-.7-.8-1.3-1-1.7 1.7-.9 2.8-2.7 2.8-4.8 0-2.2-1.3-4.1-3.2-5 .1-.3.2-.4.3-.6.3-.5.9-.7 1.4-.9 2.2 1.4 3.6 3.7 3.6 6.4 0 2-.8 3.7-2 5.1 3 1.8 5 5.1 5 8.8 0 .1 0 .2 0 .3m-6-.4c0 .1 0 .2 0 .4 0 .1 0 .2 0 .3 0 2.2-1.8 4-4 4 0 0 0 0-.1 0h.1c-.6 0-1-.4-1-1 0-.6.4-1 1-1 0 0 0 0 0 0 1.1 0 2-.9 2-2 0 0 0-.3 0-.3 0-1.2-.2-2.4-.7-3.4-.7-1.8-2-3.2-3.7-4.1-.1 0-.1-.1-.2-.1-.1 0-.1-.1-.2-.1-1.1.7-2.4 1.1-3.8 1.1s-2.7-.4-3.8-1.1c0 0 0 0-.1 0-.1 0-.1.1-.2.1-1.6.9-2.9 2.4-3.7 4.1-.3 1.1-.6 2.2-.6 3.5 0 0 0 .3 0 .3 0 0 0 0 0 0 0 1.1.9 2 2 2 .6 0 1 .4 1 1 0 .6-.4 1-1 1h.1c0 0 0 0-.1 0-2.2 0-4-1.8-4-4 0-.1 0-.2 0-.3 0-.1 0-.2 0-.4 0-3.7 2-6.9 5-8.8-1.2-1.3-2-3.1-2-5.1 0-4 3.4-7.4 7.5-7.4 4.1 0 7.5 3.4 7.5 7.5 0 2-.8 3.7-2 5.1 3 1.8 5 5 5 8.7m-10.5-19.3c-3 0-5.5 2.4-5.5 5.5 0 3 2.5 5.5 5.5 5.5 3 0 5.5-2.5 5.5-5.5 0-3.1-2.5-5.5-5.5-5.5m.5 14c1.1 0 2 .9 2 2v2c0 .8-.4 1.4-1.1 1.8 0 .1.1.2.1.3v2c0 .6-.4 1-1 1-.6 0-1-.4-1-1v-2c0-.1 0-.2.1-.3-.7-.4-1.1-1-1.1-1.8v-2c0-1.1.9-2 2-2"/></symbol><symbol viewBox="0 0 10 18" id="banner_arr"><title>banner_arr</title><path fill-rule="evenodd" d="M10,0L0,9l10,9v-4L5,9l5-5V0z"/></symbol><symbol viewBox="8 -1 27 14" id="biaoqing"><title>biaoqing</title><path d="m31 5h1 1v1h-1v1 1 4h-1-1v-1h1v-1h-5v2h-1v-4-1-1h-1v-1h1 1 2v-1h-3v-1h3v-1h-4v-1h4v-1h1v1h4v1h-4v1h3v1h-3v1h2m-5 4h5v-1h-5v1m2-3h-2v1h5v-1h-2-1m-8 2h1v2h-1v-2m-2 4h-1-1v-1h1v-6h-3v-1h7v1h-3v7m-5-6h1v1h-1v5h-1v-5h-1v-2h1v-1h-2v-1h2v-3h1v3h1v1h-1v2m-3 2v-1h1v1h-1m5-7h5v1h-5v-1m0 9h-1v-1h1v1"/><path d="m14 9h1v1h-1v-1"/><path d="m15 7h1v2h-1v-2"/><path d="m19 7h1v1h-1v-1"/><path d="m22 1h1v1h-1v-1"/><path d="m23 2h1v1h-1v-1"/><path d="m22 5h1v1h-1v-1"/><path d="m23 6h1v1h-1v-1"/><path d="m23 9h1v1h-1v-1"/><path d="m22 10h1v1h-1v-1"/></symbol><symbol viewBox="0 0 5 10" id="bind_arr"><title>bind_arr</title><path fill-rule="evenodd" d="m4 4v-1h-1v-1h-1v-1h-1v-1h-1v2h1v1h1v1h1v2h-1v1h-1v1h-1v2h1v-1h1v-1h1v-1h1v-1h1v-2z"/></symbol><symbol viewBox="0 0 16 16" id="btn_add"><title>btn_add</title><path fill-rule="evenodd" d="m13 7h-5v-5h-1v5h-5v1h5v5h1v-5h5z"/></symbol><symbol viewBox="0 0 16 16" id="btn_added"><title>btn_added</title><path fill-rule="evenodd" d="m2 8v1h1v-1h-1m1 1v1h1v-1h-1m4 1h1v-1h-1v1m1-1h1v-1h-1v1m-3 3h1v-1h-1v1m1-1h1v-1h-1v1m3-3h1v-1h-1v1m1-1h1v-1h-1v1m1-1h1v-1h-1v1m-7 4v1h1v-1h-1m8-6v1h1v-1h-1"/></symbol><symbol viewBox="0 0 11 11" id="btn_addto_list"><title>btn_addto_list</title><path fill-rule="evenodd" d="m11 5h-5v-5h-1v5h-5v1h5v5h1v-5h5z"/></symbol><symbol viewBox="0 0 14 17" id="btn_android"><title>btn_android</title><path fill-rule="evenodd" d="m13 10.996v-4.99h1v4.99h-1m-3 5.989h-2v-2.994h-2v2.994h-2v-2.994h-2v-7.985h10v7.985h-2v2.994m-5-15.703v-.267h1.997c.0001 0 .002 0 .003 0s.002 0 .003 0h.997v.123c.063.013.129.022.191.037l.742-1.145 1.05.554-1.098.811c1.525.623 2.68 1.965 3.02 3.612h-9.799c.327-1.606 1.432-3.082 2.899-3.725m4 1.729v-.998h-1v.998h1m-4 0h1v-.998h-1v.998m-1.768-2.441l.821-.57.679 1.412-.819.547-.681-1.389m-3.232 5.436h1v4.99h-1v-4.99"/></symbol><symbol viewBox="0 0 14 17" id="btn_apple"><title>btn_apple</title><path fill-rule="evenodd" d="m10.841 8.835c.207-1.905 1.334-2.417 1.334-2.417s.333-1.167-1.834-1.833c-1.583-.417-3.333 1.083-3.333 1.083s-1.417-1.583-2.667-1.083-3.643 1.417-3.31 4.833c.334 3.417 2.894 6.083 3.894 6.167 1 .083 2.583-1.167 2.583-1.167l1.833 1.167c0 0 2.75-1.071 3.5-3.488.5-1.5-2.285-.631-2-3.262m-1.083-8.834c0 0-3.167-.166-2.917 3.75 3.167-.75 2.917-3.75 2.917-3.75"/></symbol><symbol viewBox="-10.5 6 22 21" id="btn_close"><title>btn_close</title><path fill-rule="evenodd" d="m2.5 16v-1h1v-1h1v-1h1v-1h-2v1h-1v1h-1v1h-2v-1h-1v-1h-1v-1h-2v1h1v1h1v1h1v1h1v1h-1v1h-1v1h-1v1h-1v1h2v-1h1v-1h1v-1h2v1h1v1h1v1h2v-1h-1v-1h-1v-1h-1v-1h-1v-1z"/></symbol><symbol viewBox="0 0 16 16" id="btn_delete"><title>btn_delete</title><path d="m5 3v-1h4v1h1v-2h-1-5v2h-1-1-1v1h1v10h1v-10h8v10h-9v1h9 1v-11h1v-1h-8m0 9h1v-6h-1v6m3 0h1v-6h-1v6" fill-rule="evenodd"/></symbol><symbol viewBox="0 0 16 16" id="btn_dld"><title>btn_dld</title><path d="m13.5 7c-.3 0-.5.2-.5.5v3.5c0 .6-.4 1-1 1h-9c-.6 0-1-.4-1-1v-3.5c0-.3-.2-.5-.5-.5s-.5.2-.5.5v3.5c0 1.1.9 2 2 2h9c1.1 0 2-.9 2-2v-3.5c0-.3-.2-.5-.5-.5m-6.5 1.7c0 .1.1.1.1.2.1 0 .2.1.4.1.1 0 .3 0 .4-.1 0-.1.1-.2.1-.2l2.9-2.9c.199-.2.199-.5 0-.7-.2-.2-.5-.2-.7 0l-2.2 2.2v-5.8c0-.3-.2-.5-.5-.5s-.5.2-.5.5v5.8l-2.2-2.2c-.2-.2-.5-.2-.7 0-.1.2-.1.5 0 .7l2.9 2.9"/></symbol><symbol viewBox="0 0 8 4" id="btn_droparr"><title>btn_droparr</title><path fill-rule="evenodd" d="m6 0v1h-1v1h-2v-1h-1v-1h-2v1h1v1h1v1h1v1h2v-1h1v-1h1v-1h1v-1z"/></symbol><symbol viewBox="0 0 16 16" id="btn_fav"><title>btn_fav</title><path d="m13.3 3h-6.3l-1.9-1.9v-.1h-.1-3c-1.1 0-2 .9-2 2v9.3c0 .9.8 1.7 1.7 1.7h11.6c.9 0 1.7-.8 1.7-1.7v-7.6c0-.9-.8-1.7-1.7-1.7m.7 9.3c0 .4-.3.7-.7.7h-11.6c-.4 0-.7-.3-.7-.7v-9.3c0-.6.4-1 1-1h2.6l2 2h6.7c.4 0 .7.3.7.7v7.6m-6-6.3h-1v2h-2v1h2v2h1v-2h2v-1h-2v-2" fill-rule="evenodd"/></symbol><symbol viewBox="0 0 16 16" id="btn_faved"><title>btn_faved</title><path fill-rule="evenodd" d="m7 11h1v-1h-1v1m1-1h1v-1h-1v1m1-1h1v-1h-1v1m1-1h1v-1h-1v1m1-2v1h1v-1h-1m-5 3v1h1v-1h-1m-1-1v1h1v-1h-1"/><path d="M14,3H8.326L6.385,1H3.367C2.062,1,1,2.053,1,3.346v8.584C1,13.071,1.936,14,3.087,14h10.826C15.063,14,16,13.071,16,11.931
	V5.071C16,3.93,15.15,3,14,3z M15,11.931C15,12.521,14.513,13,13.913,13H3.087C2.488,13,2,12.521,2,11.931V3.346
	C2,2.604,2.613,2,3.367,2h2.594l1.954,2h1.379H14c0.6,0,1,0.481,1,1.071V11.931z"/></symbol><symbol viewBox="-304.5 397.5 15 15" id="btn_follow_add"><title>btn_follow_add</title><path fill-rule="evenodd" d="m-292.5 404.5h-4v-4h-1v4h-4v1h4v4h1v-4h4z"/></symbol><symbol viewBox="0 0 17 17" id="btn_follow_added"><title>btn_follow_added</title><path fill-rule="evenodd" d="m4 8v1h1v-1h-1m1 1v1h1v-1h-1m1 1v1h1v-1h-1m1 2h1v-1h-1v1m1-1h1v-1h-1v1m1-1h1v-1h-1v1m1-1h1v-1h-1v1m1-1h1v-1h-1v1m1-2v1h1v-1h-1"/></symbol><symbol viewBox="0 0 16 16" id="btn_love"><title>btn_love</title><path d="M8,14c0,0-7-4.3-7-7.7C1,2,4.5,2,4.5,2C8,2,8,4.6,8,4.6S8,2,11.5,2c0,0,3.5,0,3.5,4.3
		C15,9.7,8,14,8,14z M11,3C9.7,3,9,4.1,8.6,5.4H7.4C7,4.1,6.3,3,5,3c0,0-3.2-0.3-3,3.6c0,1.8,6,6.3,6,6.3s5.5-4.2,6-6.3
		C14.5,3.1,11,3,11,3z"/></symbol><symbol viewBox="0 0 16 16" id="btn_loved"><title>btn_loved</title><path d="M8,14c0,0-7-4.3-7-7.7C1,2,4.5,2,4.5,2C8,2,8,4.6,8,4.6S8,2,11.5,2c0,0,3.5,0,3.5,4.3C15,9.7,8,14,8,14z"/></symbol><symbol viewBox="0 0 16 16" id="btn_more"><title>btn_more</title><path fill-rule="evenodd" d="m1.5 9h2v-2h-2v2m5 0h2v-2h-2v2m5-2v2h2v-2h-2"/></symbol><symbol viewBox="0 0 16 16" id="btn_msg"><title>btn_msg</title><path fill-rule="evenodd" d="M0,3v11h15V3H0z M14,13H1V4h13V13z"/><path d="m7.5 9.5l-6.8-5.1.6-.8 6.2 4.65 6.2-4.65.6.8z"/></symbol><symbol viewBox="0 0 16 16" id="btn_pause_all"><title>btn_pause_all</title><g id="btn_pause_all-0"><path fill-rule="evenodd" d="M4,14h2V2H4V14z M9,2v12h2V2H9z"/></g></symbol><symbol viewBox="0 0 14 14" id="btn_play"><title>btn_play</title><path d="m7 14c-3.86 0-7-3.141-7-7 0-3.86 3.14-7 7-7 3.859 0 7 3.14 7 7 0 3.859-3.141 7-7 7m0-13c-3.309 0-6 2.691-6 6s2.691 6 6 6 6-2.691 6-6-2.691-6-6-6"/><path fill-rule="evenodd" d="m5 4v6l5-3-5-3"/></symbol><symbol viewBox="0 0 16 16" id="btn_play_sml"><title>btn_play_sml</title><path fill-rule="evenodd" d="m6 5v6l5-3-5-3"/><path d="m8 15c-3.86 0-7-3.141-7-7 0-3.86 3.14-7 7-7 3.859 0 7 3.14 7 7 0 3.859-3.141 7-7 7m0-13c-3.309 0-6 2.691-6 6s2.691 6 6 6 6-2.691 6-6-2.691-6-6-6"/></symbol><symbol viewBox="0 0 16 16" id="btn_praise"><title>btn_praise</title><path d="m10.228 15h-8.228v-8.726l3.769.027c.507-.001 1.339-.144 2.02-.808.377-.368.573-.976.761-1.565.275-.859.617-1.928 1.726-1.928.347 0 1 .094 1.503.722.579.73.722 1.923.425 3.553h.448c.877 0 2.346 0 2.346 2.217 0 .67-.26 2.426-1.24 4.28-.872 1.644-2.447 2.228-3.532 2.228m-4.459-1h4.458c.179 0 1.774-.048 2.648-1.697.923-1.742 1.125-3.343 1.125-3.812 0-1.217-.422-1.217-1.346-1.217h-1.692l.143-.613c.498-2.142.147-2.998-.106-3.317-.227-.284-.517-.344-.721-.344-.343 0-.499.375-.773 1.233-.216.673-.46 1.435-1.017 1.977-.932.907-2.05 1.081-2.719 1.091v6.699m-2.769 0h1.769v-6.726h-1.769v6.726"/></symbol><symbol viewBox="0 0 16 16" id="btn_profile"><title>btn_profile</title><path d="m7.999 9c-2.205 0-3.999-1.794-3.999-4s1.794-4 3.999-4c2.206 0 4 1.794 4 4s-1.795 4-4 4m0-7c-1.654 0-2.999 1.346-2.999 3s1.345 3 2.999 3c1.654 0 3-1.346 3-3s-1.347-3-3-3"/><path d="m1.999 14.997l-.999-.031c.125-3.904 3.199-6.964 6.999-6.966 3.804.002 6.878 3.062 7 6.966l-1 .031c-.105-3.361-2.74-5.995-5.999-5.997-3.259.002-5.895 2.636-6 5.997"/></symbol><symbol viewBox="0 0 16 16" id="btn_reflash"><title>btn_reflash</title><path d="m10 4.6c-.6-.3-1.3-.4-2-.4-2.7 0-4.8 2.1-4.8 4.8s2.2 4.9 4.9 4.9 4.9-2.2 4.9-4.9c0 0 0 0 0 0h1c0 3.3-2.7 6-6 6s-6-2.7-6-6 2.7-6 6-6c.7 0 1.4.1 2 .4v-2.4l4 3.1-4 2.9v-2.4" fill-rule="evenodd"/></symbol><symbol viewBox="0 0 59 50" id="btn_scan"><title>btn_scan</title><path d="m15.438 21.938c0-9.688 7.188-17.813 16.875-18.75-.625 0-.938 0-1.25 0-12.188 0-21.875 8.438-21.875 18.75v3.125h-6.25l9.375 12.5 9.375-12.5h-6.25v-3.125"/><path d="m46.688 9.438l-9.375 12.5h6.25v3.125c0 9.688-7.188 17.813-16.875 18.75.313 0 .625 0 1.25 0 12.188 0 21.875-8.438 21.875-18.75v-3.125h6.25l-9.375-12.5"/></symbol><symbol viewBox="0 0 16 16" id="btn_share"><title>btn_share</title><path fill-rule="evenodd" d="M14,4.5L10,1v2.486C8,3.486,5.545,5.539,5.359,9
			C5.802,6.709,7.55,5.592,10,5.592V8L14,4.5z"/><path d="M11.654,15H3.346C2.053,15,1,13.942,1,12.643V3.357C1,2.059,2.05,1.002,3.342,1l0,0l0,0h2.773v1H3.346
		C2.604,2,2,2.609,2,3.357v9.286C2,13.391,2.604,14,3.346,14h8.308C12.396,14,13,13.391,13,12.643V8.929h1v3.714
		C14,13.942,12.947,15,11.654,15z"/></symbol><symbol viewBox="0 0 16 16" id="btn_start"><title>btn_start</title><path fill-rule="evenodd" d="m10 8v-6h-3v6h-4v1h1v1h1v1h1v1h1v1h1v1h1v-1h1v-1h1v-1h1v-1h1v-1h1v-1z"/></symbol><symbol viewBox="0 0 14 14" id="btn_start_sml"><title>btn_start_sml</title><path fill-rule="evenodd" d="m9 7v-5h-3v5h-3v1h1v1h1v1h1v1h1v1h1v-1h1v-1h1v-1h1v-1h1v-1z"/></symbol><symbol viewBox="0 0 16 16" id="btn_subscribe"><title>btn_subscribe</title><path d="m11.369 15c-.251 0-.504-.065-.733-.188l-2.405-1.301c-.173-.093-.349-.091-.52.005l-2.235 1.261c-.512.292-1.149.261-1.635-.078-.495-.347-.734-.911-.641-1.51l.464-2.983c.029-.188-.021-.345-.156-.477l-2.044-2.02c-.423-.417-.569-1-.388-1.573.182-.569.64-.965 1.228-1.058l2.689-.428c.189-.031.327-.136.407-.313l1.107-2.435c.255-.556.791-.903 1.399-.904.611 0 1.146.344 1.401.898l1.121 2.438c.081.175.217.28.405.31l2.867.462c.579.093 1.035.483 1.219 1.043.184.558.049 1.143-.359 1.565l-2.069 2.136c-.134.138-.181.296-.145.484l.532 2.824c.114.599-.11 1.173-.601 1.534-.268.201-.583.307-.908.307m-3.394-2.559c.253 0 .5.064.732.19l2.403 1.3c.188.103.398.089.573-.041.179-.133.255-.325.213-.544l-.532-2.824c-.098-.509.048-.994.408-1.366l2.069-2.137c.15-.155.195-.352.128-.557-.067-.204-.219-.334-.428-.368l-2.868-.462c-.515-.083-.936-.404-1.153-.88l-1.121-2.437c-.188-.407-.796-.403-.982.004l-1.107 2.434c-.219.479-.642.802-1.16.885l-2.69.428c-.212.034-.365.166-.431.374s-.017.406.138.558l2.043 2.02c.364.357.521.835.442 1.342l-.464 2.984c-.034.219.046.409.227.536.177.122.381.134.569.027l2.237-1.263c.24-.133.493-.202.754-.202"/></symbol><symbol viewBox="0 0 16 16" id="btn_update"><title>btn_update</title><path fill-rule="evenodd" d="m14 7h-5v-5h-2v5h-5v2h5v5h2v-5h5z"/></symbol><symbol viewBox="0 0 14 17" id="btn_wp"><title>btn_wp</title><path fill-rule="evenodd" d="M7,14V9h7v6L7,14z M7,3l7-1v6H7V3z M6,8H0V4l6-0.857V8z M6,13.857L0,13V9h6
		V13.857z"/></symbol><symbol viewBox="0 0 16 16" id="btn_write"><title>btn_write</title><path d="m10.8 2l2.2 2.2-6.9 6.8-2.8.6.7-2.7 6.8-6.9m0-1c-.2 0-.5.1-.7.3l-7 7.1-1.1 4.6 4.6-1.1 7.1-7.1c.4-.4.5-.9 0-1.4l-2.2-2.1c-.2-.2-.4-.3-.7-.3z"/><path d="m13 14h-10c-.6 0-1 .2-1 .5s.4.5 1 .5h10c.6 0 1-.2 1-.5s-.4-.5-1-.5"/></symbol><symbol viewBox="0 0 34 24" id="btn_zoom"><title>btn_zoom</title><path fill-rule="evenodd" d="m15 13h-1.393l-.004-.004-.004.004h-4.597l2.298 2.298-3.301 3.302 1.401 1.4 3.302-3.302 2.298 2.299v-4.597l.004-.004-.004-.004v-1.392m10.999-7.599l-1.4-1.401-3.303 3.302-2.298-2.298v4.596l-.004.004.004.004v1.392h1.392l.005.004.004-.004h4.596l-2.298-2.298 3.302-3.301"/></symbol><symbol viewBox="8 -1 27 14" id="chaoqing"><title>chaoqing</title><path d="m31 5h1 1v1h-1v1 1 4h-1-1v-1h1v-1h-5v2h-1v-4-1-1h-1v-1h1 1 2v-1h-3v-1h3v-1h-4v-1h4v-1h1v1h4v1h-4v1h3v1h-3v1h2m-5 4h5v-1h-5v1m2-3h-2v1h5v-1h-2-1"/><path d="m22 1h1v1h-1v-1"/><path d="m23 2h1v1h-1v-1"/><path d="m22 5h1v1h-1v-1"/><path d="m23 6h1v1h-1v-1"/><path d="m22 10h1v1h-1v-1"/><path d="m23 9h1v1h-1v-1"/><path d="m13 12v-1h-1-1v-1-3h1v3h1v-1-1-2h-3v-1h3v-2h-2v-1h2v-2h1v2h1v1h-1v2h2v1h-2v2h2v-1-1h1 3 1v1 2 1h-1-3-1v-1h-2v1 1h7v1h-7-1m4-4v1h3v-2h-3v1m-7 4v-1h1v1h-1m7-10h-1v-1h1 1 2 1v1 2 1h-1-1v-1h1v-2h-2"/><path d="m17 2h1v2h-1v-2"/><path d="m16 4h1v1h-1v-1"/></symbol><symbol viewBox="-49 3 14 14" id="checkbox"><title>checkbox</title><path d="m-37 6v1h-1v1h-1v1h-1v1h-1v1h-1v1h-1v1h-1v-1h-1v-1h-1v-1h-1v2h1v1h1v1h1v1h1v-1h1v-1h1v-1h1v-1h1v-1h1v-1h1v-1h1v-2z"/></symbol><symbol viewBox="0 0 11 11" id="checkbox_checked"><title>checkbox_checked</title><path fill-rule="evenodd" d="m9.501 1.092c-.229-.161-.545-.105-.705.124l-4.509 7.03-2.237-2.805c-.195-.222-.7-.213-.876.011-.318.401-.132.681.031.912l2.625 3.292c.012.021.03.038.045.058l.037.046c.2.229.427.288.635.208.215-.064.341-.275.441-.417l4.975-7.75c.16-.229-.234-.545-.462-.705"/></symbol><symbol viewBox="0 0 24 22" id="close"><title>close</title><path fill-rule="evenodd" d="m14 10v-1h1v-1h1v-1h1v-1h-2v1h-1v1h-1v1h-1-1v-1h-1v-1h-1v-1h-2v1h1v1h1v1h1v1h1v1h-1v1h-1v1h-1v1h-1v1h2v-1h1v-1h1v-1h1 1v1h1v1h1v1h2v-1h-1v-1h-1v-1h-1v-1h-1v-1z"/></symbol><symbol viewBox="0 0 24 24" id="close_l"><title>close_l</title><path d="m14 11v-1h1v-1h1v-1h1v-1h1v-1h1v-1h1v-1h1v-1h1v-1h1v-1h1v-1h-2v1h-1v1h-1v1h-1v1h-1v1h-1v1h-1v1h-1v1h-1v1h-1v1h-2v-1h-1v-1h-1v-1h-1v-1h-1v-1h-1v-1h-1v-1h-1v-1h-1v-1h-1v-1h-2v1h1v1h1v1h1v1h1v1h1v1h1v1h1v1h1v1h1v1h1v1h1v1h-1v1h-1v1h-1v1h-1v1h-1v1h-1v1h-1v1h-1v1h-1v1h-1v1h-1v1h2v-1h1v-1h1v-1h1v-1h1v-1h1v-1h1v-1h1v-1h1v-1h1v-1h2v1h1v1h1v1h1v1h1v1h1v1h1v1h1v1h1v1h1v1h2v-1h-1v-1h-1v-1h-1v-1h-1v-1h-1v-1h-1v-1h-1v-1h-1v-1h-1v-1h-1v-1h-1v-1z"/></symbol><symbol viewBox="0 0 14 14" id="cloud"><title>cloud</title><path d="m12 7.1c0 0 .2 1.3-.1 1.3-.4 0-.8-.4-1.9.6.8-.7.9-2 1-2.6-.2-1.9-1.9-3.3-4-3.3-1.9 0-3.6 1.3-3.9 3 1.6 0 2.9 1.3 2.9 2.9 0-1.1-1.3-2.3-3-2.3-1.1.1-2 1.2-2 2.3s.9 2 2 2c.4 0 1.5 0 2.2 0h2.8 1.5 2.5v-.1c.6-.2 1-.7 1-1.4s-.4-1.2-1-1.4v-1c1.1.2 2 1.2 2 2.4 0 1.4-1.1 2.5-2.5 2.5-.2 0-.3 0-.5-.1v.1h-8c-1.7 0-3-1.3-3-3 0-1.3.9-2.4 2.1-2.8.3-2.4 2.3-4.2 4.9-4.2 2.8 0 5 2.1 5 4.7"/></symbol><symbol viewBox="0 0 17 17" id="cmt_at"><title>cmt_at</title><path fill-rule="evenodd" d="m15.51 12.814c0 0-.26 2.385-6.154 3.165-1.698.385-8.567-1.052-8.37-8.213-.094-2.654 2.631-6.558 7.251-6.756 2.642.063 4.476.968 5.097 1.717.86 1.039 1.232 1.562 1.668 3.373.276 3.742-1.357 5.548-3.035 5.673-1.274.094-1.968-1.551-1.968-1.551s.973-1.801.973-3.424c0-.197-.021-.555-.102-.972.178-.352.436-.822.724-1.214.528-.718.652-1.25.652-1.25l-1.057-.312c0 0-.279 0-.435.718-.067.31-.263.464-.462.544-.464-.716-1.236-1.29-2.521-1.263-2.124-.269-4.703 1.99-4.755 4.967-.037 2.172.719 4.551 2.984 4.997 1.953.384 3.501-1.541 3.501-1.541s.735 1.729 3.46 1.457c.859-.427 3.02-1.665 3-5.829.072-4.226-2.094-6.714-6.983-7.078-2.247-.159-5.03.537-6.876 2.485-1.201 1.266-1.871 3.239-2.074 5.259-.158 1.557.22 4.495 2.03 6.545 1.521 1.725 4.26 2.782 5.926 2.667 6.651.356 8.01-3.907 8.01-3.907l-.49-.257m-5.968-4.423c-.817 1.682-1.779 3.859-3.76 3.342-2.479-.649-1.927-4.997-.808-5.903 1.585-2.249 2.891-1.78 3.17-1.78 1.554.375 2.122 2.85 1.398 4.341"/></symbol><symbol viewBox="0 0 17 17" id="cmt_emt"><title>cmt_emt</title> <style type="text/css"> .st0{fill:#040000;} </style> <g id="cmt_emt-XMLID_2_"> <g id="cmt_emt-XMLID_64_"> <path id="cmt_emt-XMLID_65_" class="st0" d="M11.5,8C12.3,8,13,7.3,13,6.5C13,5.7,12.3,5,11.5,5C10.7,5,10,5.7,10,6.5
			C10,7.3,10.7,8,11.5,8z M5.5,8C6.3,8,7,7.3,7,6.5C7,5.7,6.3,5,5.5,5C4.7,5,4,5.7,4,6.5C4,7.3,4.7,8,5.5,8z M8.5,0
			C3.8,0,0,3.8,0,8.5C0,13.2,3.8,17,8.5,17c4.7,0,8.5-3.8,8.5-8.5C17,3.8,13.2,0,8.5,0z M8.5,16C4.4,16,1,12.6,1,8.5S4.4,1,8.5,1
			S16,4.4,16,8.5S12.6,16,8.5,16z M12.9,9c-0.3,2.2-2.1,4-4.4,4c-2.3,0-4.2-1.8-4.4-4h-1c0.3,2.8,2.6,5,5.4,5c2.9,0,5.2-2.2,5.4-5
			H12.9z"/> </g> </g> </symbol><symbol viewBox="0 0 12 12" id="cmt_like"><title>cmt_like</title><path d="m2.917 3.985c0 0 .199.037.551.024.174-.011.39-.021.628-.076.243-.041.504-.13.783-.246.262-.141.569-.277.816-.521.271-.215.522-.483.72-.805.203-.318.358-.677.51-1.042.152-.361.3-.749.59-1.034.301-.286.741-.31 1.128-.275.391.021.791.171 1.01.49.225.307.293.679.334 1.018.028.344.016.671-.007.971-.058.6-.151 1.095-.228 1.438s-.12.539-.12.539l-1-.245c0 0 .044-.184.12-.507.077-.321.17-.782.23-1.31.023-.26.037-.535.022-.794-.018-.244-.088-.473-.14-.524-.037-.042-.024-.061-.29-.092-.437-.021-.355.024-.382.019-.043.029-.203.32-.344.692-.15.365-.33.792-.584 1.192-.121.197-.326.465-.421.566-.157.199-.335.32-.5.474-.319.307-.71.495-1.049.672-.357.152-.691.263-.997.317-.303.069-.571.084-.793.097-.218.007-.402.004-.551-.012-.115-.012-.176-.019-.176-.019l.143-1.01"/><path d="m7.776 4c0 0 .283 0 .779 0 .248 0 .55 0 .896 0 .345.005.737-.017 1.157.053.424.053.845.354 1 .825.059.236.139.476.137.734l.026.387-.038.394c-.075.525-.251 1.051-.461 1.567-.183.528-.459 1.026-.686 1.546-.243.512-.504 1.018-.819 1.479-.307.457-.724.878-1.258.979-.526.072-1.044.02-1.53.036-.487 0-.948 0-1.374 0-1.701 0-2.835 0-2.835 0v-.938c0 0 .284-.038.78-.05.496-.026 1.205-.006 2.055-.012.425 0 .886 0 1.374 0 .244 0 .494 0 .75 0h.388c.087 0 .144-.007.201-.018.156-.027.358-.172.633-.57.134-.177.241-.391.372-.609.134-.267.259-.481.368-.731.216-.494.493-.998.657-1.474.081-.229.209-.502.251-.688.036-.214.126-.317.141-.609l.019-.198.009-.098.005-.049.002-.024v-.012-.006c-.004.037.002-.097-.006.084l-.024-.298c.002-.221-.061-.333-.082-.473-.115-.179-.013-.108-.249-.179-.201-.037-.633-.031-.97-.028-.346 0-.647.003-.895.005-.496.003-.78.004-.78.004v-1.031"/><path d="m2 5v6h-1v-6h1m1-1h-3v8h3v-8z"/></symbol><symbol viewBox="0 0 14 14" id="cmt_pen"><title>cmt_pen</title><path fill-rule="evenodd" d="m1 10h-1v3 1h1 3v-1h-3v-3m1-1h-1v1h1v-1m1-1h-1v1h1v-1m1-1h-1v1h1v-1m1-1h-1v1h1v-1m1-1h-1v1h1v-1m1-1h-1v1h1v-1m1-1h-1v1h1v-1m1-1h-1v1h1v-1m1-1h-1v1h1v-1m1-1h-1v1h1v-1m1 2v-1h-1v1h1m1 1v-1h-1v1h1m0 0v1h1v-1h-1m-1 2h1v-1h-1v1m-1 1h1v-1h-1v1m-1 1h1v-1h-1v1m-1 1h1v-1h-1v1m-1 1h1v-1h-1v1m-1 1h1v-1h-1v1m-1 1h1v-1h-1v1m-1 1h1v-1h-1v1m-1 1h1v-1h-1v1"/></symbol><symbol viewBox="0 0 18 17" id="cmt_pic"><title>cmt_pic</title><path d="m0 2v14h18v-14h-18m17 1v8.4l-3.1-3.3c-.2-.2-.5-.2-.7 0l-4.7 4.9-3.6-2.8c-.2-.2-.5-.1-.7 0l-3.2 3.3v-10.5h16m-16 12l3.5-3.7 3.6 2.8c.2.2.5.1.7 0l4.6-4.8 3.5 3.6v2.1h-15.9"/><path d="M6.5,9C7.9,9,9,7.9,9,6.5C9,5.1,7.9,4,6.5,4C5.1,4,4,5.1,4,6.5C4,7.9,5.1,9,6.5,9z M6.5,5
		C7.3,5,8,5.7,8,6.5C8,7.3,7.3,8,6.5,8C5.7,8,5,7.3,5,6.5C5,5.7,5.7,5,6.5,5z"/></symbol><symbol viewBox="1 0 17 17" id="cmt_topic"><title>cmt_topic</title><path d="m17 12v1h-3v3h-1v-2-1-1-1-5h-5v-1h5v-3h1v3h3v1h-3v6h3"/><path d="M12,13H7v3H6v-3H3v-1h3V6H3V5h3V2h1v1v2v1v1v5h5V13z"/></symbol><symbol viewBox="-4 -2.5 21 20" id="colse"><title>colse</title><path fill-rule="evenodd" d="m8 6.5h1v-1h1v-1h1v-1h-2v1h-1v1h-1v1h-1v-1h-1v-1h-1v-1h-2v1h1v1h1v1h1v2h-1v1h-1v1h-1v1h2v-1h1v-1h1v-1h1v1h1v1h1v1h2v-1h-1v-1h-1v-1h-1z"/></symbol><symbol viewBox="18 -6 43 43" id="create"><title>create</title><path d="m54.4 31l-1.4-1.4c3.7-3.5 6-8.4 6-13.8 0-5.2-2.1-9.9-5.5-13.3l1.5-1.5c3.7 3.8 6 9 6 14.7 0 6-2.5 11.4-6.6 15.3m-34.4-15.3c0 5.4 2.3 10.3 6 13.8l-1.4 1.5c-4-3.9-6.6-9.3-6.6-15.3 0-5.7 2.3-10.9 6-14.7l1.5 1.4c-3.4 3.5-5.5 8.2-5.5 13.3" fill-rule="evenodd"/></symbol><symbol viewBox="0 0 16 16" id="daren"><title>daren</title><path fill-rule="evenodd" fill="none" stroke="#fff" stroke-miterlimit="10" d="M8.121,3.387L6.654,7.199
	h-3.19L6.24,9.505l-1.373,3.327l3.254-1.61l3.064,1.61L9.98,9.513l2.799-2.313H9.398L8.121,3.387z"/></symbol><symbol viewBox="-50 4 13 13" id="daren_letter"><title>daren_letter</title> <g id="daren_letter-&#x56FE;&#x5C42;_1_1_">                        <g id="daren_letter-Single_cycle">  </g>             </g> <g id="daren_letter-&#x56FE;&#x5C42;_3">     <g id="daren_letter-XMLID_1044_"> <path id="daren_letter-XMLID_41_" d="M-39.3,8.3H-43l-1.2-3.1c-0.1-0.3-0.5-0.3-0.6,0L-46,8.3h-3.7c-0.3,0-0.4,0.4-0.2,0.6l3,2.9l-1.1,3.5
			c-0.1,0.3,0.3,0.6,0.5,0.4l3-2.2l3,2.2c0.3,0.2,0.6-0.1,0.5-0.4l-1.1-3.5l3-2.9C-38.9,8.7-39,8.3-39.3,8.3z M-43.9,12.7l-0.6-0.4
			l-0.6,0.4l-1.3,1l0.5-1.6l0.2-0.6l-0.5-0.4L-48,9.3h2.1h0.7l0.2-0.7l0.5-1.4l0.5,1.4l0.3,0.7h0.7h2.1l-1.9,1.8l-0.5,0.4l0.2,0.6
			l0.5,1.6L-43.9,12.7z"/> </g> </g> </symbol><symbol viewBox="0 0 23 16" id="detail_arr"><title>detail_arr</title><path fill-rule="evenodd" d="m16 5v1h-1v1h-1v1h-1v1h-1v1h-1v-1h-1v-1h-1v-1h-1v-1h-1v-1h-2v1h1v1h1v1h1v1h1v1h1v1h1v1h1v-1h1v-1h1v-1h1v-1h1v-1h1v-1h1v-1z"/></symbol><symbol viewBox="0 0 12 6" id="detail_more"><title>detail_more</title><path fill-rule="evenodd" d="m10 0v1h-1v1h-1v1h-1v1h-2v-1h-1v-1h-1v-1h-1v-1h-2v1h1v1h1v1h1v1h1v1h1v1h2v-1h1v-1h1v-1h1v-1h1v-1h1v-1z"/></symbol><symbol viewBox="0 0 13 13" id="download_draw"><title>download_draw</title><path d="m9 4v1h-1v1h-1v1h-1v1h-1v-1h-1v-1h-1v2h1v1h1v1h1v-1h1v-1h1v-1h1v-1h1v-2z"/></symbol><symbol viewBox="0 0 14 14" id="download_pause"><title>download_pause</title> <path d="M4,12h2V2H4V12z M8,2v10h2V2H8z"/> </symbol><symbol viewBox="0 0 16 16" id="edit"><title>edit</title> <style type="text/css"> .st0{fill:#040000;} </style> <path id="edit-XMLID_5_" class="st0" d="M15.1,1.6L7.6,9.1c-0.2,0.2-0.5,0.2-0.7,0c-0.2-0.2-0.2-0.5,0-0.7l7.5-7.5c0.2-0.2,0.5-0.2,0.7,0
	C15.3,1.1,15.3,1.4,15.1,1.6z M4.9,11.1c-0.2-0.2-0.2-0.5,0-0.7l0.5-0.5c0.2-0.2,0.5-0.2,0.7,0c0.2,0.2,0.2,0.5,0,0.7l-0.5,0.5
	C5.4,11.3,5.1,11.3,4.9,11.1z M1,15h12V8h1v7c0,0.6-0.4,1-1,1H1c-0.6,0-1-0.4-1-1V3c0-0.6,0.4-1,1-1h7v1H1V15z"/> </symbol><symbol viewBox="0 0 134 134" id="empty_artist"><title>empty_artist</title><path d="m53.7 75.5c-7.7 0-14 6.3-14 14v13c0 6.3 4.2 11.7 10 13.4v10.3c0 2.8 1.2 5 4 5s4-2.2 4-5v-10.3c5.8-1.7 10-7.1 10-13.4v-13c0-7.7-6.3-14-14-14m6 29c0 2.2-1.8 4-4 4h-4c-2.2 0-4-1.8-4-4v-17c0-2.2 1.8-4 4-4h4c2.2 0 4 1.8 4 4v17m16.7-42.8c6.8-6.3 11.1-15.3 11.1-25.3 0-19-15.5-34.5-34.5-34.5-19.1 0-34.5 15.4-34.5 34.5 0 10.1 4.3 19.2 11.2 25.5-9.4 5.2-24.8 16.8-27.5 38.1-2.5 20.1 4.2 23.5 6.3 25.9 2.5 2.8 11.3 4.9 14.5 4.1s4.3-4.5 2.6-7.1c-2.3-3.5-8.4.5-12.8-4.8-5.6-6.7-2.8-26.7 6.3-37.4 5.5-6.4 13-11 18-13.6 4.7 2.5 10.1 3.8 15.8 3.8 5.8 0 11.3-1.4 16-4 5 2.6 12.7 7.3 18.2 13.8 9.2 10.7 12.6 31.3 6.3 37.4-4.7 4.6-10.5 1.6-12.8 5.1-1.7 2.6-.6 6 2.6 6.8 3.2.8 12-1.3 14.5-4.1 2-2.4 8.8-5.8 6.3-25.9-2.5-21.5-18.3-33.2-27.6-38.3m-23.1 1.1c-14.6 0-26.5-11.9-26.5-26.5 0-14.6 11.9-26.5 26.5-26.5 14.6 0 26.5 11.9 26.5 26.5 0 14.7-11.9 26.5-26.5 26.5m56.4 3.7c0 0 6.8-7.1 7.2-22.3-5.4-24.8-19.9-28.5-19.9-28.5s-5.2-.8-5.2 2.5c-1 3.1.9 5.4 5.4 6.6 1.8 2 8.6 3.7 11.2 17.9 3.8 16.2-10.7 20.4-7.7 26.8 1 5 6.8-.2 18 16 13.6 18.2 4.7 34.3 4.7 34.3s.6 7.5 7.8 2.7c12.7-34.7-21.5-56-21.5-56"/></symbol><symbol viewBox="0 0 84 84" id="empty_content"><title>empty_content</title><path d="m76 57.1v2h-.1c.1.2.1.3.1.5 0 .8-.7 1.5-1.5 1.5s-1.5-.7-1.5-1.5c0-.2 0-.3.1-.5h-.1v-15c0-17.1-13.9-31-31-31s-31 13.9-31 31v15h-.1c.1.2.1.3.1.5 0 .8-.7 1.5-1.5 1.5-.8 0-1.5-.7-1.5-1.5 0-.2 0-.3.1-.5h-.1v-2c-2.3-.1-8-1.1-8-9 0 0 0-8.4 8.2-8.9 2-16.9 16.3-30 33.8-30s31.8 13.1 33.8 30c8.2.5 8.2 9 8.2 9 0 7.8-5.7 8.8-8 8.9m-34-39c15.5 0 28 12.5 28 28s-12.5 28-28 28-28-12.5-28-28 12.5-28 28-28m0 53c13.8 0 25-11.2 25-25s-11.2-25-25-25-25 11.2-25 25 11.2 25 25 25m-10.5-34c1.4 0 2.5 1.1 2.5 2.5v6c0 1.4-1.1 2.5-2.5 2.5-1.4 0-2.5-1.1-2.5-2.5v-6c0-1.4 1.1-2.5 2.5-2.5m21 0c1.4 0 2.5 1.1 2.5 2.5v6c0 1.4-1.1 2.5-2.5 2.5s-2.5-1.1-2.5-2.5v-6c0-1.4 1.1-2.5 2.5-2.5"/></symbol><symbol viewBox="0 0 142 142" id="empty_dld"><title>empty_dld</title><path d="m66.8 106c2.3 2.3 6.1 2.3 8.5 0l41.2-46.2c2.3-2.3 2.6-7.6-.9-9.8h-19.6v-38c0-3.3-2.6-5-5.9-5h-38.1c-3.3 0-6 2.7-6 6v37h-19c-3.5 1.9-3.8 6.1-1.5 8.4l41.3 47.6m-13.8-49v-7-1-35h36.1v36h-.1v7h21.2l-39.2 43.3-38-43.3h20m89 28.5v-1.5h-.3c-.6-1.2-1.8-2-3.2-2s-2.6.8-3.2 2h-.3v42h-128v-42h-.3c-.6-1.2-1.8-2-3.2-2s-2.6.8-3.2 2h-.3v43c0 3.3 2.7 6 6 6h130c3.3 0 6-2.7 6-6v-41.5c0 0 0 0 0 0"/></symbol><symbol viewBox="0 0 168 168" id="empty_offline"><title>empty_offline</title><path d="m168 66c0 1.7-1.3 3-3 3-.9 0-1.8-.4-2.3-1.1l-.5-.3c-18.2-22.7-45.9-36.6-77.2-36.6-31.6 0-59.7 14.8-77.8 37.8h-.1c-.6.7-1.5 1.2-2.6 1.2-1.9 0-3.5-1.6-3.5-3.5 0-1 .4-1.9 1.1-2.5 19.4-24.1 49.2-39.5 82.6-39.5 33.4 0 63.2 15.5 82.7 39.6.3.5.6 1.2.6 1.9m-143 16.3c13.9-16.9 34.8-27.7 58.4-27.7 24.3 0 45.8 11.4 59.7 29.2v.3c.1.3-.1 1-.1 1.3 0 1.7-.8 2.5-2.5 2.5-.5 0-1.7.2-2.1 0l-.6.2c-12.6-16.4-32.4-27.1-54.8-27.1-21.3 0-40.4 9.7-53 24.9-.2 1.7-1.7 3.1-3.5 3.1-1.9 0-3.5-1.6-3.5-3.5 0-1.4.8-2.6 2-3.2m24.3 19.9c8.1-9.9 20.4-16.2 34.1-16.2 11.6 0 22.2 4.5 30.1 11.9-2.1 1.4-3.9 3-5.6 4.8-6.6-6-15.3-9.7-24.9-9.7-12.1 0-22.9 5.9-29.7 14.9l-.2-.1c-.6.8-1.6 1.2-2.7 1.2-1.9 0-3.5-1.6-3.5-3.5.1-1.5 1.1-2.8 2.4-3.3m34.1 13.2c8.2 0 14.8 6.6 14.8 14.8 0 8.2-6.6 14.8-14.8 14.8s-14.8-6.6-14.8-14.8c0-8.2 6.6-14.8 14.8-14.8m46.7-16.6c13.3 0 24.1 10.8 24.1 24.1s-10.8 24.1-24.1 24.1-24.1-10.8-24.1-24.1 10.7-24.1 24.1-24.1m-10.2 31c-1 1-1 2.6 0 3.5 1 1 2.6 1 3.5 0l7.1-7.2 7.1 7.1c1 1 2.6 1 3.6 0 1-1 1-2.6 0-3.6l-7.1-7.1 7-7.1c1-1 1.1-2.6.1-3.5-1-1-2.7-1.1-3.7-.1l-7 7.2-7.2-7.2c-1-1-2.6-1-3.6 0s-1 2.6 0 3.6l7.2 7.2-7 7.2"/></symbol><symbol viewBox="0 0 13 13" id="enter"><title>enter</title><path d="M6.5,7C5.122,7,4,5.878,4,4.5S5.122,2,6.5,2C7.879,2,9,3.122,9,4.5S7.879,7,6.5,7z M6.5,3C5.673,3,5,3.673,5,4.5
		S5.673,6,6.5,6S8,5.327,8,4.5S7.327,3,6.5,3z"/><path d="M11,10h-1c0-1.654-1.57-3-3.5-3S3,8.346,3,10H2c0-2.206,2.019-4,4.5-4S11,7.794,11,10z"/></symbol><symbol viewBox="0 0 18 18" id="exit"><title>exit</title><path d="m13.9 3.4l-.6.8c1.6 1.2 2.7 3.1 2.7 5.3 0 3.6-2.9 6.5-6.5 6.5s-6.5-2.9-6.5-6.5c0-2.2 1.1-4.1 2.8-5.3l-.7-.8c-1.9 1.4-3.1 3.6-3.1 6.1 0 4.1 3.4 7.5 7.5 7.5 4.1 0 7.5-3.4 7.5-7.5 0-2.5-1.2-4.7-3.1-6.1m-4.4 5.6c.3 0 .5-.2.5-.5v-7c0-.3-.2-.5-.5-.5s-.5.2-.5.5v7c0 .3.2.5.5.5"/></symbol><symbol viewBox="0 0 15 15" id="fav"><title>fav</title><path d="m13.3 3h-6.3l-1.9-1.9v-.1h-.1-3c-1.1 0-2 .9-2 2v9.3c0 .9.8 1.7 1.7 1.7h11.6c.9 0 1.7-.8 1.7-1.7v-7.6c0-.9-.8-1.7-1.7-1.7m.7 9.3c0 .4-.3.7-.7.7h-11.6c-.4 0-.7-.3-.7-.7v-9.3c0-.6.4-1 1-1h2.6l2 2h6.7c.4 0 .7.3.7.7v7.6m-6-6.3h-1v2h-2v1h2v2h1v-2h2v-1h-2v-2" fill-rule="evenodd"/></symbol><symbol viewBox="0 0 30 30" id="feedback_err"><title>feedback_err</title><path d="m16.9 15.5l4.8-4.8c.4-.4.4-1 0-1.4-.4-.4-1-.4-1.4 0l-4.8 4.8-4.8-4.8c-.4-.4-1-.4-1.4 0-.4.4-.4 1 0 1.4l4.8 4.8-4.8 4.8c-.4.4-.4 1 0 1.4.4.4 1 .4 1.4 0l4.8-4.8 4.8 4.8c.4.4 1 .4 1.4 0 .4-.4.4-1 0-1.4l-4.8-4.8" fill-rule="evenodd"/></symbol><symbol viewBox="0 0 30 30" id="feedback_ok"><title>feedback_ok</title><path d="m23.7 10.3c-.4-.4-1-.4-1.4 0l-9.4 9.3-5.1-5c-.4-.4-1-.4-1.4 0-.4.4-.4 1 0 1.4l5.8 5.7c.4.4 1 .4 1.4 0l10.1-10c.4-.4.4-1 0-1.4" fill-rule="evenodd"/></symbol><symbol viewBox="0 0 11 12" id="filter"><title>filter</title><path d="M11,0H0l5,6.4V12h1V6.4L11,0z M8.9,1L5.5,5.4L2.1,1H8.9z"/></symbol><symbol viewBox="0 0 12 18" id="flag"><title>flag</title><path fill-rule="evenodd" d="m2 0h8c1.104 0 2 .896 2 2v14c0 1.104 0 2 0 2l-6-4-6 4c0 0 0-.896 0-2v-14c0-1.105.896-2 2-2"/></symbol><symbol viewBox="0 0 40 40" id="fm_delete"><title>fm_delete</title><path d="m21.5 17c-.3 0-.5.2-.5.5v8c0 .3.2.5.5.5s.5-.2.5-.5v-8c0-.3-.2-.5-.5-.5m-3 0c-.3 0-.5.2-.5.5v8c0 .3.2.5.5.5s.5-.2.5-.5v-8c0-.3-.2-.5-.5-.5m10-3h-3.5v-1c0-1.1-.9-2-2-2h-6c-.8.1-2 .9-2 2v1h-3.5c-.3 0-.5.2-.5.5 0 .3.2.5.5.5h1.5v11c0 1.7 1.3 3 3 3h8c1.7 0 3-1.3 3-3v-11h1.5c.3 0 .5-.2.5-.5 0-.3-.2-.5-.5-.5m-10.5-2h4c2-.1 2 .9 2 2h-8c0 0-.4-2.2 2-2m8 14c0 1.1-.9 2-2 2h-8c-1.1 0-2-.9-2-2v-11h1 10 1v11"/></symbol><symbol viewBox="0 0 40 40" id="fm_love"><title>fm_love</title><path d="m24.5 11.9c2.5 0 4.5 2 4.5 4.5 0 6.3-7.3 10.6-9.1 11.5-1.8-1-9.1-5.2-9.1-11.5 0-2.5 2-4.5 4.5-4.5 1.5 0 2.9.8 3.8 2 .2.3.5.4.8.4s.6-.2.8-.4c.9-1.3 2.3-2 3.8-2m0-.9c-1.9 0-3.6 1-4.5 2.4-1-1.4-2.6-2.4-4.5-2.4-3 0-5.5 2.4-5.5 5.4 0 7.8 10 12.6 10 12.6s10-4.7 10-12.6c0-3-2.4-5.4-5.5-5.4z"/></symbol><symbol viewBox="0 0 40 40" id="fm_loved"><title>fm_loved</title><path d="m24.5 11c-1.9 0-3.6 1-4.5 2.4-1-1.4-2.6-2.4-4.5-2.4-3 0-5.5 2.4-5.5 5.4 0 7.8 10 12.6 10 12.6s10-4.7 10-12.6c0-3-2.4-5.4-5.5-5.4"/></symbol><symbol viewBox="0 0 40 40" id="fm_more"><title>fm_more</title><path d="m10.5 19c-.8 0-1.5.7-1.5 1.5 0 .8.7 1.5 1.5 1.5s1.5-.7 1.5-1.5c0-.8-.7-1.5-1.5-1.5m10 0c-.8 0-1.5.7-1.5 1.5 0 .8.7 1.5 1.5 1.5s1.5-.7 1.5-1.5c0-.8-.7-1.5-1.5-1.5m10 0c-.8 0-1.5.7-1.5 1.5 0 .8.7 1.5 1.5 1.5s1.5-.7 1.5-1.5c0-.8-.7-1.5-1.5-1.5"/></symbol><symbol viewBox="0 0 40 40" id="fm_next"><title>fm_next</title><g><path d="m23 16.9c-8-5.5-8-5.5-8-5.5-1.2-.7-2.1-.7-2.1 1.4 0 1.4 0 11.1 0 12.4 0 1.7.8 2.1 2.1 1.4 0 0 0 0 8-5.5 2.6-1.8 2.6-2.3 0-4.2m-1 4.1c-5.9 4.2-6 4-6 4-1.1 1.2-2.2 1.7-2.1-1.5.1-1 .1-8.3 0-9.3-.1-2.7.3-2.7 2.1-1.2 0 0 1.2.4 6 4 2.7 2 3.2 1.7 0 4"/><path d="m26 11h1v16h-1z"/></g></symbol><symbol viewBox="0 0 40 40" id="fm_pause"><title>fm_pause</title><path fill-rule="evenodd" d="m24.5 11c-.276 0-.5.448-.5 1v16c0 .553.224 1 .5 1 .275 0 .5-.447.5-1v-16c0-.552-.225-1-.5-1m-9 0c-.276 0-.5.448-.5 1v16c0 .553.224 1 .5 1 .276 0 .5-.447.5-1v-16c0-.552-.224-1-.5-1"/></symbol><symbol viewBox="1 1 52 52" id="fm_play"><title>fm_play</title><path d="m22.499 15.995c.213 0 .634.089 1.438.509l13.243 8.601c1.863 1.209 2.809 2.02 2.809 2.396s-.944 1.187-2.809 2.396l-13.243 8.602c-.804.42-1.225.509-1.438.509-.451 0-.486-1.378-.486-1.801v-19.41c0-.423.035-1.802.486-1.802m0-1c-.929 0-1.486.751-1.486 2.801 0 2.169 0 17.251 0 19.408 0 2.051.557 2.801 1.486 2.801.536 0 1.196-.25 1.944-.646 0 0 0 0 13.282-8.625 4.352-2.825 4.352-3.645 0-6.469-13.283-8.625-13.283-8.625-13.283-8.625-.748-.395-1.407-.645-1.943-.645z"/></symbol><symbol viewBox="0 0 18 18" id="fufei"><title>fufei</title><path d="m13.165 3c.408 0 .723.143.99.449l.017.02.019.019 2.169 2.239c.434.513.415 1.263-.064 1.772l-6.333 7.088c-.267.281-.571.413-.959.413-.388 0-.693-.132-.945-.399l-6.398-7.091c-.471-.499-.482-1.255-.032-1.769l2.337-2.268.021-.021.021-.022c.268-.293.578-.43.974-.43h8.183m0-1h-8.183c-.677 0-1.255.256-1.712.756l-2.363 2.292c-.819.899-.808 2.262.026 3.147l6.384 7.07c.455.485 1.023.73 1.687.73s1.231-.245 1.687-.729l6.351-7.106c.822-.874.847-2.209.057-3.113l-2.189-2.26c-.458-.523-1.051-.792-1.745-.792z"/><g fill-rule="evenodd"><path d="m7.654 8.099c1.101-.295 2.16.091 2.366.861.207.771-.518 1.633-1.619 1.928-1.101.295-2.16-.09-2.366-.86-.206-.77.519-1.634 1.619-1.929"/><path d="m11.309 4.677c-.444-.472-1.01-.535-1.419-.506-.092-.102-.229-.171-.39-.171-.276 0-.5.191-.5.429v5.143c0 .237.224.428.5.428s.5-.191.5-.429v-4.186c.284.089.55.373 1.309.53 1.525.314 1.691-1.915 1.691-1.915s-.914 1.502-1.691.677"/></g></symbol><symbol viewBox="7 0 27 14" id="gaoqing"><title>gaoqing</title><path d="m15 1h-1v1h-5v1h5 1 5v-1h-5z"/><path d="m10 8h-1v1 4h1v-4h9v3h-1v1h1 1v-1-3-1h-1z"/><path d="m18 7v-1-1-1h-1-6v1 1 1h1 5 1m-6-2h5v1h-5v-1"/><path d="m13 10h-1v1 1 1h1 3 1v-1-1-1h-1-3m3 2h-3v-1h3v1"/><path d="m32 3v-1h-4v-1h-1v1h-4v1h4v1h-3v1h3v1h-2-1-1v1h1v1 1 4h1v-2h5v1h-1v1h1 1v-4-1-1h1v-1h-1-1-2v-1h3v-1h-3v-1h4m-2 7h-5v-1h5v1m0-3v1h-5v-1h2 1 2"/><path d="m21 2h1v1h-1z"/><path d="m22 3h1v1h-1z"/><path d="m21 6h1v1h-1z"/><path d="m22 7h1v1h-1z"/><path d="m21 11h1v1h-1z"/><path d="m22 10h1v1h-1z"/></symbol><symbol viewBox="0 0 24 24" id="guide_close"><title>guide_close</title><path fill-rule="evenodd" d="m16 8h-1v1h1v-1m-1 1h-1v1h1v-1m-1 1h-1v1h1v-1m-3 1v2h2v-2h-2m-1 3h1v-1h-1v1m-1 1h1v-1h-1v1m-1 1h1v-1h-1v1m0-8v1h1v-1h-1m1 1v1h1v-1h-1m1 1v1h1v-1h-1m4 4v-1h-1v1h1m1 1v-1h-1v1h1m1 1v-1h-1v1h1"/></symbol><symbol viewBox="0 0 13 13" id="help"><title>help</title><path d="m6.5 1c3 0 5.5 2.5 5.5 5.5 0 3-2.5 5.5-5.5 5.5-3 0-5.5-2.5-5.5-5.5 0-3 2.5-5.5 5.5-5.5m0-1c-3.6 0-6.5 2.9-6.5 6.5 0 3.6 2.9 6.5 6.5 6.5 3.6 0 6.5-2.9 6.5-6.5 0-3.6-2.9-6.5-6.5-6.5z"/><g fill-rule="evenodd"><path d="m5 3h3v1h-3z"/><path d="m4 4h1v2h-1z"/><path d="m8 4h1v2h-1z"/><path d="m7 6h1v1h-1z"/><path d="m6 7h1v1h-1z"/><path d="m6 9h1v1h-1z"/></g></symbol><symbol viewBox="0 0 6 3" id="help_arr"><title>help_arr</title><path d="m5.5 0h-5c-.3 0-.5.2-.5.5 0 .3.2.5.5.5h1c-.3 0-.5.2-.5.5 0 .3.2.5.5.5h1c-.3 0-.5.2-.5.5 0 .3.2.5.5.5h1c.3 0 .5-.2.5-.5 0-.3-.2-.5-.5-.5h1c.3 0 .5-.2.5-.5 0-.3-.2-.5-.5-.5h1c.3 0 .5-.2.5-.5 0-.3-.2-.5-.5-.5" fill-rule="evenodd"/></symbol><symbol viewBox="0 0 60 60" id="img_add"><title>img_add</title><path d="m7 2h6v-2h-6v2m16-2h-6v2h6v-2m10 0h-6v2h6v-2m4 2h6v-2h-6v2m10 0h6v-2h-6v2m-40 58h6v-2h-6v2m10 0h6v-2h-6v2m10 0h6v-2h-6v2m10 0h6v-2h-6v2m10 0h6v-2h-6v2m-45-53h-2v6h2v-6m0 10h-2v6h2v-6m0 10h-2v6h2v-6m0 10h-2v6h2v-6m0 10h-2v6h2v-6m56-34h2v-6h-2v6m0 10h2v-6h-2v6m0 10h2v-6h-2v6m0 10h2v-6h-2v6m0 10h2v-6h-2v6m-58-50h2v-1h1v-2h-3v3m57-3v2h1v1h2v-3h-3m-55 57h-2v3h3v-2h-1v-1m56 1h-1v2h3v-3h-2v1m-29-21h2v-6h6v-2h-6v-6h-2v6h-6v2h6v6"/></symbol><symbol viewBox="0 0 6 6" id="img_del"><title>img_del</title><path d="m0 0v1h1v-1h-1m1 1v1h1v-1h-1m0 4h1v-1h-1v1m-1 1h1v-1h-1v1m5-1v-1h-1v1h1m1 1v-1h-1v1h1m-1-5h-1v1h1v-1m1-1h-1v1h1v-1m-4 2v2h2v-2h-2"/></symbol><symbol viewBox="0 0 13 13" id="img_download"><title>img_download</title><path d="M12,9v3H1V9H0v4h13V9H12z M10.2,7H7V1H6v6H2.9l3.5,4.1L10.2,7z"/></symbol><symbol viewBox="0 0 13 13" id="img_fold"><title>img_fold</title><path fill-rule="evenodd" d="M0,12v1h13v-1H0z M7,1H6v9h1V1z"/><path d="m2.223 5.688l3.5-4.317.777-.959.777.958 3.499 4.317-.776.63-3.5-4.317.776.63-.474-.161-.385-.09c-.246-.049-.279.073-.354.161l-.438.54-.875 1.079-1.75 2.158-.777-.629"/></symbol><symbol viewBox="0 0 13 13" id="img_full"><title>img_full</title><path d="m12.5 12h-10.5v-10.5c0-.276-.224-.5-.5-.5s-.5.224-.5.5v11c0 .275.224.5.5.5h11c.275 0 .5-.225.5-.5s-.225-.5-.5-.5"/><path d="M7,2h4v1h1v4h1V1H7V2z"/><path d="M10,3v1h1V3H10z M9,5h1V4H9V5z M8,6h1V5H8V6z M7,7h1V6H7V7z M6,8h1V7H6V8z"/></symbol><symbol viewBox="0 0 14 12" id="img_full_download"><title>img_full_download</title><path fill-rule="evenodd" d="M13,7v3H1V7H0v5h14V7H13z M12,4H9V0H5v4H2l5,5L12,4z"/></symbol><symbol viewBox="0 0 18 32" id="img_page"><title>img_page</title><path d="m18 2.11l-13.873 13.93 12.883 13.93-2.18 2.03-12.881-13.93-1.949-2.107 2.026-2.034 13.872-13.929z"/></symbol><symbol viewBox="0 0 13 13" id="info"><title>info</title><path d="M6.5,13C2.916,13,0,10.084,0,6.5S2.916,0,6.5,0S13,2.916,13,6.5S10.084,13,6.5,13z M6.5,1C3.467,1,1,3.467,1,6.5
		C1,9.532,3.467,12,6.5,12C9.532,12,12,9.532,12,6.5C12,3.467,9.532,1,6.5,1z"/><path fill-rule="evenodd" d="m6 3v5h1v-5h-1m0 7h1v-1h-1v1"/></symbol><symbol viewBox="0 0 60 60" id="invite_selected"><title>invite_selected</title><path d="m41.7 24.3c-.4-.4-1.1-.4-1.5 0l-10.2 11.2-5.3-5.2c-.4-.4-1.1-.4-1.5 0-.4.4-.4 1.1 0 1.5l6 5.9c.1.1.2.2.4.2.4.1.8.1 1.2-.2l10.9-12c.4-.4.4-1 0-1.4" fill-rule="evenodd"/></symbol><symbol viewBox="0 0 16 16" id="jifen"><title>jifen</title><path d="m14 8c0-.4-.1-.7-.3-1h-1.2c1-.5 1.5-1.2 1.5-2 0-1.7-2.7-3-6-3s-6 1.3-6 3c0 .8.6 1.5 1.5 2h-1.2c-.2.3-.3.6-.3 1 0 .8.6 1.5 1.5 2h-1.2c-.2.3-.3.6-.3 1 0 1.7 2.7 3 6 3s6-1.3 6-3c0-.4-.1-.7-.3-1h-1.2c.9-.5 1.5-1.2 1.5-2m-11-3c0-1.1 2.2-2 5-2s5 .9 5 2-2.2 2-5 2-5-.9-5-2m10 6c0 1.1-2.2 2-5 2s-5-.9-5-2c0-.3.2-.7.6-.9 1.1.5 2.7.9 4.4.9s3.3-.4 4.4-.9c.4.2.6.6.6.9m-5-1c-2.8 0-5-.9-5-2 0-.3.2-.7.6-.9 1.1.5 2.7.9 4.4.9s3.3-.4 4.4-.9c.4.2.6.6.6.9 0 1.1-2.2 2-5 2"/></symbol><symbol viewBox="0 0 9 12" id="lamp"><title>lamp</title><path fill-rule="evenodd" d="m4.531 0c-2.503 0-4.531 2.08-4.531 5.03 0 1.309.681 2.571 1.343 3.5.137.192.28.366.426.531h.294v1h5v-1h.185c.184-.208.362-.432.531-.679.627-.916 1.283-2.082 1.283-3.352 0-2.951-2.029-5.03-4.531-5.03m2.326 7.799c-.527.656-1.065 1.076-1.794 1.21v-2.946h-1v2.94c-.714-.138-1.249-.528-1.762-1.189-.572-.734-1.201-1.775-1.201-2.85 0-2.278 1.566-3.884 3.498-3.884s3.497 1.605 3.497 3.884c0 1.098-.645 2.095-1.238 2.835m-4.794 4.264h5v-1h-5v1"/></symbol><symbol viewBox="0 0 18 18" id="leading"><title>leading</title><path d="m13 1h-10.5c-.3 0-.5.2-.5.5 0 .3.2.5.5.5h10.5c1.1 0 2 .9 2 2v10c0 1.1-.9 2-2 2h-8c-1.1 0-2-.9-2-2v-4c0-.6.4-1 1-1h3v2l4-2c0 0 .9-.4 0-1l-4-2v2h-3c-1.1 0-2 .9-2 2v4c0 1.7 1.3 3 3 3h8c1.7 0 3-1.3 3-3v-10c0-1.7-1.3-3-3-3"/></symbol><symbol viewBox="0 0 17 17" id="leading_help"><title>leading_help</title><path d="M8.5,17C3.813,17,0,13.187,0,8.5C0,3.813,3.813,0,8.5,0C13.187,0,17,3.813,17,8.5C17,13.187,13.187,17,8.5,17z M8.5,1
		C4.364,1,1,4.364,1,8.5S4.364,16,8.5,16S16,12.636,16,8.5S12.636,1,8.5,1z"/><path fill-rule="evenodd" d="m7 4v1h3v-1h-3m3 1v3h1v-3h-1m-4 2h1v-2h-1v2m2 4h1v-2h1v-1h-2v3m0 2h1v-1h-1v1"/></symbol><symbol viewBox="0 0 24 24" id="leading_success"><title>leading_success</title><path d="M10.21 16.997 6 12.225 7.5 10.902 10.322 14.1 16.603 8 17.995 9.435z"/></symbol><symbol viewBox="0 0 18 18" id="level"><title>level</title><path d="m9 5c-1.7 0-3 1.3-3 3 0 1.7 1.3 3 3 3 1.7 0 3-1.3 3-3 0-1.7-1.3-3-3-3m0 5c-1.1 0-2-.9-2-2 0-1.1.9-2 2-2 1.1 0 2 .9 2 2 0 1.1-.9 2-2 2m5.8 2c.8-1.1 1.3-2.5 1.3-4 0-3.9-3.1-7-7-7-4 0-7.1 3.1-7.1 7 0 1.5.5 2.9 1.3 4l-2.3 3.9h2.4l1.2 2.1 2-3.4c.7.2 1.5.4 2.4.4.9 0 1.7-.2 2.5-.4l2 3.4 1.2-2.1h2.4l-2.3-3.9m-10.1 4.1l-.7-1.1-1.5.1 1.3-2.4c.6.6 1.2 1.1 2 1.5l-1.1 1.9m4.3-2.1c-3.3 0-6-2.7-6-6 0-3.3 2.7-6 6-6s6 2.7 6 6c0 3.3-2.7 6-6 6m5 1l-.7 1.1-1.1-1.9c.7-.4 1.4-.9 2-1.5l1.4 2.4-1.6-.1"/></symbol><symbol viewBox="0 0 8 8" id="list_check"><title>list_check</title><path d="m7 1v1h-1v1h-1v1h-1v1h-1v1h-1v-1h-1v-1h-1v2h1v1h1v1h1v-1h1v-1h1v-1h1v-1h1v-1h1v-2z"/></symbol><symbol viewBox="0 0 13 13" id="list_member_b"><title>list_member_b</title><path d="M6.5,0C10.09,0,13,2.092,13,4.672C13,8.125,6.5,13,6.5,13S0,8.125,0,4.672C0,2.092,2.91,0,6.5,0z"/></symbol><symbol viewBox="0 0 13 13" id="list_member_f"><title>list_member_f</title><path fill-rule="evenodd" d="m9.653 2.508c-.812-.813-2.031-.406-2.031-.406-.225 0-.406.182-.406.406v3.779c-.436-.188-1-.231-1.587-.074-1.083.29-1.797 1.14-1.594 1.898.203.759 1.246 1.139 2.33.848.826-.222 1.435-.77 1.588-1.353.043-.065.075-.14.075-.224v-4.208c.452-.088.654.229 1.625.553 1.219.406 1.219-1.625 1.219-1.625s-.406 1.218-1.219.406"/></symbol><symbol viewBox="0 0 14 14" id="list_pause"><title>list_pause</title><path d="M3.5,5H1.7C1.5,5,0,4.9,0,6.7v1.9c0,0,0,1.4,1.7,1.4h1.7L7,13V2.5L3.5,5z" fill-rule="evenodd"/></symbol><symbol viewBox="0 0 14 14" id="list_play"><title>list_play</title><path d="M3.5,5H1.7C1.5,5,0,4.9,0,6.7v1.9c0,0,0,1.4,1.7,1.4h1.7L7,13V2.5L3.5,5z" fill-rule="evenodd"/><path d="m10.5 13c-.4 0-.7-.2-.8-.6-.2-.5.1-1 .6-1.1.1 0 2-.8 2-3.5 0-2.8-2-3.5-2-3.5-.5-.2-.8-.7-.6-1.2.2-.5.6-.7 1.1-.6.1 0 3.2 1.1 3.2 5.2s-3.1 5.2-3.2 5.2c-.1.1-.2.1-.3.1"/><path d="m8.7 10.4c-.2 0-.4-.1-.6-.3-.3-.3-.3-.9 0-1.2 1-1 .3-2 0-2.3-.3-.3-.3-.9 0-1.2.4-.4.9-.4 1.3 0 1 1 1.7 3 0 4.7-.2.2-.4.3-.7.3"/></symbol><symbol viewBox="-305 397 14 14" id="local"><title>local</title><path d="m-300 409v-1h-1v1h-1v1h8v-1h-1v-1h-1v1h-4m8-2v-8h-12v8h4v1h1v-1h2v1h1v-1h4m-11-1v-6h10v6h-10"/></symbol><symbol viewBox="0 0 26 22" id="local_album"><title>local_album</title><path fill-rule="evenodd" d="m13 9c-1.104 0-2 .896-2 2s.896 2 2 2 2-.896 2-2-.896-2-2-2m0 3c-.553 0-1-.448-1-1 0-.552.447-1 1-1s1 .448 1 1c0 .552-.447 1-1 1m0-8c-3.866 0-7 3.134-7 7 0 3.865 3.134 7 7 7s7-3.135 7-7c0-3.866-3.134-7-7-7m0 13c-3.313 0-6-2.687-6-6 0-3.314 2.687-6 6-6s6 2.686 6 6c0 3.313-2.687 6-6 6"/></symbol><symbol viewBox="0 0 26 22" id="local_artist"><title>local_artist</title><path fill-rule="evenodd" d="m15.896 11.746c.68-.717 1.104-1.68 1.104-2.746 0-2.209-1.791-4-4-4s-4 1.791-4 4c0 1.066.424 2.029 1.104 2.746-1.85 1.023-3.104 2.991-3.104 5.254h1c0-2.419 1.718-4.436 4-4.899v-1.013c-.306.053-.604.126-.893.222-.67-.55-1.107-1.375-1.107-2.31 0-1.657 1.343-3 3-3 1.656 0 3 1.343 3 3 0 .935-.437 1.759-1.107 2.31-.288-.096-.587-.169-.893-.222v1.013c2.282.464 4 2.48 4 4.899h1c0-2.263-1.254-4.231-3.104-5.254"/></symbol><symbol viewBox="0 0 26 22" id="local_folder"><title>local_folder</title><path d="m18.3 7.984l-5.3.008h-.406l-.295-.291-1.952-1.923-.447-.44.146-.276.033-.062.983.983-2.481.026-.518.006-.308.032c-.11.012-.064.04-.105.044-.114.05-.345.18-.44.347-.11.17-.165.359-.176.565l.007 1.241.015 2.481.015 2.481.007 1.241.003.62v.155.038.02c-.002-.044.005.116-.005-.099l.005.078c.009.084.011.249.025.267.017.003.007-.002.008.019.021.033.035.068.046.107.047.065.094.128.156.184.066.047.135.092.214.117.094.023.108.039.369.035l2.481-.004 4.962-.007 2.481-.003h.31.155c-.042.003.109-.005-.093.005l.02-.002.038-.004.077-.008c.305-.027.153-.042.25-.064.147-.071.273-.199.338-.351.027-.079.046-.157.051-.242l.006-.598.004-1.241v-2.48l.004-1.24.002-.621v-.31-.078-.039c.003.042-.005-.106.005.09l-.002-.019-.015-.154c-.023-.328-.343-.633-.694-.632m0-.984c.841-.011 1.61.681 1.682 1.516.037.825 0 1.653.019 2.48v2.481 1.241c-.012.408.046.838-.128 1.225-.157.383-.46.703-.832.881-.374.191-.804.18-1.213.177h-2.481-4.962-2.483c-.828.082-1.69-.479-1.855-1.316-.094-.821-.026-1.653-.047-2.479v-2.481-2.481c.029-.808-.145-1.707.375-2.403.235-.343.594-.587.979-.725.391-.152.817-.109 1.227-.116h2.481v.063l1.938 1.937h5.3"/></symbol><symbol viewBox="0 0 26 22" id="local_list"><title>local_list</title><path d="M8,6v1h10V6H8 M8,10h10V9H8V10 M8,13h10v-1H8V13 M8,16h10v-1H8V16"/></symbol><symbol viewBox="0 0 10 10" id="local_ok"><title>local_ok</title><path d="m9 1v1h-1v1h-1v1h-1v1h-1v1h-1v1h-1v-1h-1v-1h-1v-1h-1v2h1v1h1v1h1v1h1v-1h1v-1h1v-1h1v-1h1v-1h1v-1h1v-2z"/></symbol><symbol viewBox="0 0 20 20" id="lrc_down"><title>lrc_down</title><path fill-rule="evenodd" d="m20 10c0-5.522-4.477-10-10-10-5.522 0-10 4.478-10 10s4.478 10 10 10c5.523 0 10-4.478 10-10m-6.302-2.867l-3.066 3c-.19.186-.435.299-.71.285-.266-.003-.519-.111-.704-.301l-2.931-3c-.387-.394-.379-1.028.016-1.413.396-.386 1.029-.379 1.414.017l2.232 2.285 2.351-2.301c.194-.19.447-.285.699-.285.26 0 .519.101.715.301.386.393.379 1.026-.016 1.413m0 4.997l-3.066 3c-.19.186-.435.303-.71.285-.266-.002-.519-.111-.704-.301l-2.932-3c-.386-.395-.378-1.028.017-1.414.396-.385 1.029-.378 1.415.017l2.231 2.287 2.351-2.303c.194-.19.446-.285.699-.285.26 0 .519.101.715.3.386.394.38 1.027-.016 1.414"/></symbol><symbol viewBox="0 0 20 20" id="lrc_help"><title>lrc_help</title><path fill-rule="evenodd" d="m10 0c-5.523 0-10 4.477-10 10 0 5.523 4.477 10 10 10 5.522 0 10-4.477 10-10 0-5.523-4.478-10-10-10m.002 16.989c-.558 0-1.01-.445-1.01-.995 0-.551.452-.996 1.01-.996s1.01.445 1.01.996c0 .55-.453.995-1.01.995m1.017-4.129c0 .748 0 .1 0 .703 0 .601-1.975.601-1.975.072v-1.575c0-.623 2.969-2.677 2.969-4.153 0-1.038-.654-1.828-2.024-1.828-1.371 0-1.982 1.578-1.982 2.326 0 1.216-2.052 1.507-2.052.125 0-.914.282-4.551 3.992-4.551 3.045 0 4.073 2.208 4.073 4.053 0 1.849-3 4.08-3 4.828"/></symbol><symbol viewBox="0 0 20 20" id="lrc_speed"><title>lrc_speed</title><path fill-rule="evenodd" d="m10 0c-5.522 0-10 4.477-10 10 0 5.522 4.478 10 10 10 5.523 0 10-4.478 10-10 0-5.523-4.477-10-10-10m3.714 14.281c-.196.199-.455.3-.715.3-.252 0-.505-.095-.699-.284l-2.351-2.302-2.232 2.285c-.386.396-1.018.402-1.414.018-.395-.386-.402-1.02-.017-1.414l2.931-3c.185-.19.438-.298.704-.301.275-.014.521.1.71.285l3.066 3c.396.387.403 1.02.017 1.414m0-4.997c-.196.199-.455.3-.715.3-.253 0-.505-.095-.699-.285l-2.351-2.302-2.232 2.286c-.386.395-1.018.402-1.414.017-.394-.386-.402-1.018-.017-1.414l2.931-3c.186-.19.439-.298.705-.301.275-.018.521.1.71.286l3.066 3c.396.386.402 1.019.016 1.413"/></symbol><symbol viewBox="0 0 20 20" id="lrc_up"><title>lrc_up</title><path fill-rule="evenodd" d="m10 0c-5.522 0-10 4.477-10 10 0 5.522 4.478 10 10 10 5.523 0 10-4.478 10-10 0-5.523-4.477-10-10-10m3.714 14.281c-.196.199-.455.3-.715.3-.252 0-.505-.095-.699-.284l-2.351-2.302-2.232 2.285c-.386.396-1.018.402-1.414.018-.395-.386-.402-1.02-.017-1.414l2.931-3c.185-.19.438-.298.704-.301.275-.014.521.1.71.285l3.066 3c.396.387.403 1.02.017 1.414m0-4.997c-.196.199-.455.3-.715.3-.253 0-.505-.095-.699-.285l-2.351-2.302-2.232 2.286c-.386.395-1.018.402-1.414.017-.394-.386-.402-1.018-.017-1.414l2.931-3c.186-.19.439-.298.705-.301.275-.018.521.1.71.286l3.066 3c.396.386.402 1.019.016 1.413"/></symbol><symbol viewBox="0 0 18 10" id="lv"><title>lv</title><path d="m16 3.3c.8 0 .8-.8 0-.8h-1.8c-.4 0-.6.2-.6.4 0 .2.2.4.6.4h.1l-1.3 3.3-1.3-3.3h.3c.8 0 .8-.8 0-.8h-2.5c-.4 0-.5.2-.6.4 0 .2.2.4.6.4h.1l2.9 6.7 3.5-6.7m-10.8 5.9h-.4c-.9 0-1.1-.8-1.1-1.4l.7-5.3c.1-.5.2-1.2 1-1.7.8 0 .8-.8 0-.8h-3.9c-.4 0-.6.2-.7.4 0 .2.2.4.6.4.8 0 .8.8.7 1.7l-.6 5c0 .9-.2 1.7-.9 1.7-.8 0-.8.8 0 .8h7.6c0 0 0 0 .8-3.5-.9 1.8-1.3 2.7-3.8 2.7m11.8-1.2c-.6 0-1 .4-1 1s.4 1 1 1 1-.4 1-1-.4-1-1-1"/></symbol><symbol viewBox="0 0 18 18" id="mobile"><title>mobile</title><path d="m13 1h-8c-1.7 0-3 1.3-3 3v10c0 1.7 1.3 3 3 3h8c1.7 0 3-1.3 3-3v-10c0-1.7-1.3-3-3-3m2 10.5v2.5c0 1.1-.9 2-2 2h-8c-1.1 0-2-.9-2-2v-2.5-7.5c0-1.1.9-2 2-2h8c1.1 0 2 .9 2 2v7.5m-6 1.5c-.6 0-1 .4-1 1s.4 1 1 1 1-.4 1-1-.4-1-1-1m5.5-2h-11c-.3 0-.5.2-.5.5 0 .3.2.5.5.5h11c.3 0 .5-.2.5-.5 0-.3-.2-.5-.5-.5"/></symbol><symbol viewBox="0 0 5 10" id="more_arr"><title>more_arr</title><path fill-rule="evenodd" d="M0,2v1h1V2H0z M1,3v1h1V3H1z M2,4v1h1V4H2z M3,5v1h1V5H3z M2,7h1V6H2V7z M1,8h1V7
		H1V8z M0,9h1V8H0V9z"/></symbol><symbol viewBox="0 0 7 13" id="msg_back"><title>msg_back</title><path fill-rule="evenodd" d="m6 0v1h-1v1h-1v1h-1v1h-1v1h-1v1h-1v1h1v1h1v1h1v1h1v1h1v1h1v1h1v-1-1h-1v-1h-1v-1h-1v-1h-1v-1h-1v-1h1v-1h1v-1h1v-1h1v-1h1v-1-1z"/></symbol><symbol viewBox="0 0 11 15" id="msg_before"><title>msg_before</title><path fill-rule="evenodd" d="M5,8.048V15c0-4.723,1.807-8.924,5.205-11.671C6.539,0.009,0.043,0,0.043,0
	C5.275,2.84,5,8.048,5,8.048z"/></symbol><symbol viewBox="0 0 14 14" id="music_note"><title>music_note</title><path d="m10.4 6.1c0-4.4-2-4.9-2.4-5v-.6c0-.3-.2-.5-.5-.5-.3 0-.5.2-.5.5v7.8c-.7-.3-1.8-.2-2.8.1-1.6.4-2.4 1.5-2 2.6.5 1.6 2.5 1.4 3.7 1.1 1.3-.4 2-1.2 2.1-2.1v-.1c0 0 0-.1 0-.1v-6.7c1 .1 2.4 1.1 2.4 3" fill-rule="evenodd"/></symbol><symbol viewBox="-288 411.9 18 18" id="mv"><title>mv</title><path d="m-273 414.9h-12c-1.1 0-2 .9-2 2v8c0 1.1.9 2 2 2h12c1.1 0 2-.9 2-2v-8c0-1.1-.9-2-2-2m1 10c0 .6-.4 1-1 1h-12c-.6 0-1-.4-1-1v-8c0-.6.4-1 1-1h12c.6 0 1 .4 1 1v8m-9-1l5-3-5-3v6" fill-rule="evenodd"/></symbol><symbol viewBox="0 0 8 14" id="mv_back"><title>mv_back</title><path fill-rule="evenodd" d="m2 6h1v-1h1v-1h1v-1h1v-1h1v-1h1v-1h-2v1h-1v1h-1v1h-1v1h-1v1h-1v1h-1v2h1v1h1v1h1v1h1v1h1v1h1v1h2v-1h-1v-1h-1v-1h-1v-1h-1v-1h-1v-1h-1z"/></symbol><symbol viewBox="0 0 14 14" id="mv_big"><title>mv_big</title><path fill-rule="evenodd" d="m13.5 13h-12.5v-12.5c0-.276-.224-.5-.5-.5s-.5.224-.5.5v13c0 .276.224.5.5.5h13c.276 0 .5-.224.5-.5s-.224-.5-.5-.5m0-13h-7c-.276 0-.5.224-.5.5s.224.5.5.5h5.5l-7 7 1 1 7-7v5.5c0 .276.224.5.5.5s.5-.224.5-.5v-7c0-.276-.224-.5-.5-.5"/></symbol><symbol viewBox="0 0 20 20" id="mv_comment"><title>mv_comment</title><path fill-rule="evenodd" d="m16 5h-13v1h13v-1m-16-4v14c0 0 .745 0 2.02 0-.016 0 .003 3.875-.018 3.906.015-.031 5.06-3.875 5.063-3.906 3 0 11.938 0 11.938 0v-14h-19m18 13h-11.656c0 0-3.355 2.656-3.375 2.625.001-.062.008-2.625 0-2.625-1.159 0-1.969 0-1.969 0v-12h17v12m-7-4h-8v1h8v-1"/></symbol><symbol viewBox="0 0 20 20" id="mv_fav"><title>mv_fav</title><path d="m4 2v.202l.445.297 2 1.333.252.168h.303 10.175c.386 0 .7.314.7.7v11.476c0 .386-.314.699-.7.699h-15.476c-.386 0-.699-.313-.699-.699v-13.176c0-.551.449-1 1-1h2m1-1h-3c-1.105 0-2 .896-2 2v13.176c0 .938.761 1.699 1.699 1.699h15.476c.938 0 1.7-.762 1.7-1.699v-11.476c0-.939-.762-1.7-1.7-1.7h-10.175l-2-1.333v-.667z"/><path fill-rule="evenodd" d="m13 10h-3v-3h-1v3h-3v1h3v3h1v-3h3z"/></symbol><symbol viewBox="0 0 14 14" id="mv_full"><title>mv_full</title><path fill-rule="evenodd" d="m8 1v-1h-8v8h1v-6h1v-1h6m5 5v6h-1v1h-6v1h8v-8h-1m-11-4v1h1v-1h-1m1 1v1h1v-1h-1m5 5v1h1v-1h-1m-4-4v1h1v-1h-1m2 2v-1h-1v1h1m3 3v1h1v-1h-1m1 1v1h1v-1h-1m1 1v1h1v-1h-1"/></symbol><symbol viewBox="0 0 24 24" id="mv_pause"><title>mv_pause</title><path fill-rule="evenodd" d="M9,18h1V6H9V18z M14,6v12h1V6H14z"/></symbol><symbol viewBox="0 0 24 24" id="mv_play"><title>mv_play</title><path fill-rule="evenodd" d="m9 6l8 6-8 6v-12"/></symbol><symbol viewBox="0 0 66 66" id="mv_play_l"><title>mv_play_l</title><path fill-rule="evenodd" d="m29.12 18.774c0 0 0 0 15.963 10.351 5.23 3.39 5.23 4.373 0 7.763-15.963 10.35-15.963 10.35-15.963 10.35-2.456 1.294-4.123 1.294-4.123-2.588 0-2.588 0-20.687 0-23.289 0-3.881 1.667-3.881 4.123-2.587"/></symbol><symbol viewBox="0 0 14 12" id="mv_quality"><title>mv_quality</title><path d="M14,10V0H0v10h6v1H2v1h10v-1H8v-1H14z M1,9V1h12v8H1z"/></symbol><symbol viewBox="0 0 59 50" id="mv_replay"><title>mv_replay</title><path fill-rule="evenodd" d="m34.09 0c-13.422 0-24.332 10.66-24.859 24h-9.233l11.175 16.87 11.175-16.87h-9.132c.523-11.13 9.653-20 20.874-20 11.555 0 20.923 9.402 20.923 21 0 11.598-9.368 21-20.923 21-1.018 0-2.01-.098-2.989-.239v.239c-1.102 0-1.993.895-1.993 2 0 1.104.892 2 1.993 2 .243 0 .473-.051.688-.131.76.075 1.522.131 2.301.131 13.756 0 24.908-11.193 24.908-25 0-13.807-11.152-25-24.908-25"/></symbol><symbol viewBox="0 0 14 14" id="mv_revert"><title>mv_revert</title><path fill-rule="evenodd" d="m14 9v-1h-6v6h1v-4h1v-1h4m-9-5h-1v1h-4v1h6v-6h-1v4m6 7v-1h-1v1h1m1 1v-1h-1v1h1m-12-12v1h1v-1h-1m13 13v-1h-1v1h1m1 1v-1h-1v1h1m-13-13v1h1v-1h-1m1 1v1h1v-1h-1m1 1v1h1v-1h-1"/></symbol><symbol viewBox="0 0 20 20" id="mv_share"><title>mv_share</title><path d="m17.966 4.667l-4.982-4.667v3.326c-2.627.129-6.747 3.32-6.984 7.84.568-3 3.832-4.971 6.984-5.04v3.204l4.982-4.665"/><path d="m3.62 1.01c-.567.024-1.131.288-1.389.776l-.101.175c-.007.048-.021.091-.041.134l-.035.064-.017.165-.034.336v1.251 5.405 5.405 1.352c.003.103-.004.243.006.316l.023.213c-.003.146.08.27.102.41.219.5.746.939 1.216.977l.336.035.021.002.011.002c.026.002-.188-.001-.092-.006h.042.084.169.675 1.351 2.703 5.405l1.344-.002c.271-.033.554-.059.783-.227.243-.131.445-.342.583-.586l.103-.186c.019-.055.024-.098.046-.145.055-.027.063-.35.088-.549l.002-5.307h1l-.007 5.404c-.036.893-.507 1.795-1.307 2.23-.789.502-1.75.34-2.635.365h-5.404-2.703c-.9-.016-1.803.039-2.7-.037-.908-.098-1.673-.775-2.037-1.588-.329-.854-.166-1.785-.207-2.676v-5.402-5.405c.026-.885-.132-1.845.366-2.635.224-.39.558-.717.957-.926.194-.119.406-.192.625-.248.106-.04.218-.053.331-.06l.168-.016"/><path d="m3.624 1.01h.003.004.008.031.062.123.245.492.983 1.968v-1h-1.968-.983-.492c-.082-.004-.164.011-.246-.001l-.402.026c.021.139-.021-.094 0 0"/></symbol><symbol viewBox="0 0 10 10" id="mv_sml"><title>mv_sml</title><path d="M5,5h1V3H5V2H4v4h1V5z M0,0v8h10V0H0z M9,7H1V1h8V7z M2,10h6V9H2V10z"/></symbol><symbol viewBox="0 0 16 16" id="name_delete"><title>name_delete</title><path fill-rule="evenodd" d="m10 8v-1h1v-1h1v-1h-2v1h-1v1h-2v-1h-1v-1h-2v1h1v1h1v1h1v1h-1v1h-1v1h-1v1h2v-1h1v-1h2v1h1v1h2v-1h-1v-1h-1v-1h-1v-1z"/></symbol><symbol viewBox="0 0 5 10" id="page_next"><title>page_next</title><path fill-rule="evenodd" d="m4 4v-1h-1v-1h-1v-1h-1v-1h-1v2h1v1h1v1h1v2h-1v1h-1v1h-1v2h1v-1h1v-1h1v-1h1v-1h1v-2z"/></symbol><symbol viewBox="0 0 5 10" id="page_pre"><title>page_pre</title><path fill-rule="evenodd" d="m4 0v1h-1v1h-1v1h-1v1h-1v2h1v1h1v1h1v1h1v1h1v-2h-1v-1h-1v-1h-1v-2h1v-1h1v-1h1v-2z"/></symbol><symbol viewBox="0 0 35 17" id="play_128"><title>play_128</title><g id="play_128-0"><path id="play_128-1" d="m6 5h-1c0 .497-.687 1-2 1v1c.862 0 1.517-.187 2-.469v6.469h-2v1h5v-1h-2v-8m4 3h1v-2h-1v2m1-3v1h4v-1h-4m4 4h1v-3h-1v3m-1 1h1v-1h-1v1m-1 1h1v-1h-1v1m-2 1h2v-1h-2v1m-1 2h6v-2h-1v1h-4v-1h-1v2m8-8v3h1v-3h-1m1 4h4v-1h-4v1m4-5h-4v1h4v-1m0 4h1v-3h-1v3m-5 1v3h1v-3h-1m1 4h4v-1h-4v1m5-1v-3h-1v3h1m4-7h-2v1h1v6h-1v1h3v-1h-1v-1h2v-1h-2v-5m2 5h1v-1h1v-1h-2v2m2 3v-1h-1v-1h-1v2h2m1.5-12h-32c-.828 0-1.5.672-1.5 1.5v12c0 .828.672 1.5 1.5 1.5h32c.828 0 1.5-.672 1.5-1.5v-12c0-.828-.672-1.5-1.5-1.5m.5 13.5c0 .276-.224.5-.5.5h-32c-.276 0-.5-.224-.5-.5v-12c0-.276.224-.5.5-.5h32c.276 0 .5.224.5.5v12"/></g></symbol><symbol viewBox="0 0 35 17" id="play_128arr"><title>play_128arr</title><g id="play_128arr-0"><path id="play_128arr-1" d="m3 13v1h5v-1h-2v-8h-1c0 .497-.687 1-2 1v1c.862 0 1.517-.187 2-.469v6.469h-2m7-5h1v-2h-1v2m1-3v1h4v-1h-4m5 4v-3h-1v3h1m-2 1h1v-1h-1v1m-1 1h1v-1h-1v1m-2 1h2v-1h-2v1m-1 2h6v-2h-1v1h-4v-1h-1v2m8-8v3h1v-3h-1m1 4h4v-1h-4v1m0-5v1h4v-1h-4m5 4v-3h-1v3h1m-6 1v3h1v-3h-1m1 4h4v-1h-4v1m5-1v-3h-1v3h1m2 0v1h3v-1h-1v-1h2v-1h-2v-5h-2v1h1v6h-1m5-3h1v-1h-2v2h1v-1m1 4v-1h-1v-1h-1v2h2m-14-14l-3 3h6l-3-3m15.5 2h-11.5v1h11.5c.276 0 .5.224.5.5v12c0 .276-.224.5-.5.5h-32c-.276 0-.5-.224-.5-.5v-12c0-.276.224-.5.5-.5h12.5v-1h-12.5c-.828 0-1.5.672-1.5 1.5v12c0 .828.672 1.5 1.5 1.5h32c.828 0 1.5-.672 1.5-1.5v-12c0-.828-.672-1.5-1.5-1.5"/></g></symbol><symbol viewBox="0 0 35 17" id="play_192"><title>play_192</title><g id="play_192-0"><path id="play_192-1" d="m6 5h-1c0 .497-.687 1-2 1v1c.862 0 1.517-.187 2-.469v6.469h-2v1h5v-1h-2v-8m4 1v4h1v-4h-1m5-1h-4v1h4v-1m0 5h-4v1h4v2h1v-7h-1v4m-5 2v1h1v-1h-1m1 2h4v-1h-4v1m7-6h1v-2h-1v2m1-3v1h4v-1h-4m4 4h1v-3h-1v3m-1 1h1v-1h-1v1m-1 1h1v-1h-1v1m-2 1h2v-1h-2v1m-1 2h6v-2h-1v1h-4v-1h-1v2m10-8h-2v1h1v6h-1v1h3v-1h-1v-1h2v-1h-2v-5m2 5h1v-1h1v-1h-2v2m2 3v-1h-1v-1h-1v2h2m1.5-12h-32c-.828 0-1.5.672-1.5 1.5v12c0 .828.672 1.5 1.5 1.5h32c.828 0 1.5-.672 1.5-1.5v-12c0-.828-.672-1.5-1.5-1.5m.5 13.5c0 .276-.224.5-.5.5h-32c-.276 0-.5-.224-.5-.5v-12c0-.276.224-.5.5-.5h32c.276 0 .5.224.5.5v12"/></g></symbol><symbol viewBox="0 0 35 17" id="play_192arr"><title>play_192arr</title><g id="play_192arr-0"><path id="play_192arr-1" d="m3 13v1h5v-1h-2v-8h-1c0 .497-.687 1-2 1v1c.862 0 1.517-.187 2-.469v6.469h-2m7-7v4h1v-4h-1m1-1v1h4v-1h-4m0 5v1h4v2h1v-7h-1v4h-4m-1 2v1h1v-1h-1m1 2h4v-1h-4v1m7-6h1v-2h-1v2m1-3v1h4v-1h-4m5 4v-3h-1v3h1m-2 1h1v-1h-1v1m-1 1h1v-1h-1v1m-2 1h2v-1h-2v1m-1 2h6v-2h-1v1h-4v-1h-1v2m8-1v1h3v-1h-1v-1h2v-1h-2v-5h-2v1h1v6h-1m5-3h1v-1h-2v2h1v-1m1 4v-1h-1v-1h-1v2h2m-14-14l-3 3h6l-3-3m15.5 2h-11.5v1h11.5c.276 0 .5.224.5.5v12c0 .276-.224.5-.5.5h-32c-.276 0-.5-.224-.5-.5v-12c0-.276.224-.5.5-.5h12.5v-1h-12.5c-.828 0-1.5.672-1.5 1.5v12c0 .828.672 1.5 1.5 1.5h32c.828 0 1.5-.672 1.5-1.5v-12c0-.828-.672-1.5-1.5-1.5"/></g></symbol><symbol viewBox="0 0 36 17" id="play_320"><title>play_320</title><g id="play_320-0"><path id="play_320-1" d="m3 7h1v-1h-1v1m1-2v1h4v-1h-4m4 4h1v-3h-1v3m-3 1h3v-1h-3v1m4 3v-3h-1v3h1m-5 1h4v-1h-4v1m-1-2v1h1v-1h-1m8-4h1v-2h-1v2m1-3v1h4v-1h-4m4 4h1v-3h-1v3m-1 1h1v-1h-1v1m-1 1h1v-1h-1v1m-2 1h2v-1h-2v1m-1 2h6v-2h-1v1h-4v-1h-1v2m8-8v7h1v-7h-1m5-1h-4v1h4v-1m0 8h1v-7h-1v7m-4 1h4v-1h-4v1m9-8h-2v1h1v6h-1v1h3v-1h-1v-1h2v-1h-2v-5m2 5h1v-1h1v-1h-2v2m2 3v-1h-1v-1h-1v2h2m1.5-12h-33c-.828 0-1.5.672-1.5 1.5v12c0 .828.672 1.5 1.5 1.5h33c.828 0 1.5-.672 1.5-1.5v-12c0-.828-.672-1.5-1.5-1.5m.5 13.5c0 .276-.224.5-.5.5h-33c-.276 0-.5-.224-.5-.5v-12c0-.276.224-.5.5-.5h33c.276 0 .5.224.5.5v12"/></g></symbol><symbol viewBox="0 0 36 17" id="play_320arr"><title>play_320arr</title><g id="play_320arr-0"><path id="play_320arr-1" d="m3 7h1v-1h-1v1m1-2v1h4v-1h-4m5 1h-1v3h1v-3m-4 3v1h3v-1h-3m4 4v-3h-1v3h1m-5 1h4v-1h-4v1m-1-2v1h1v-1h-1m8-4h1v-2h-1v2m1-3v1h4v-1h-4m5 1h-1v3h1v-3m-1 3h-1v1h1v-1m-1 1h-1v1h1v-1m-1 1h-2v1h2v-1m-3 1v2h6v-2h-1v1h-4v-1h-1m8-6v7h1v-7h-1m1-1v1h4v-1h-4m5 8v-7h-1v7h1m-5 1h4v-1h-4v1m7-1v1h3v-1h-1v-1h2v-1h-2v-5h-2v1h1v6h-1m5-3h1v-1h-2v2h1v-1m1 4v-1h-1v-1h-1v2h2m-15-14l-3 3h6l-3-3m16.5 2h-12.5v1h12.5c.276 0 .5.224.5.5v12c0 .276-.224.5-.5.5h-33c-.276 0-.5-.224-.5-.5v-12c0-.276.224-.5.5-.5h12.5v-1h-12.5c-.828 0-1.5.672-1.5 1.5v12c0 .828.672 1.5 1.5 1.5h33c.828 0 1.5-.672 1.5-1.5v-12c0-.828-.672-1.5-1.5-1.5"/></g></symbol><symbol viewBox="0 0 30 17" id="play_cloud"><title>play_cloud</title><g id="play_cloud-0"><path id="play_cloud-1" d="m28.5 2h-27c-.828 0-1.5.672-1.5 1.5v12c0 .828.672 1.5 1.5 1.5h27c.828 0 1.5-.672 1.5-1.5v-12c0-.828-.672-1.5-1.5-1.5m.5 13.5c0 .276-.224.5-.5.5h-27c-.276 0-.5-.224-.5-.5v-12c0-.276.224-.5.5-.5h27c.276 0 .5.224.5.5v12m-17-10.5h-8v1h8v-1m-9 4h4v1h1v-1h5v-1h-10v1m3 2h1v-1h-1v1m-1 1h1v-1h-1v1m-1 2h8v-2h-1v1h-6v-1h-1v2m6-3v1h1v-1h-1m5 0h1v-1h-1v1m1-2v1h1v-1h-1m9 1h-1v-1h-1v1h-2v-2h3v1h1v-1h1v-1h-1v-2h-4v-1h-1v1h-3v2h-1v1h1v1h1v-1h2v2h-3v3h-2v1h12v-1h-2v-3m-3-4h2v1h-2v-1m-4 1v-1h3v1h-3m1 6h-1v-2h1v2m3 0h-2v-2h2v2m2 0h-1v-2h1v2"/></g></symbol><symbol viewBox="0 0 30 17" id="play_local"><title>play_local</title><g id="play_local-0"><path id="play_local-1" d="m9 9h1v-1h3v-1h-4v-2h-1v2h-4v1h3v1h1v3h-3v1h3v2h1v-2h3v-1h-3v-3m-6 4h1v-1h-1v1m1-2v1h1v-1h-1m2-1h-1v1h1v-1m1-1h-1v1h1v-1m4 1v-1h-1v1h1m1 1v-1h-1v1h1m0 0v1h1v-1h-1m1 2h1v-1h-1v1m5-8h-1v3h-1v1h1v4h-1v1h3v-1h-1v-4h1v-1h-1v-3m6 0h-1v3h-2v-3h-1v9h7v-2h-1v1h-5v-4h2v2h1v-3h2v3h1v-4h-3v-2m4.5-3h-27c-.828 0-1.5.672-1.5 1.5v12c0 .828.672 1.5 1.5 1.5h27c.828 0 1.5-.672 1.5-1.5v-12c0-.828-.672-1.5-1.5-1.5m.5 13.5c0 .276-.224.5-.5.5h-27c-.276 0-.5-.224-.5-.5v-12c0-.276.224-.5.5-.5h27c.276 0 .5.224.5.5v12"/></g></symbol><symbol viewBox="0 0 49 17" id="play_localsq"><title>play_localsq</title><g id="play_localsq-0"><path id="play_localsq-1" d="m7 9h-1v1h1v-1m4 1v-1h-1v1h1m-8 3h1v-1h-1v1m3-3h-1v1h1v-1m7 3h1v-1h-1v1m-1-2v-1h-1v1h1m-8 0v1h1v-1h-1m14-6h-1v3h-1v1h1v4h-1v1h3v-1h-1v-4h1v-1h-1v-3m-9 4h1v-1h3v-1h-4v-2h-1v2h-4v1h3v1h1v3h-3v1h3v2h1v-2h3v-1h-3v-3m15-4h-1v3h-2v-3h-1v9h7v-2h-1v1h-5v-4h2v2h1v-3h2v3h1v-4h-3v-2m-12 6v1h1v-1h-1m35.5-9h-46c-.828 0-1.5.672-1.5 1.5v12c0 .828.672 1.5 1.5 1.5h46c.828 0 1.5-.672 1.5-1.5v-12c0-.828-.672-1.5-1.5-1.5m.5 13.5c0 .276-.224.5-.5.5h-46c-.276 0-.5-.224-.5-.5v-12c0-.276.224-.5.5-.5h46c.276 0 .5.224.5.5v12m-19-9.5v3c0 .551.448 1 1 1h5v3h-6v1h6c.552 0 1-.449 1-1v-3c0-.551-.448-1-1-1h-5v-3h6v-1h-6c-.552 0-1 .449-1 1m15.85 7.143c.093-.196.15-.412.15-.643v-6c0-.828-.672-1.5-1.5-1.5h-4c-.828 0-1.5.672-1.5 1.5v6c0 .828.672 1.5 1.5 1.5h4c.231 0 .448-.057.643-.15l.503.503c.098.098.226.147.354.147s.256-.049.354-.146c.195-.195.195-.512 0-.707l-.504-.504m-.85-.85l-.646-.646c-.195-.195-.512-.195-.707 0s-.195.512 0 .707l.646.646h-3.793c-.276 0-.5-.224-.5-.5v-6c0-.276.224-.5.5-.5h4c.276 0 .5.224.5.5v5.793"/></g></symbol><symbol viewBox="0 0 24 17" id="play_mv"><title>play_mv</title><g id="play_mv-0"><path id="play_mv-1" d="m7.5 12.419l-2.473-7.419h-1.027v9h1v-5.919l2.025 5.919h.949l2.026-5.919v5.919h1v-9h-1.027l-2.473 7.419m9-.457l-2.333-6.962h-1.085l2.944 9h.949l2.948-9h-1.108l-2.315 6.962m6-9.962h-21c-.828 0-1.5.672-1.5 1.5v12c0 .828.672 1.5 1.5 1.5h21c.828 0 1.5-.672 1.5-1.5v-12c0-.828-.672-1.5-1.5-1.5m.5 13.5c0 .276-.224.5-.5.5h-21c-.276 0-.5-.224-.5-.5v-12c0-.276.224-.5.5-.5h21c.276 0 .5.224.5.5v12"/></g></symbol><symbol viewBox="0 0 24 15" id="play_sq"><title>play_sq</title><path d="m17 9v1h1v-1h-1m1 1v1h-4v1h6v-8h-1v6h-1m-18-10v15h24v-15h-24m23 14h-22v-13h22v13m-4-11h-5v1h5v-1m-5 1h-1v7h1v-7m-3 4h-1v3h-6v1h7v-4m0-5h-6v1h6v-1m-6 4v1h5v-1h-5m-1-3v3h1v-3h-1m17 9v-1h-1v1h1" fill-rule="evenodd"/></symbol><symbol viewBox="0 0 11 9" id="play_sq_slt"><title>play_sq_slt</title><path d="m10.8 1.1c-.2-.1-.6-.1-.8 0l-6 6-3.1-3.1c-.2-.2-.6-.2-.8 0-.1.2-.1.5 0 .7l3.5 3.5c.2.2.5.2.7 0l6.4-6.4c.2-.1.2-.5.1-.7" fill-rule="evenodd"/></symbol><symbol viewBox="0 0 24 17" id="play_tsq"><title>play_tsq</title><path d="m17 11v1h1v-1h-1m-6.5-5c.3 0 .5-.2.5-.5 0-.3-.2-.5-.5-.5h-6c-.3 0-.5.2-.5.5 0 .3.2.5.5.5h-.5v3h.5c-.3 0-.5.2-.5.5 0 .3.2.5.5.5h5.5v3h-5.5c-.3 0-.5.2-.5.5 0 .3.2.5.5.5h5.5v-.5c0 .3.2.5.5.5s.5-.2.5-.5v-4c0-.3-.2-.5-.5-.5s-.5.2-.5.5v-.5h-5v-3h5.5m9.5 1c0-1.1-.9-2-2-2h-3c-1.1 0-2 .9-2 2v5c0 1.1.9 2 2 2h3c.4 0 .7-.1 1-.3v.3h1v-1h-.3c.2-.3.3-.6.3-1v-5m-1 5h-1v1h-3c-.6 0-1-.4-1-1v-5c0-.6.4-1 1-1h3c.6 0 1 .4 1 1v5"/><path d="m22 2h-20c-1.1 0-2 .9-2 2v11c0 1.1.9 2 2 2h20c1.1 0 2-.9 2-2v-11c0-1.1-.9-2-2-2m1 14h-22v-13h22v13" fill-rule="evenodd"/></symbol><symbol viewBox="0 0 18 18" id="playall"><title>playall</title><path d="m9 18c-4.962 0-9-4.04-9-9 0-4.962 4.04-9 9-9 4.963 0 9 4.04 9 9 0 4.963-4.04 9-9 9m0-17c-4.411 0-8 3.589-8 8s3.589 8 8 8 8-3.589 8-8-3.589-8-8-8"/><path fill-rule="evenodd" d="m7 5l6 4-6 4v-8"/></symbol><symbol viewBox="0 0 25 14" id="program"><title>program</title><path d="m24 0h-23-1v1 12 1h1 23 1v-1-12-1h-1m0 13h-23v-12h23v12m-18-8h1v-1h2v1h1v-1h3v-1h-3v-1h-1v1h-2v-1h-1v1h-3v1h3v1m-2 1v1h3v5h1v-5h3v2h-1v1h1 1v-3-1h-1-7m17 6h1v-9-1h-1-5-1v3 1 2 1 2 1h1 5m-5-9h5v2h-5v-2m0 3h5v2h-5v-2m0 3h5v2h-5v-2"/></symbol><symbol viewBox="0 0 29 29" id="pub_music"><title>pub_music</title><path fill-rule="evenodd" d="m20.5 8c-.121 0-.229.048-.315.12-.062-.012-.12-.037-.185-.037l-9 .917c-.099 0-.189.029-.28.057-.067-.034-.14-.057-.22-.057-.276 0-.5.224-.5.5v8.909c-.419-.253-.935-.409-1.5-.409-1.381 0-2.5.896-2.5 2s1.119 2 2.5 2c1.38 0 2.5-.896 2.5-2 0-.105-.019-.207-.039-.308.025-.059.039-.124.039-.192v-7.5l9-.917v5.326c-.419-.253-.935-.409-1.5-.409-1.381 0-2.5.896-2.5 2s1.119 2 2.5 2 2.5-.896 2.5-2c0-.105-.02-.207-.039-.308.025-.059.039-.124.039-.192v-9c0-.276-.225-.5-.5-.5"/></symbol><symbol viewBox="0 0 14 14" id="pub_play"><title>pub_play</title><path d="m7 0c-3.9 0-7 3.1-7 7 0 3.9 3.1 7 7 7 3.9 0 7-3.1 7-7 0-3.9-3.1-7-7-7m0 13c-3.3 0-6-2.7-6-6 0-3.3 2.7-6 6-6 3.3 0 6 2.7 6 6 0 3.3-2.7 6-6 6m-2-3l5-3-5-3v6" fill-rule="evenodd"/></symbol><symbol viewBox="0 0 14 14" id="pub_rdi"><title>pub_rdi</title><path d="m7.5 0c-3 0-5.5 2.5-5.5 5.5 0 1.3.5 2.5 1.3 3.5h1.4c-1-.8-1.7-2.1-1.7-3.5 0-2.5 2-4.5 4.5-4.5s4.5 2 4.5 4.5c0 2-1.3 3.6-3 4.2v1c2.3-.7 4-2.8 4-5.3 0-2.9-2.5-5.4-5.5-5.4m2.5 7.8c0-3.7-2-4.3-2-4.3 0-.3-.2-.5-.5-.5-.3 0-.5.2-.5.5v6.5c-.5-.1-1.2-.1-1.7 0-1.5.5-1.6 1.5-1.2 2.2.3.7 1.7.8 2.5.6 1-.2 1.4-.7 1.4-1.6v-5.9c.3 0 2 .9 2 2.5" fill-rule="evenodd"/></symbol><symbol viewBox="0 0 14 14" id="pub_song"><title>pub_song</title><path d="m10.4 6.1c0-4.4-2-4.9-2.4-5v-.6c0-.3-.2-.5-.5-.5-.3 0-.5.2-.5.5v7.8c-.7-.3-1.8-.2-2.8.1-1.6.4-2.4 1.5-2 2.6.5 1.6 2.5 1.4 3.7 1.1 1.3-.4 2-1.2 2.1-2.1v-.1c0 0 0-.1 0-.1v-6.7c1 .1 2.4 1.1 2.4 3" fill-rule="evenodd"/></symbol><symbol viewBox="0 0 14 14" id="pub_stop"><title>pub_stop</title><path d="m7 0c-3.9 0-7 3.1-7 7 0 3.9 3.1 7 7 7 3.9 0 7-3.1 7-7 0-3.9-3.1-7-7-7m0 13c-3.3 0-6-2.7-6-6 0-3.3 2.7-6 6-6 3.3 0 6 2.7 6 6 0 3.3-2.7 6-6 6m2-9h-4c-.6 0-1 .4-1 1v4c0 .6.4 1 1 1h4c.6 0 1-.4 1-1v-4c0-.6-.4-1-1-1" fill-rule="evenodd"/></symbol><symbol viewBox="-49 3 14 14" id="radio"><title>radio</title><path d="m-42 7c1.7 0 3 1.3 3 3s-1.3 3-3 3c-1.7 0-3-1.3-3-3s1.3-3 3-3"/></symbol><symbol viewBox="0 0 14 14" id="radio_i"><title>radio_i</title><path d="m7 1c3.308 0 6 2.691 6 6s-2.692 6-6 6-6-2.691-6-6 2.692-6 6-6m0-1c-3.866 0-7 3.134-7 7s3.134 7 7 7 7-3.134 7-7-3.134-7-7-7"/><path d="m7 7.98c-.55 0-1-.45-1-1v-2.98c0-.551.45-1 1-1s1 .449 1 1v2.98c0 .55-.45 1-1 1"/><path d="m7 10.98c-.55 0-1-.45-1-1s.45-1 1-1 1 .45 1 1-.45 1-1 1"/></symbol><symbol viewBox="0 0 30 30" id="rank"><title>rank</title><path d="m2 28v-2h2v-15c0-1.7 1.3-3 3-3h1c1.7 0 3 1.3 3 3v15h1v-21c0-1.7 1.3-3 3-3h1c1.7 0 3 1.3 3 3v21h1v-9c0-1.7 1.3-3 3-3h1c1.7 0 3 1.3 3 3v9h2v2h-27m7-16.5c0-.8-.7-1.5-1.5-1.5s-1.5.7-1.5 1.5v14.5h3v-14.5m8-6c0-.8-.7-1.5-1.5-1.5s-1.5.7-1.5 1.5v20.5h3v-20.5m8 12c0-.8-.7-1.5-1.5-1.5s-1.5.7-1.5 1.5v8.5h3v-8.5"/></symbol><symbol viewBox="0 0 16 7" id="rank_down"><title>rank_down</title><path fill-rule="evenodd" d="m9 4v-4h-1v4h-2v1h1v1h1v1h1v-1h1v-1h1v-1z"/></symbol><symbol viewBox="0 0 16 7" id="rank_new"><title>rank_new</title><path fill-rule="evenodd" d="M15,1v4h1V1H15z M1,2V1H0v5h1V3h1V2H1z M2,3v1h1V3H2z M4,4H3v1h1v1h1V1H4V4z M6,6
		h4V5H7V4h3V3H7V2h3V1H6V6z M11,1v4h1V1H11z M12,6h1V5h-1V6z M13,1v4h1V1H13z M14,6h1V5h-1V6z"/></symbol><symbol viewBox="0 0 38 38" id="rank_play"><title>rank_play</title><path fill-rule="evenodd" d="m14 11l13 8-13 8v-16"/></symbol><symbol viewBox="0 0 16 7" id="rank_stop"><title>rank_stop</title><path fill-rule="evenodd" d="m6 3h5v1h-5z"/></symbol><symbol viewBox="0 0 16 7" id="rank_up"><title>rank_up</title><path fill-rule="evenodd" d="m10 2v-1h-1v-1h-1v1h-1v1h-1v1h2v4h1v-4h2v-1z"/></symbol><symbol viewBox="0 0 10 10" id="rdi_sml"><title>rdi_sml</title><path d="m5 0c-2.8 0-5 2.2-5 5 0 1.6.8 3.1 2 4v-1.4c-.6-.7-1-1.6-1-2.6 0-2.2 1.8-4 4-4s4 1.8 4 4c0 1-.4 1.9-1 2.6v1.4c1.2-.9 2-2.3 2-4 0-2.8-2.2-5-5-5m1 3h-1v5.1c-.2-.1-.3-.1-.5-.1-.8 0-1.5.4-1.5 1s.7 1 1.5 1 1.5-.4 1.5-1v-3h1v-2h-1v-1"/></symbol><symbol viewBox="0 0 20 20" id="recycle"><title>recycle</title><path fill-rule="evenodd" d="M15,4V2H6v2H2v1h3v13h11V5h3V4H15z M7,3h7v1H7V3z M15,17H6V5h9V17z M9,7H8v8h1V7
			z M13,7h-1v8h1V7z"/></symbol><symbol viewBox="0 0 6 9" id="right_arrow"><title>right_arrow</title><path fill-rule="evenodd" d="m5 4v-1h-1v-1h-1v-1h-1v-1h-2v1h1v1h1v1h1v1h1v1h-1v1h-1v1h-1v1h-1v1h2v-1h1v-1h1v-1h1v-1h1v-1z"/></symbol><symbol viewBox="0 0 21 20" id="search"><title>search</title><path d="m9.5 13.5c-3.03 0-5.5-2.467-5.5-5.5s2.467-5.5 5.5-5.5 5.5 2.467 5.5 5.5-2.467 5.5-5.5 5.5m0-10c-2.481 0-4.5 2.02-4.5 4.5s2.02 4.5 4.5 4.5 4.5-2.02 4.5-4.5-2.02-4.5-4.5-4.5"/><path transform="matrix(.7071.7071-.7071.7071 13.841-6.236)" d="m11.62 13.09h5.657v1h-5.657z"/></symbol><symbol viewBox="0 0 16 16" id="search_alb"><title>search_alb</title><g id="search_alb-0"><path d="m8 15c-3.86 0-7-3.141-7-7 0-3.86 3.14-7 7-7 3.859 0 7 3.14 7 7 0 3.859-3.141 7-7 7m0-13c-3.309 0-6 2.691-6 6s2.691 6 6 6 6-2.691 6-6-2.691-6-6-6"/><path d="m8 10c-1.103 0-2-.897-2-2 0-1.103.897-2 2-2 1.103 0 2 .897 2 2 0 1.103-.897 2-2 2m0-3c-.551 0-1 .449-1 1s.449 1 1 1 1-.449 1-1-.449-1-1-1"/></g></symbol><symbol viewBox="0 0 8 13" id="search_arr"><title>search_arr</title><path fill-rule="evenodd" d="M0 13 1.883 13 8 6.5 1.883 0 .002 0 6.117 6.5z"/></symbol><symbol viewBox="0 0 16 16" id="search_artist"><title>search_artist</title><path d="m14 13c0 1.1-.9 2-2 2v-1c.6 0 1-.4 1-1 0-2.8-2.2-5-5-5-2.8 0-5 2.2-5 5 0 .6.4 1 1 1v1c-1.1 0-2-.9-2-2 0-2.6 1.6-4.8 3.9-5.6-1.1-.7-1.9-2-1.9-3.4 0-2.2 1.8-4 4-4 2.2 0 4 1.8 4 4 0 1.4-.8 2.7-1.9 3.4 2.3.8 3.9 3 3.9 5.6m-3-9c0-1.7-1.3-3-3-3-1.7 0-3 1.3-3 3 0 1.7 1.3 3 3 3 1.7 0 3-1.3 3-3"/></symbol><symbol viewBox="0 0 20 20" id="search_close"><title>search_close</title><path fill-rule="evenodd" d="m12 9v-1h1v-1h1v-1h1v-1h-2v1h-1v1h-1v1h-2v-1h-1v-1h-1v-1h-2v1h1v1h1v1h1v1h1v1h-1v1h-1v1h-1v1h-1v1h2v-1h1v-1h1v-1h2v1h1v1h1v1h2v-1h-1v-1h-1v-1h-1v-1h-1v-1z"/></symbol><symbol viewBox="0 0 16 16" id="search_list"><title>search_list</title><path d="m12 2v8.1c-.7-.2-1.7 0-2.6.5-1.2.8-1.8 2.1-1.2 2.8.6.8 2.1.7 3.3-.1.7-.4 1.1-1 1.3-1.6.1-.1.1-.2.1-.3v-7.7l2.1-.7v-2l-3 1m-9.5 1h7c.3 0 .5-.2.5-.5 0-.3-.2-.5-.5-.5h-7c-.3 0-.5.2-.5.5 0 .3.2.5.5.5m0 3h7c.3 0 .5-.2.5-.5 0-.3-.2-.5-.5-.5h-7c-.3 0-.5.2-.5.5 0 .3.2.5.5.5m7.5 2.5c0-.3-.2-.5-.5-.5h-7c-.3 0-.5.2-.5.5 0 .3.2.5.5.5h7c.3 0 .5-.2.5-.5"/></symbol><symbol viewBox="0 0 16 16" id="search_mv"><title>search_mv</title><path d="m13 2h-10c-1.1 0-2 .9-2 2v7c0 1.1.9 2 2 2h10c1.1 0 2-.9 2-2v-7c0-1.1-.9-2-2-2m1 9c0 .6-.4 1-1 1h-10c-.6 0-1-.4-1-1v-7c0-.6.4-1 1-1h10c.6 0 1 .4 1 1v7m-7.4-5.9c-.3-.2-.6 0-.6.3v4.1c0 .3.3.5.6.4l3.2-2.1c.2-.2.2-.5 0-.7l-3.2-2"/></symbol><symbol viewBox="0 0 16 16" id="search_song"><title>search_song</title><g id="search_song-0"><path fill-rule="evenodd" d="m10.02 3v2c1.177 0 2.982 1 2.982 3 0-5-2.982-5-2.982-5m-.477-1h-.059c-.258 0-.468.224-.468.5v7.666c-.779-.297-1.885-.176-2.849.073-1.614.418-2.444 1.533-2.08 2.577.55 1.575 2.49 1.156 3.766 1.064 1.437-.104 2.099-.819 2.157-1.904h.002v-.018c.002-.04 0-.082 0-.122v-9.336c0-.276-.21-.5-.469-.5"/></g></symbol><symbol viewBox="0 0 16 16" id="selected"><title>selected</title><path d="m12 4v1h-1v1h-1v1h-1v1h-1v1h-1v1h-1v-1h-1v-1h-1v-1h-1v2h1v1h1v1h1v1h1v-1h1v-1h1v-1h1v-1h1v-1h1v-1h1v-2z"/></symbol><symbol viewBox="0 0 12 12" id="selected_sml"><title>selected_sml</title><path fill-rule="evenodd" d="m8.864 3.144c-.223-.156-.815-.224-.973 0l-2.63 4.104-1.234-1.726c-.19-.215-.684-.207-.857.012-.311.391-.13.663.03.89l1.58 2.208c.019.035.043.065.069.097l.024.033c.195.222.417.28.621.202.21-.061.333-.267.431-.406l2.918-4.631c.157-.225.247-.626.021-.783"/></symbol><symbol viewBox="0 0 8 14" id="set_back"><title>set_back</title><path fill-rule="evenodd" d="m2 6h1v-1h1v-1h1v-1h1v-1h1v-1h1v-1h-2v1h-1v1h-1v1h-1v1h-1v1h-1v1h-1v2h1v1h1v1h1v1h1v1h1v1h1v1h2v-1h-1v-1h-1v-1h-1v-1h-1v-1h-1v-1h-1z"/></symbol><symbol viewBox="0 0 9 9" id="set_dot"><title>set_dot</title><path class="st0" d="M4.5,0C7,0,9,2,9,4.5C9,7,7,9,4.5,9C2,9,0,7,0,4.5C0,2,2,0,4.5,0z"/></symbol><symbol viewBox="0 0 18 18" id="setting"><title>setting</title><path d="m16.8 11.3c0 0 0 0 0 0l-1.7-2c0-.1 0-.2 0-.2 0-.1 0-.1 0-.2l1.7-2c0 0 0 0 0 0 .2-.2.3-.4.2-.6v-.1c0 0 0 0 0 0l-1.4-2.3c0 0 0 0 0 0v-.1c-.1-.2-.4-.2-.6-.1l-2.4.4c-.3-.1-.6-.3-.9-.5l-.8-2.1c0 0 0 0 0 0 0-.2-.2-.4-.5-.4h-2.8c-.2-.1-.4.1-.4.3l-.8 2.2c-.3.2-.6.3-.8.5l-2.5-.4c0 0 0 0 0 0-.2-.1-.4 0-.5.1v.1c0 0 0 0 0 0l-1.5 2.3c0 0 0 0 0 0v.1c-.1.2 0 .4.2.5l1.7 2c0 .1 0 .1 0 .2 0 .1 0 .2 0 .2l-1.7 2c0 0 0 0 0 0-.2.1-.3.4-.2.5v.1c0 0 0 0 0 0l1.4 2.4c.1.2.4.2.6.1l2.5-.4c.2.1.4.3.7.4l.9 2.2c0 .2.2.4.5.4.1 0 .2 0 .3-.1h2.3c.1.1.2.1.3.1.3 0 .5-.2.5-.4l.9-2.2c.2-.1.5-.3.7-.4l2.5.4c0 0 0 0 0 0 .2.1.5.1.6-.1v-.1l1.4-2.4c-.1-.1-.2-.3-.4-.4m-.8.4l-1.1 1.8-.4-.1-1.2-.2c0 0 0 0 0 0l-1.3-.2c-.3.2-.7.4-1.1.6 0 0 .1.1.1.1h.1l-.9 2.3h-2.3l-.9-2.3h.1c0 0 .1-.1.1-.1-.4-.2-.7-.4-1-.6l-2.9.5-1.1-1.8 1.7-2c.1.1.2.1.3 0-.1-.2-.2-.4-.2-.7 0-.2 0-.4.1-.6l-.1.2-1.9-2.2 1.1-1.8 2.8.4c.3-.3.7-.5 1.1-.7l.8-2.3v-.1h2.1v.1l.2.4.3.8c0 0 0 0 0 0l.4 1.1c0 0 0 0 0 0 .4.2.7.4 1.1.7l2.8-.5 1.2 1.9-.3.3-.8.9c0 0 0 0 0 0l-.6.7c-.1-.1-.2-.1-.3 0 0 .2 0 .5 0 .7 0 .2 0 .3 0 .5v-.1l.8 1 1.2 1.3m-7-5.7c-1.6 0-3 1.3-3 3s1.3 3 3 3c1.7 0 3-1.3 3-3s-1.3-3-3-3m0 5c-1.1 0-2-.9-2-2 0-1.1.9-2 2-2s2 .9 2 2c0 1.1-.9 2-2 2"/></symbol><symbol viewBox="0 0 19 19" id="sex_boy"><title>sex_boy</title><path d="M12,0v1h5.293l-4.859,4.86C11.114,4.705,9.391,4,7.5,4C3.357,4,0,7.358,0,11.5C0,15.643,3.357,19,7.5,19
			s7.5-3.357,7.5-7.5c0-1.891-0.705-3.613-1.859-4.933L18,1.707V7h1V0H12z M14,11.5c0,3.59-2.91,6.5-6.5,6.5S1,15.09,1,11.5
			S3.91,5,7.5,5S14,7.91,14,11.5z"/></symbol><symbol viewBox="0 0 12 12" id="sex_boy_sml"><title>sex_boy_sml</title> <g id="sex_boy_sml-&#x56FE;&#x5C42;_1">                        <g id="sex_boy_sml-Single_cycle">  </g>             </g> <g id="sex_boy_sml-&#x56FE;&#x5C42;_3">     <path id="sex_boy_sml-XMLID_855_" d="M11.5,0H7C6.723,0,6.5,0.224,6.5,0.5S6.723,1,7,1h3.293L8.148,3.145C7.286,2.44,6.2,2,5,2
		C2.239,2,0,4.239,0,7c0,2.761,2.239,5,5,5s5-2.239,5-5c0-1.2-0.44-2.287-1.145-3.148L11,1.707V5c0,0.276,0.224,0.5,0.5,0.5
		S12,5.276,12,5V0.5C12,0.224,11.776,0,11.5,0z M5,11.091c-2.256,0-4.091-1.835-4.091-4.091c0-2.256,1.835-4.091,4.091-4.091
		c2.256,0,4.091,1.835,4.091,4.091C9.091,9.256,7.256,11.091,5,11.091z"/> </g> </symbol><symbol viewBox="0 0 19 19" id="sex_girl"><title>sex_girl</title><path d="m11.535 0c-4.143 0-7.5 3.358-7.5 7.5 0 1.918.726 3.663 1.911 4.989-.083.021-.164.057-.229.122l-1.173 1.173-3.645-3.644c-.191-.192-.502-.192-.694 0-.191.191-.191.503 0 .694l3.645 3.645-3.703 3.703c-.195.195-.195.512 0 .707s.512.195.707 0l3.703-3.703 3.645 3.645c.192.191.503.191.694 0s.191-.503 0-.694l-3.645-3.645 1.173-1.173c.065-.065.101-.146.122-.229 1.326 1.183 3.071 1.91 4.989 1.91 4.143 0 7.5-3.357 7.5-7.5 0-4.142-3.357-7.5-7.5-7.5m0 14c-3.59 0-6.5-2.91-6.5-6.5s2.91-6.5 6.5-6.5 6.5 2.91 6.5 6.5-2.91 6.5-6.5 6.5"/></symbol><symbol viewBox="0 0 12 12" id="sex_girl_sml"><title>sex_girl_sml</title> <g id="sex_girl_sml-&#x56FE;&#x5C42;_1">                        <g id="sex_girl_sml-Single_cycle">  </g>             </g> <g id="sex_girl_sml-&#x56FE;&#x5C42;_3">     <path id="sex_girl_sml-XMLID_1054_" d="M7,0.028c-2.761,0-5,2.239-5,5c0,1.22,0.454,2.323,1.18,3.191L2.5,8.899L0.814,7.213
		c-0.174-0.174-0.455-0.174-0.629,0s-0.174,0.455,0,0.629l1.686,1.686l-1.686,1.685c-0.174,0.174-0.174,0.455,0,0.629
		c0.087,0.087,0.2,0.13,0.314,0.13c0.113,0,0.228-0.043,0.314-0.13L2.5,10.157l1.685,1.685c0.087,0.087,0.201,0.13,0.314,0.13
		s0.228-0.043,0.314-0.13c0.174-0.174,0.174-0.455,0-0.629L3.129,9.528l0.68-0.68C4.677,9.574,5.78,10.028,7,10.028
		c2.761,0,5-2.239,5-5C12,2.266,9.761,0.028,7,0.028z M7,9.119c-1.117,0-2.13-0.452-2.869-1.181C4.125,7.93,4.122,7.921,4.115,7.914
		c-0.007-0.007-0.017-0.01-0.024-0.016c-0.729-0.739-1.182-1.752-1.182-2.87c0-2.256,1.835-4.091,4.091-4.091
		c2.256,0,4.091,1.835,4.091,4.091C11.091,7.284,9.256,9.119,7,9.119z"/> </g> </symbol><symbol viewBox="0 0 23 23" id="skin_color"><title>skin_color</title><path fill-rule="evenodd" d="m17 13h-2v5c0 .553-.447 1-1 1h-4c-.553 0-1-.447-1-1v-5h-2c-1.657 0-3-.344-3-2v-7h16v7c0 1.656-1.343 2-3 2m-7 4c0 .553.447 1 1 1h2c.552 0 1-.447 1-1v-3c0-.553-.448-1-1-1h-2c-.553 0-1 .447-1 1v3m9-12h-14v4h14v-4m-14 5c0 1.656 1.343 2 3 2h2 4 2c1.657 0 3-.344 3-2h-14"/></symbol><symbol viewBox="-46 0 20 20" id="skin_selected"><title>skin_selected</title><path d="M-31,6v1h-1v1h-1v1h-1v1h-1v1h-1v1h-1v1h-1v-1h-1v-1h-1v-1h-1v2h1v1h1v1h1v1h1v-1h1v-1h1v-1h1v-1h1v-1h1V9h1V8h1V6H-31z"/></symbol><symbol viewBox="0 0 16 16" id="skin_selected_sml"><title>skin_selected_sml</title><path d="m12 4v1h-1v1h-1v1h-1v1h-1v1h-1v1h-1v-1h-1v-1h-1v-1h-1v2h1v1h1v1h1v1h1v-1h1v-1h1v-1h1v-1h1v-1h1v-1h1v-2z"/></symbol><symbol viewBox="0 0 23 23" id="skin_theme"><title>skin_theme</title><path fill-rule="evenodd" d="M2,4v15h19V4H2z M20,18H3V5h17V18z"/><path d="m2.661 16.975l-.661-.75 4.136-3.644 3.848 2.549 5.817-5.13 5.14 4.529-.66.75-4.48-3.946-5.731 5.05-3.847-2.545z"/><path d="M7.5,11C6.122,11,5,9.878,5,8.5S6.122,6,7.5,6S10,7.122,10,8.5S8.878,11,7.5,11z M7.5,7C6.673,7,6,7.673,6,8.5
			S6.673,10,7.5,10S9,9.327,9,8.5S8.327,7,7.5,7z"/></symbol><symbol viewBox="0 0 10 10" id="song_sml"><title>song_sml</title><path d="m10 7v-7h-1v.1l-5.6 2.1c-.3 0-.5.3-.4.7v4.3c-.3 0-.7.2-1 .4-.8.4-1.2 1.4-.8 2 .3.5 1.4.4 1.8.3.9-.4 1-1.5 1-2v-4.9l5-1.9v5.1c-.3 0-.7.1-1.1.4-.8.4-1.3 1.4-.8 2 .3.5 1.3.5 1.9.2.9-.5 1.1-1.2 1-1.8"/></symbol><symbol viewBox="0 0 13 13" id="sort"><title>sort</title><path d="M10,5v1H9v1H8v1H7v1H6V8H5V7H4V6H3V5H2V4h9v1H10z"/></symbol><symbol viewBox="0 0 13 13" id="sort_hvr"><title>sort_hvr</title><path d="m6 1l-3 4h6l-3-4m0 10l3-4h-6l3 4"/></symbol><symbol viewBox="0 0 13 13" id="sort_reset"><title>sort_reset</title><path d="M4,1H2v7H0v1h1v1h1v1h2v-1h1V9h1V8H4V1z M5,1v2h8V1H5z M5,7h8V5H5V7z M7,11h6V9H7V11z"/></symbol><symbol viewBox="0 0 16 9" id="sq"><title>sq</title><path d="M15,0H1H0v1v7v1h1h14h1V8V1V0H15z M15,8H1V1h14V8z"/><path d="m2 6v1h4 1v-1-1-1h-1-3v-1h4v-1h-4-1v1 1 1h1 3v1z"/><path d="M12,7h1h1V6h-1V3V2H9H8v5h1H12z M9,3h3v2h-1v1H9V3z"/></symbol><symbol viewBox="0 0 26 22" id="stab_down"><title>stab_down</title><path fill-rule="evenodd" d="m12 13h-2v-7h-1v7h-2v1h1v1h1v1h1v-1h1v-1h1v-1m0-7v1h7v-1h-7m0 4h7v-1h-7v1m1 3h6v-1h-6v1m-1 3h7v-1h-7v1"/></symbol><symbol viewBox="0 0 26 22" id="stab_list"><title>stab_list</title><g fill-rule="evenodd"><path d="M8,15h10v1H8V15z"/><path d="M8,12h10v1H8V12z"/><path d="M8,9h10v1H8V9z"/><path d="M8,6h10v1H8V6z"/></g></symbol><symbol viewBox="0 0 26 22" id="stab_mix"><title>stab_mix</title><g fill-rule="evenodd"><path d="m12 15h7v1h-7v-1"/><path d="m12 12h7v1h-7v-1"/><path d="m12 9h7v1h-7v-1"/><path d="m12 6h7v1h-7v-1"/></g><path d="m11 16h-4v-4h4v4m-3-1h2v-2h-2v2"/><path d="M11,10H7V6h4V10z M8,9h2V7H8V9z"/></symbol><symbol viewBox="0 0 26 22" id="stab_pic"><title>stab_pic</title><path d="M12,10H8V6h4V10z M9,9h2V7H9V9z"/><path d="m18 10h-4v-4h4v4m-3-1h2v-2h-2v2"/><path d="m12 16h-4v-4h4v4m-3-1h2v-2h-2v2"/><path d="m18 16h-4v-4h4v4m-3-1h2v-2h-2v2"/></symbol><symbol viewBox="0 0 26 22" id="stab_up"><title>stab_up</title><path fill-rule="evenodd" d="m12 8h-1v-1h-1v-1h-1v1h-1v1h-1v1h2v7h1v-7h2v-1m0-2v1h7v-1h-7m1 4h6v-1h-6v1m-1 3h7v-1h-7v1m0 3h7v-1h-7v1"/></symbol><symbol viewBox="0 0 18 18" id="store"><title>store</title><path d="m16 4.5v-.5h-13v.2l-.3-1.2h.3v-1h-3v1h1.9l2.3 9h-.2v1h10v-.7l2-7.3v-.2-.3m-3 7.5h-7.8l-2-7h11.7l-1.9 7m-7.5 2c-.8 0-1.5.7-1.5 1.5s.7 1.5 1.5 1.5 1.5-.7 1.5-1.5-.7-1.5-1.5-1.5m0 2c-.3 0-.5-.2-.5-.5 0-.3.2-.5.5-.5s.5.2.5.5c0 .3-.2.5-.5.5m7-2c-.8 0-1.5.7-1.5 1.5s.7 1.5 1.5 1.5 1.5-.7 1.5-1.5-.7-1.5-1.5-1.5m0 2c-.3 0-.5-.2-.5-.5 0-.3.2-.5.5-.5s.5.2.5.5c0 .3-.2.5-.5.5"/></symbol><symbol viewBox="0 0 6 11" id="tag_arr"><title>tag_arr</title><path fill-rule="evenodd" d="m0 0v1h1v-1h-1m1 1v1h1v-1h-1m1 1v1h1v-1h-1m1 1v1h1v-1h-1m1 1v1h1v-1h-1m1 1v1h1v-1h-1m-1 2h1v-1h-1v1m-1 1h1v-1h-1v1m-1 1h1v-1h-1v1m-1 1h1v-1h-1v1m-1 1h1v-1h-1v1"/></symbol><symbol viewBox="0 0 18 18" id="tag_recmt"><title>tag_recmt</title><path d="m9 6c-1.7 0-3 1.3-3 3 0 1.7 1.3 3 3 3 1.7 0 3-1.3 3-3 0-1.7-1.3-3-3-3m0 4c-.6 0-1-.4-1-1 0-.6.4-1 1-1 .6 0 1 .4 1 1 0 .6-.4 1-1 1"/><g opacity=".7"><path d="m13.2 4.8l-.7.7c.9.9 1.5 2.1 1.5 3.5s-.6 2.6-1.5 3.5l.7.7c1.1-1 1.8-2.5 1.8-4.2 0-1.7-.7-3.2-1.8-4.2m-8.4 0c-1.1 1-1.8 2.5-1.8 4.2 0 1.7.7 3.2 1.8 4.2l.7-.7c-.9-.9-1.5-2.1-1.5-3.5s.6-2.6 1.5-3.5l-.7-.7"/></g></symbol><symbol viewBox="0 0 12 12" id="timeline_add"><title>timeline_add</title><path fill-rule="evenodd" d="m11 5h-4v-4c0-.552-.447-1-1-1s-1 .448-1 1v4h-4c-.553 0-1 .448-1 1 0 .553.447 1 1 1h4v4c0 .553.447 1 1 1s1-.447 1-1v-4h4c.553 0 1-.447 1-1 0-.552-.447-1-1-1"/></symbol><symbol viewBox="0 0 16 16" id="timeline_alert"><title>timeline_alert</title><path fill-rule="evenodd" d="m7 3v7h2v-7h-2m0 10h2v-2h-2v2"/></symbol><symbol viewBox="0 0 16 16" id="timeline_artist_fav"><title>timeline_artist_fav</title><path fill-rule="evenodd" d="m15 7h-6v-6c0-.552-.447-1-1-1s-1 .448-1 1v6h-6c-.553 0-1 .448-1 1s.447 1 1 1h6v6c0 .553.447 1 1 1s1-.447 1-1v-6h6c.553 0 1-.448 1-1s-.447-1-1-1"/></symbol><symbol viewBox="0 0 18 18" id="timeline_artist_page"><title>timeline_artist_page</title><path fill-rule="evenodd" d="m10 4v1h-1v1h-1v1h-1v1h-1v2h1v1h1v1h1v1h1v1h1v-2h-1v-1h-1v-1h-1v-2h1v-1h1v-1h1v-2z"/></symbol><symbol viewBox="0 0 15 11" id="timeline_artist_unfav"><title>timeline_artist_unfav</title><path fill-rule="evenodd" d="m14.743 1.59c.372-.394.335-.997-.081-1.348s-1.055-.316-1.425.077l-7.542 8.202-3.883-4.807c-.338-.419-.971-.5-1.415-.18-.443.319-.529.919-.19 1.338l4.647 5.753c.028.034.067.053.099.082.001.009.014.021.024.03.011.001.026.012.038.021.093.075.193.132.305.169.002.0001.005.002.007.003.31.102.661.076.941-.125.055-.04.088-.095.132-.143 0 0 .0001 0 .002-.0001l.081-.089c.014-.02.038-.033.05-.054l8.21-8.928"/></symbol><symbol viewBox="2 4 9 8" id="timeline_close"><title>timeline_close</title><path fill-rule="evenodd" d="m8 7h1v-1h1v-1h1v-1h-2v1h-1v1h-1v1h-1v-1h-1v-1h-1v-1h-2v1h1v1h1v1h1v2h-1v1h-1v1h-1v1h2v-1h1v-1h1v-1h1v1h1v1h1v1h2v-1h-1v-1h-1v-1h-1z"/></symbol><symbol viewBox="0 0 11 11" id="timeline_cmt"><title>timeline_cmt</title><path d="m3 8v1.348l2.406-1.348.513.805-2.406 1.347-1.513.848v-1.652-1.348z"/><path d="m9 3h-7v1h7v-1"/><path d="m7 5h-5v1h5v-1"/><path d="m11 9h-5.6v-1h4.6v-7h-9v7h1v1h-2v-9h11z"/></symbol><symbol viewBox="0 0 30 30" id="timeline_daren"><title>timeline_daren</title><path d="m15 8.296l2.363 4.438.389.729.823.062 2.873.216-2.661 2.445-.617.567.16.823.758 3.905-3.172-2.445-.916-.704-.916.705-3.173 2.445.758-3.905.16-.823-.617-.567-2.661-2.445 2.873-.216.823-.062.388-.729 2.365-4.439m0-2.296c-.283 0-.566.144-.706.431l-2.982 5.598-4.593.346c-.67.05-.963.834-.479 1.279l3.957 3.637-1.128 5.813c-.107.501.312.896.767.896.165 0 .333-.051.484-.168l4.68-3.606 4.68 3.606c.15.117.319.168.484.168.455 0 .874-.395.767-.896l-1.128-5.813 3.957-3.637c.484-.445.191-1.229-.479-1.279l-4.594-.346-2.981-5.598c-.14-.287-.423-.431-.706-.431z"/></symbol><symbol viewBox="0 0 30 30" id="timeline_dj"><title>timeline_dj</title><path d="m14 13.39v7.207c-.441-.204-.982-.269-1.533-.139-1.15.271-1.9 1.269-1.676 2.228.227.959 1.342 1.518 2.493 1.246 1.151-.271 1.901-1.268 1.676-2.227-.026-.111-.067-.216-.116-.315h.156v-6.134c.708.035 1.6.375 2 1.745 0-4.49-3-3.611-3-3.611m-2.729 4.126c-.631-.93-.922-2.108-.695-3.355.319-1.754 1.711-3.192 3.455-3.559 2.903-.61 5.469 1.601 5.469 4.398 0 1.332-.582 2.531-1.505 3.355-.274.245-.321.656-.117.962.254.381.791.452 1.132.146 1.221-1.098 1.99-2.691 1.99-4.463 0-3.313-2.687-6-6-6s-6 2.687-6 6c0 1.236.374 2.387 1.016 3.341.253.377.789.435 1.127.132.271-.245.333-.655.128-.957m3.729-11.516c-4.971 0-9 4.03-9 9 0 1.781.517 3.441 1.41 4.838.243.38.752.48 1.108.204.3-.233.387-.659.182-.978-.99-1.529-1.438-3.438-1.073-5.455.537-2.971 2.907-5.383 5.869-5.962 4.791-.936 9 2.725 9 7.353 0 3.206-2.02 5.949-4.857 7.02-.369.139-.588.516-.484.895l.008.025c.115.428.576.646.992.491 3.411-1.28 5.841-4.572 5.841-8.431 0-4.971-4.03-9-9-9"/></symbol><symbol viewBox="0 0 11 11" id="timeline_forward"><title>timeline_forward</title><path d="m10.557 3l-3-3v2.1c-1.867.21-4.283 1.71-5.335 5.158 1.148-2.875 5.335-3.378 5.335-3.378v2.12l3-3"/><path d="m11 11h-11v-11h5v1h-4v9h9v-3h1z"/></symbol><symbol viewBox="0 0 12 12" id="timeline_link"><title>timeline_link</title><path fill-rule="evenodd" d="m11.611 2.719l-2.342-2.332c-.518-.516-1.357-.516-1.876 0l-3.106 3.092.644.641 2.725-2.715c.324-.322.85-.322 1.173 0l1.76 1.752c.324.322.324.844 0 1.167l-2.725 2.713.642.639 3.105-3.092c.519-.516.519-1.35 0-1.865m-7.293 7.843c-.324.322-.849.322-1.173 0l-1.759-1.751c-.324-.322-.324-.846 0-1.167l2.72-2.709-.612-.61-3.106 3.092c-.518.515-.518 1.35 0 1.865l2.344 2.331c.517.516 1.357.516 1.875 0l3.107-3.091-.674-.671-2.722 2.711m-.446-2.468c.171.17.448.17.619 0l3.795-3.778c.171-.17.171-.446 0-.616-.171-.17-.448-.17-.619 0l-3.795 3.778c-.171.17-.171.445 0 .616"/></symbol><symbol viewBox="0 0 14 12" id="timeline_quo"><title>timeline_quo</title><path fill-rule="evenodd" d="m11.257 6.212l.034-.029c-.678 0-.678-.728-.678-.728 0-2.91 2.71-4.364 2.71-4.364l-.011-.035c.201-.072.349-.271.349-.511 0-.301-.227-.545-.507-.545-.057 0-.108.016-.159.034l-.011-.034c-6.433 3.638-5.078 9.09-5.078 9.09 0 1.605 1.364 2.909 3.047 2.909 1.683 0 3.047-1.304 3.047-2.909 0-1.506-1.205-2.732-2.743-2.879m-7.787 0l.034-.029c-.678 0-.678-.728-.678-.728 0-2.91 2.709-4.364 2.709-4.364l-.001-.034c.202-.072.349-.271.349-.511 0-.302-.228-.546-.508-.546-.056 0-.108.016-.158.034l-.011-.034c-6.433 3.638-5.078 9.09-5.078 9.09 0 1.605 1.363 2.909 3.046 2.909 1.684 0 3.047-1.304 3.047-2.909 0-1.506-1.204-2.731-2.742-2.879"/></symbol><symbol viewBox="0 0 40 40" id="timeline_rec_artist"><title>timeline_rec_artist</title><path fill-rule="evenodd" d="m21 29.03h-9l-.03-.031c-.099.018-.199.031-.303.031-.921 0-1.667-.738-1.667-1.646 0-.103.013-.201.031-.3l-.031-.028c0 0 .017-5.688 6.308-7.768.829.34 1.738.531 2.692.531.83 0 1.623-.15 2.361-.412.96.35 1.752.792 2.43 1.277l1.248-1.233c-.645-.472-1.262-.825-1.77-1.075 1.658-1.263 2.729-3.238 2.729-5.464.0001-3.815-3.132-6.908-6.998-6.908s-7 3.093-7 6.908c0 2.113.964 4 2.479 5.268-1.816.806-5.96 3.242-6.479 8.876h.034c-.011.11-.034.217-.034.329 0 1.999 1.642 3.619 3.667 3.619h9.333c.553 0 1-.442 1-.987 0-.544-.447-.987-1-.987m-7-16.12c0-2.725 2.239-4.934 5-4.934 2.761 0 5 2.209 5 4.934s-2.239 4.934-5 4.934c-2.762 0-5-2.209-5-4.934m17 12.17h-3v-2.961c0-.544-.446-.986-1-.986-.552 0-1 .442-1 .986v2.961h-2.999c-.552 0-1 .442-1 .987s.448.986 1 .986h2.999v2.961c0 .545.448.987 1 .987.554 0 1-.442 1-.987v-2.961h3c.552 0 1-.441 1-.986s-.448-.987-1-.987"/></symbol><symbol viewBox="0 0 40 40" id="timeline_rec_cmt"><title>timeline_rec_cmt</title><path fill-rule="evenodd" d="m26.333 15.667h-12.666c-.553 0-1 .448-1 1s.448 1 1 1h12.666c.552 0 1-.448 1-1s-.449-1-1-1m1.668-6.667h-16c-2.209 0-4 1.791-4 4v11.335c0 2.207 1.791 3.999 4 3.999h1.333v3.666c0 .554.448 1 1 1 .018 0 .033-.009.05-.001.266 0 .532-.102.735-.306l5.618-4.351h7.265c2.208 0 3.999-1.792 3.999-3.999v-11.334c0-2.209-1.791-4-3.999-4m1.999 14.667c0 1.472-1.192 2.666-2.666 2.666h-6.667v.061c-.37-.138-.8-.063-1.097.233l-4.236 3.282v-2.576c0-.552-.448-1-1-1-.118 0-.228.029-.333.067v-.067h-1.333c-1.473 0-2.667-1.194-2.667-2.666v-10c-.0001-1.473 1.193-2.667 2.666-2.667h14.667c1.474 0 2.666 1.194 2.666 2.667v10m-9-4h-7.333c-.553 0-1 .447-1 1 0 .551.448.999 1 .999h7.333c.553 0 1-.448 1-.999 0-.553-.447-1-1-1"/></symbol><symbol viewBox="0 0 40 40" id="timeline_unknown"><title>timeline_unknown</title><path d="m19.354 28.725c-1.082 0-1.959.878-1.959 1.959 0 1.082.877 1.959 1.959 1.959 1.082 0 1.958-.877 1.958-1.959.0001-1.081-.876-1.959-1.958-1.959m.348-21.725c-4.247 0-7.702 3.455-7.702 7.702 0 1.135.92 2.056 2.055 2.056 1.135 0 2.056-.92 2.056-2.056 0-1.98 1.61-3.591 3.591-3.591 1.98 0 3.591 1.611 3.591 3.591 0 1.172-.574 2.273-1.538 2.946-.088.059-1.437.973-2.521 1.679-1.946 1.267-1.937 3.081-1.926 5.181l.002.604c0 1.135.92 2.055 2.055 2.055s2.055-.92 2.055-2.055l-.002-.626c-.004-.675-.008-1.434.063-1.717 1.148-.748 2.598-1.729 2.598-1.729l-.003-.004c.008-.005.017-.007.024-.012 2.068-1.441 3.305-3.805 3.305-6.324-.0001-4.245-3.456-7.7-7.703-7.7"/></symbol><symbol viewBox="0 0 30 30" id="timeline_v"><title>timeline_v</title><path d="m22.5 9h-3c-.275 0-.5.224-.5.5 0 .276.225.5.5.5h1l-3.834 8.334-5.166-8.334h1c.276 0 .5-.224.5-.5 0-.276-.224-.5-.5-.5h-5c-.276 0-.5.224-.5.5 0 .276.224.5.5.5h1l7.5 13 5.5-13h1c.275 0 .5-.224.5-.5 0-.276-.225-.5-.5-.5"/></symbol><symbol viewBox="0 0 30 30" id="timeline_yyr"><title>timeline_yyr</title><path d="m18.273 13.752c1.05-.917 1.727-2.249 1.727-3.752 0-2.762-2.238-5-5-5s-5 2.238-5 5c0 1.503.677 2.835 1.727 3.752-2.712 1.271-4.727 4.04-4.727 7.248 0 1.657 1.344 3 3 3 .414 0 .75-.336.75-.75s-.336-.75-.75-.75c-.827 0-1.5-.673-1.5-1.5 0-2.921 2.164-5.531 4.919-6.279.499.167 1.024.279 1.581.279s1.082-.112 1.581-.279c2.755.748 4.919 3.358 4.919 6.279 0 .827-.673 1.5-1.5 1.5-.414 0-.75.336-.75.75s.336.75.75.75c1.656 0 3-1.343 3-3 0-3.213-2.02-5.977-4.727-7.248m-6.773-3.752c0-1.93 1.57-3.5 3.5-3.5s3.5 1.57 3.5 3.5-1.57 3.5-3.5 3.5-3.5-1.57-3.5-3.5"/></symbol><symbol viewBox="0 0 11 11" id="topic_close"><title>topic_close</title><path fill-rule="evenodd" d="M11 .7 10.3 0 5.5 4.8.7 0 0 .7 4.8 5.5 0 10.3.7 11 5.5 6.2 10.3 11 11 10.4 6.2 5.5z"/></symbol><symbol viewBox="0 0 15 16" id="topic_share"><title>topic_share</title><path d="m15 14c0 1.1-.9 2-2 2h-11c-1.1 0-2-.9-2-2v-12c0-1.1.9-2 2-2h4c.6 0 1 .2 1 .5s-.4.5-1 .5h-4c-.6 0-1 .4-1 1v12c0 .6.4 1 1 1h11c.6 0 1-.4 1-1 0 0 0-4.7 0-3.5 0-.3.2-.5.5-.5s.5.2.5.5c0-1.2 0 3.5 0 3.5m-1-8h-1v1h-1v1h-1v-1-5-1h1v1h1v1h1v1h1v1h-1v1m-6 0c-2.4.9-4 5-4 5s.1-4.1 2-6 5-2 5-2v3c0 0-1.5-.7-3 0" fill-rule="evenodd"/></symbol><symbol viewBox="0 0 16 16" id="transcoding"><title>transcoding</title><path fill-rule="evenodd" d="m8.987 5.906v2.02l3.509-3.492-3.509-3.43v1.983c-.812-.077-5.764-.325-6.987 4.877 2.935-2.426 6.323-2.056 6.987-1.954m-1.974 4.179v-2.01l-3.509 3.492 3.509 3.43v-1.982c.814.077 5.764.324 6.987-4.878-2.43 2.221-6.277 2.01-6.987 1.945"/></symbol><symbol viewBox="0 0 13 13" id="transput_done"><title>transput_done</title><path fill-rule="evenodd" d="m6.5 0c-3.59 0-6.5 2.91-6.5 6.5s2.91 6.5 6.5 6.5 6.5-2.91 6.5-6.5-2.91-6.5-6.5-6.5m0 12c-3.037 0-5.5-2.463-5.5-5.5s2.463-5.5 5.5-5.5 5.5 2.463 5.5 5.5-2.463 5.5-5.5 5.5m3-7.909c-.229-.161-.545-.106-.705.124l-3.421 4.09-1.331-1.867c-.195-.221-.7-.212-.877.012-.318.402-.133.682.031.913l1.615 2.265c.02.036.044.067.071.1l.024.034c.2.229.427.288.636.208.215-.063.34-.274.44-.417l3.979-4.756c.161-.231-.233-.546-.462-.706"/></symbol><symbol viewBox="0 0 13 13" id="transput_leadin"><title>transput_leadin</title><path fill-rule="evenodd" d="m11 0h-10c-.553 0-1 .448-1 1h10c.552 0 1 .448 1 1v8c0 .553-.448 1-1 1h-8c-.553 0-1-.447-1-1v-4h3v2h1v-1h1v-1h1v-1h-1v-1h-1v-1h-1v2h-4v6c0 .553.447 1 1 1h10c.552 0 1-.447 1-1v-10c0-.552-.448-1-1-1"/></symbol><symbol viewBox="0 0 13 13" id="transput_pause"><title>transput_pause</title><g fill-rule="evenodd"><path d="M6.5,0C2.91,0,0,2.91,0,6.5S2.91,13,6.5,13S13,10.09,13,6.5S10.09,0,6.5,0z
			 M6.5,12C3.462,12,1,9.538,1,6.5C1,3.462,3.462,1,6.5,1C9.538,1,12,3.462,12,6.5C12,9.538,9.538,12,6.5,12z"/><path d="M5,3h1v7H5V3z"/><path d="M7,3h1v7H7V3z"/></g></symbol><symbol viewBox="0 0 13 13" id="transput_update"><title>transput_update</title><path fill-rule="evenodd" d="M6.5,0C2.91,0,0,2.91,0,6.5S2.91,13,6.5,13S13,10.09,13,6.5S10.09,0,6.5,0z
			 M6.5,12C3.463,12,1,9.537,1,6.5C1,3.462,3.463,1,6.5,1S12,3.462,12,6.5C12,9.537,9.537,12,6.5,12z M8,4H7V3H6v1H5v1H4v1h2v4h1V6
			h2V5H8V4z"/></symbol><symbol viewBox="0 0 7 7" id="tree_fold"><title>tree_fold</title><path d="M1,3h5v1H1V3z"/></symbol><symbol viewBox="0 0 7 7" id="tree_unfold"><title>tree_unfold</title><path d="m6 3h-2v-2h-1v2h-2v1h2v2h1v-2h2z"/></symbol><symbol viewBox="0 0 26 26" id="type_emotion"><title>type_emotion</title><path d="m13 26c-7.168 0-13-5.832-13-13 0-7.168 5.832-13 13-13 7.168 0 13 5.832 13 13 0 7.168-5.832 13-13 13m0-24c-6.07 0-11 4.935-11 11s4.935 11 11 11 11-4.935 11-11-4.935-11-11-11"/><path d="m13 22c-4.411 0-8-3.141-8-7h2c0 2.757 2.691 5 6 5s6-2.243 6-5h2c0 3.859-3.589 7-8 7"/><path fill-rule="evenodd" d="m18.534 8c-.811 0-1.467.672-1.467 1.5s.656 1.5 1.467 1.5c.81 0 1.466-.672 1.466-1.5s-.656-1.5-1.466-1.5m-11.07 0c-.81 0-1.466.672-1.466 1.5s.656 1.5 1.466 1.5c.811 0 1.467-.672 1.467-1.5s-.657-1.5-1.467-1.5"/></symbol><symbol viewBox="0 0 13 5" id="type_hot"><title>type_hot</title><path fill-rule="evenodd" d="M3,2H1V0H0v5h1V3h2v2h1V0H3V2z M10,0v1h1v4h1V1h1V0H10z M5,5h4V0H5V5z M6,1h2v3H6
		V1z"/></symbol><symbol viewBox="0 0 26 26" id="type_language"><title>type_language</title><path d="m13 0c-7.168 0-13 5.832-13 13 0 7.168 5.832 13 13 13 7.168 0 13-5.832 13-13 0-7.168-5.832-13-13-13m11 13c0 1.412-.277 2.759-.764 4h-3.127c.24-1.15.395-2.422.395-3.861 0-1.546-.174-2.912-.447-4.139h3.18c.486 1.242.763 2.588.763 4m-22 0c0-1.412.277-2.758.764-4h3.184c-.274 1.223-.448 2.584-.448 4.125 0 1.445.156 2.722.4 3.875h-3.136c-.487-1.241-.764-2.588-.764-4m5.5.125c0-1.572.194-2.936.499-4.125h4v8h-4.056c-.274-1.121-.444-2.404-.444-3.875m6.5-10.537c.776.583 2.276 1.953 3.333 4.412h-3.333v-4.412m-2 .025v4.387h-3.324c1.048-2.422 2.532-3.79 3.324-4.387m0 16.387v4.38c-.787-.554-2.333-1.895-3.393-4.38h3.393m2 4.436v-4.436h3.424c-1.069 2.559-2.646 3.897-3.424 4.436m0-6.436v-8h4.01c.305 1.193.498 2.561.498 4.139 0 1.465-.164 2.744-.432 3.861h-4.072m8.208-10h-2.73c-.662-1.812-1.551-3.198-2.401-4.208 2.111.846 3.901 2.326 5.131 4.208m-13.252-4.22c-.86 1.012-1.758 2.401-2.426 4.22h-2.738c1.237-1.891 3.038-3.375 5.164-4.22m-5.164 16.22h2.658c.648 1.818 1.541 3.182 2.404 4.183-2.082-.851-3.844-2.322-5.062-4.183m13.417 4.159c.85-1 1.724-2.356 2.358-4.159h2.641c-1.205 1.843-2.943 3.305-4.999 4.159"/></symbol><symbol viewBox="0 0 26 26" id="type_scene"><title>type_scene</title><path d="m12 1h2v5h-2z"/><path d="m8 2h2v4h-2z"/><path d="m16 0h2v6h-2z"/><path d="m26 14.3c0-2.2-1.5-4.1-3.4-4.4-.6-1.1-1.7-1.9-3.1-1.9h-15c-1.9 0-3.5 1.5-3.5 3.4v3.4c0 2.7 2 10.2 11 10.2 5.8 0 8.7-3.3 10-6.2 2.2 0 4-2 4-4.5m-23-2.9c0-.8.7-1.4 1.5-1.4h15.1c.8 0 1.5.6 1.5 1.4v2.8h-18.1v-2.8m9 11.6c-6.3 0-8.2-4.4-8.8-6.7h17.5c-.5 2.3-2.5 6.7-8.7 6.7m10.7-6.4c.2-.8.3-1.4.3-1.8v-2.7c.6.4 1 1.2 1 2.2 0 1-.5 1.9-1.3 2.3"/></symbol><symbol viewBox="-48 3 16 16" id="type_selected"><title>type_selected</title><path d="m-35 11v1h-1v1h-1v1h-1v1h-1v-1h-1v-1h-1v2h1v1h1v1h1v-1h1v-1h1v-1h1v-1h1v-2h-1"/></symbol><symbol viewBox="0 0 26 26" id="type_style"><title>type_style</title><path d="m22.2 3h-3.8-2.7-5.3-2.7-3.9c-1.5 0-2.8 1.3-2.8 2.8v13.4c0 1.5 1.3 2.8 2.8 2.8h18.3c1.6 0 2.8-1.3 2.8-2.8v-13.4c.1-1.5-1.2-2.8-2.7-2.8m-4.2 2v8h-2v-8h2m-7.7 10c.9 0 1.7-.8 1.7-1.8v-8.2h2v8.2c0 1 .7 1.8 1.7 1.8h.3v5h-6v-5h.3m-.3-10v8h-2v-8h2m-7 14.2v-13.4c0-.4.4-.8.8-.8h2.2v8.2c0 1 .7 1.8 1.7 1.8h.3v5h-4.2c-.4 0-.8-.4-.8-.8m20 0c0 .4-.4.8-.8.8h-4.2v-5h.3c.9 0 1.7-.8 1.7-1.8v-8.2h2.2c.4 0 .8.4.8.8v13.4"/></symbol><symbol viewBox="0 0 26 26" id="type_theme"><title>type_theme</title><path d="M25,12H14V1h8.363C23.817,1,25,2.183,25,3.637V12z M16,10h7V3.637C23,3.286,22.715,3,22.363,3H16V10z"/><path d="M12,12H1V3.637C1,2.183,2.183,1,3.637,1H12V12z M3,10h7V3H3.637C3.286,3,3,3.286,3,3.637V10z"/><path d="M12,25H3.637C2.183,25,1,23.817,1,22.363V14h11V25z M3,16v6.363C3,22.715,3.286,23,3.637,23H10v-7H3z"/><path d="M22.363,25H14V14h11v8.363C25,23.817,23.817,25,22.363,25z M16,23h6.363C22.715,23,23,22.715,23,22.363V16h-7V23z"/></symbol><symbol viewBox="0 0 16 16" id="v"><title>v</title><path d="m12.5 4h-2c-.275 0-.5.225-.5.501 0 .277.225.501.5.501h.636l-2.229 6.456-2.647-6.456h1.24c.276 0 .5-.225.5-.501 0-.276-.224-.501-.5-.501h-4c-.276 0-.5.225-.5.501 0 .277.224.501.5.501h.574l3.896 8.753c.15.337.631.321.758-.024l3.228-8.729h.544c.275 0 .5-.225.5-.501 0-.276-.225-.501-.5-.501"/></symbol><symbol viewBox="2 -1 13 13" id="v_letter"><title>v_letter</title><path d="m11.5 1.1h-2c-.3 0-.5.2-.5.5s.2.5.5.5h.6l-2.2 6.4-2.6-6.4h1.2c.3 0 .5-.2.5-.5s-.2-.5-.5-.5h-4c-.3 0-.5.2-.5.5s.2.5.5.5h.6l3.9 8.7c.1.3.6.3.8 0l3.2-8.7h.5c.3 0 .5-.2.5-.5s-.2-.5-.5-.5"/></symbol><symbol viewBox="0 0 16 16" id="yyr"><title>yyr</title><g fill-rule="evenodd"><path d="m9.238 3.28v1.29c1.45.512 2.495 1.872 2.495 3.487 0 2.051-1.676 3.714-3.743 3.714-.095 0-.183-.021-.276-.027-.0001.009-.003.018-.004.027-2.257 0-4.087-1.673-4.087-3.736 0-1.378.732-2.979 2.355-3.789l-.23-.591c-1.624.818-2.748 2.472-2.748 4.403 0 2.735 2.234 4.952 4.99 4.952s4.99-2.217 4.99-4.952c0-2.305-1.593-4.225-3.742-4.778"/><path d="m9.02 3.624l-1.023-.624v4.03c-.417.1-.798.408-.944.873-.182.586.096 1.082.623 1.108.526.024 1.101-.43 1.284-1.017.066-.213.054-.389.007-.542l.053-3.829"/></g></symbol><symbol viewBox="0 0 13 13" id="yyr_letter"><title>yyr_letter</title><path d="m7 1.4v3.9c-.4 0-.8 0-1.3.2-1 .4-1.8 1.5-1.6 2.5.2 1 1.2 1.5 2.2 1 1.3-.5 1.8-1.8 1.7-2.7v-3.1c1.5.7 2.6 2.2 2.6 4 0 2.5-2.1 4.5-4.6 4.5-2.8 0-5.1-2.2-5.1-4.9 0-2.3 1.6-4.1 3.7-4.7v-.6c-2.6.6-4.6 2.9-4.6 5.7 0 3.2 2.7 5.8 6 5.8 3.3 0 6-2.6 6-5.8 0-2.9-2.2-5.3-5-5.8"/></symbol><symbol viewBox="0 0 10 10" id="yyr_sml"><title>yyr_sml</title><path d="m5 0c-2.8 0-5 2.2-5 5 0 1.6.8 3.1 2 4v-1.4c-.6-.7-1-1.6-1-2.6 0-2.2 1.8-4 4-4s4 1.8 4 4c0 1-.4 1.9-1 2.6v1.4c1.2-.9 2-2.3 2-4 0-2.8-2.2-5-5-5m1 3h-1v5.1c-.2-.1-.3-.1-.5-.1-.8 0-1.5.4-1.5 1s.7 1 1.5 1 1.5-.4 1.5-1v-3h1v-2h-1v-1"/></symbol></svg>