<svg xmlns="http://www.w3.org/2000/svg"><symbol viewBox="-288 411.9 18 18" id="artist"><title>artist</title><g fill-rule="evenodd"><path d="m-273 426.4c0-2.5-1.4-4.6-3.4-5.7.9-.8 1.4-2 1.4-3.3 0-2.5-2-4.5-4.5-4.5-2.5 0-4.5 2-4.5 4.5 0 1.3.6 2.5 1.4 3.3-2 1.1-3.4 3.2-3.4 5.7 0 .1 0 .2 0 .3v.2c0 1.1.9 2 2 2v-1c-.6 0-1-.4-1-1 0-2.8 1.4-4.7 3.3-5.6.6.4 1.4.6 2.2.6.8 0 1.5-.2 2.1-.6 2 .8 3.4 2.9 3.4 5.6 0 .6-.4 1-1 1v1c1.1 0 2-.9 2-2v-.2c0-.1 0-.2 0-.3m-6.5-5.5c-1.9 0-3.5-1.6-3.5-3.5 0-1.9 1.6-3.5 3.5-3.5 1.9 0 3.5 1.6 3.5 3.5 0 1.9-1.6 3.5-3.5 3.5"/><path d="m-279.5 422.9c-.8 0-1.5.7-1.5 1.5v1c0 .7.4 1.2 1 1.4v1.6c0 .3.2.5.5.5.3 0 .5-.2.5-.5v-1.6c.6-.2 1-.8 1-1.4v-1c0-.8-.7-1.5-1.5-1.5"/></g></symbol><symbol viewBox="-288 411.9 18 18" id="cloud"><title>cloud</title><path d="m-274 418.2c-.1-2.4-2.1-4.3-4.5-4.3-2.5 0-4.5 2-4.5 4.5 0 .2 0 .3 0 .5-2.2 0-4 1.8-4 4 0 2.2 1.8 4 4 4h8v-.1c2.2-.3 4-2.1 4-4.4 0-2-1.3-3.6-3-4.2m-1 7.6l-8 .1c-1.7 0-3-1.3-3-3 0-1.7 1.3-3 3-3 .5 0 1 0 1.4 0 2.7.2 3.6 3 3.6 3 0-3.7-3.4-4-3.9-4 0-.2-.1-.3-.1-.5 0-1.9 1.6-3.5 3.5-3.5 1.9 0 3.5 1.6 3.5 3.5 0 .2 0 .4-.1.5 1.7.2 3.1 1.7 3.1 3.5 0 1.8-1.3 3.2-3 3.4" fill-rule="evenodd"/></symbol><symbol viewBox="-288 411.9 18 18" id="discover"><title>discover</title><path d="m-282 415.9v8.1c-.7-.2-1.7 0-2.5.5-1.2.8-1.8 2.1-1.2 2.8.6.8 2.1.7 3.3-.1.9-.6 1.4-1.3 1.4-2 0 0 0 0 0-.1v-6.5l8-1.6v5.9c-.7-.2-1.7 0-2.5.5-1.2.8-1.8 2.1-1.2 2.8.6.8 2.1.7 3.3-.1.9-.6 1.5-1.5 1.4-2.2v-10.2l-10 2.2" fill-rule="evenodd"/></symbol><symbol viewBox="-288 411.9 18 18" id="dld"><title>dld</title><path d="m-280 423.6l.1.2c.1.1.2.1.3.1.1 0 .3 0 .4-.1l.1-.2 3.9-3.9c.2-.2.2-.5 0-.7-.2-.2-.5-.2-.7 0l-3.2 3.2v-7.8c0-.3-.2-.5-.5-.5-.3 0-.5.2-.5.5v7.8l-3.2-3.2c-.2-.2-.5-.2-.7 0-.2.2-.2.5 0 .7l4 3.9m7.5-1.7c-.3 0-.5.2-.5.5v3.5c0 .6-.4 1-1 1h-11c-.6 0-1-.4-1-1v-3.5c0-.3-.2-.5-.5-.5s-.5.2-.5.5v3.5c0 1.1.9 2 2 2h11c1.1 0 2-.9 2-2v-3.5c0-.3-.2-.5-.5-.5"/></symbol><symbol viewBox="-51 8 10 10" id="down"><title>down</title><path d="m-42 10v1h-1v1h-1v1h-1v1h-1-1v-1h-1v-1h-1v-1h-1v-1h-1v2h1v1h1v1h1v1h1v1h1 1v-1h1v-1h1v-1h1v-1h1v-2h-1"/></symbol><symbol viewBox="-288 411.9 18 18" id="fm"><title>fm</title><g fill-rule="evenodd"><path d="m-286 420.9c0-2.3 1.1-4.3 2.8-5.6l-.6-.8c-1.9 1.5-3.2 3.8-3.2 6.4 0 2.6 1.3 4.9 3.2 6.4l.6-.8c-1.7-1.3-2.8-3.3-2.8-5.6"/><path d="m-281.4 417.7l-.6-.8c-1.2.9-2 2.4-2 4s.8 3.1 2 4l.6-.8c-1-.7-1.6-1.9-1.6-3.2 0-1.3.6-2.5 1.6-3.2"/><path d="m-276 416.9l-.6.8c1 .7 1.6 1.9 1.6 3.2 0 1.3-.6 2.5-1.6 3.2l.6.8c1.2-.9 2-2.4 2-4s-.8-3.1-2-4"/><path d="m-274.2 414.5l-.6.8c1.7 1.3 2.8 3.3 2.8 5.6 0 2.3-1.1 4.3-2.8 5.6l.6.8c1.9-1.5 3.2-3.8 3.2-6.4 0-2.6-1.3-4.9-3.2-6.4"/><circle cx="-279" cy="420.9" r="2"/></g></symbol><symbol viewBox="-288 411.9 18 18" id="friend"><title>friend</title><path d="m-274.9 421.3c1.1-.7 1.9-2 1.9-3.4 0-2.2-1.8-4-4-4v1c1.7 0 3 1.3 3 3 0 1.7-1.3 3-3 3v1c2.8 0 5 2.2 5 5 0 .6-.4 1-1 1v1c1.1 0 2-.9 2-2 0-2.6-1.6-4.8-3.9-5.6m-4 0c1.1-.7 1.9-2 1.9-3.4 0-2.2-1.8-4-4-4-2.2 0-4 1.8-4 4 0 1.4.8 2.7 1.9 3.4-2.3.9-3.9 3-3.9 5.6 0 1.1.9 2 2 2v-1c-.6 0-1-.4-1-1 0-2.8 2.2-5 5-5s5 2.2 5 5c0 .6-.4 1-1 1v1c1.1 0 2-.9 2-2 0-2.6-1.6-4.8-3.9-5.6m-5.1-3.4c0-1.7 1.3-3 3-3 1.7 0 3 1.3 3 3 0 1.7-1.3 3-3 3-1.7 0-3-1.4-3-3"/></symbol><symbol viewBox="-288 411.9 18 18" id="local"><title>local</title><path d="m-279 412.9c-4.4 0-8 3.6-8 8 0 4.4 3.6 8 8 8s8-3.6 8-8c0-4.4-3.6-8-8-8m0 15c-3.9 0-7-3.1-7-7s3.1-7 7-7c.3 0 .7 0 1 .1v6c-.7-.2-1.7 0-2.5.5-1.2.8-1.8 2.1-1.2 2.8.6.8 2.1.7 3.3-.1.9-.6 1.5-1.5 1.4-2.2v-6.9c2.9.9 5 3.5 5 6.7 0 4-3.1 7.1-7 7.1" fill-rule="evenodd"/></symbol><symbol viewBox="-288 411.9 18 18" id="love"><title>love</title><path d="m-275 414.9c.1 0 3 0 3 4 0 2.4-4.1 5.9-7 7.8-2.9-1.9-7-5.5-7-7.8 0-3.8 2.7-4 3-4 2.8 0 3 1.7 3 2 0 .5.4 1 1 1 .5 0 1-.4 1-1 0-.3.2-2 3-2m0-1c-4 0-4 3-4 3s0-3-4-3c0 0-4 0-4 5 0 4 8 9 8 9s8-5 8-9c0-5-4-5-4-5z"/></symbol><symbol viewBox="-288 411.9 18 18" id="mv"><title>mv</title><path d="m-273 414.9h-12c-1.1 0-2 .9-2 2v8c0 1.1.9 2 2 2h12c1.1 0 2-.9 2-2v-8c0-1.1-.9-2-2-2m1 10c0 .6-.4 1-1 1h-12c-.6 0-1-.4-1-1v-8c0-.6.4-1 1-1h12c.6 0 1 .4 1 1v8m-9-1l5-3-5-3v6" fill-rule="evenodd"/></symbol><symbol viewBox="0 0 28 9" id="new"><title>new</title><path fill-rule="evenodd" d="m5 3v-1h-1v5h1v-3h1v-1h-1m1 1v1h1v-1h-1m2 1h-1v1h1v1h1v-5h-1v3m3 2h4v-1h-3v-1h3v-1h-3v-1h3v-1h-4v5m6-5v4h1v-4h-1m2 4h1v-3h-1v3m1-4v1h1v-1h-1m1 1v3h1v-3h-1m2-1v4h1v-4h-1m-1 5h1v-1h-1v1m-4 0h1v-1h-1v1"/></symbol><symbol viewBox="0 0 28 9" id="new_bg"><title>new_bg</title><path fill-rule="evenodd" d="M23.5,0h-19C2.015,0,0,2.015,0,4.5S2.015,9,4.5,9h19
			C25.985,9,28,6.985,28,4.5S25.985,0,23.5,0z"/></symbol><symbol viewBox="-288 411.9 18 18" id="radio"><title>radio</title><path d="m-274 420.9c0-2.8-2.2-5-5-5s-5 2.2-5 5c0 .6.1 1.2.3 1.8l.9-.6c-.1-.4-.2-.8-.2-1.2 0-2.2 1.8-4 4-4 2.2 0 4 1.8 4 4 0 1.7-1.1 3.2-2.6 3.7l.1 1c2-.6 3.5-2.5 3.5-4.7m-5-8c-4.4 0-8 3.6-8 8 0 1.2.3 2.4.8 3.5l.8-.6c-.4-.9-.6-1.9-.6-2.9 0-3.9 3.1-7 7-7s7 3.1 7 7c0 3.2-2.2 5.9-5.2 6.8l.1 1c3.5-.9 6-4 6-7.7.1-4.5-3.5-8.1-7.9-8.1m2 6l-4 1v2 3.1c-.7-.2-1.7 0-2.5.5-1.2.8-1.8 2.1-1.2 2.8.6.8 2.1.7 3.3-.1.9-.6 1.4-1.3 1.4-2 0 0 0 0 0-.1v-4.5l3-.8v-1.9" fill-rule="evenodd"/></symbol><symbol viewBox="-288 411.9 18 18" id="song"><title>song</title><path d="m-276 414.9v9.1c-.7-.2-1.7 0-2.5.5-1.2.8-1.8 2.1-1.2 2.8.6.8 2.1.7 3.3-.1.9-.6 1.4-1.3 1.4-2 0 0 0 0 0-.1v-8.5l3-.8v-2l-4 1.1m-9.5 2h7c.3 0 .5-.2.5-.5 0-.3-.2-.5-.5-.5h-7c-.3 0-.5.2-.5.5 0 .3.2.5.5.5m0 3h7c.3 0 .5-.2.5-.5 0-.3-.2-.5-.5-.5h-7c-.3 0-.5.2-.5.5 0 .3.2.5.5.5m7.5 2.5c0-.3-.2-.5-.5-.5h-7c-.3 0-.5.2-.5.5s.2.5.5.5h7c.3 0 .5-.2.5-.5" fill-rule="evenodd"/></symbol><symbol viewBox="0 0 10 6" id="up"><title>up</title><path fill-rule="evenodd" d="m9 4v-1h-1v-1h-1v-1h-1v-1h-1-1v1h-1v1h-1v1h-1v1h-1v2h1v-1h1v-1h1v-1h1v-1h1 1v1h1v1h1v1h1v1h1v-2z"/></symbol></svg>