<svg xmlns="http://www.w3.org/2000/svg"><symbol viewBox="0 0 26 22" id="back"><title>back</title><path d="m15.914 17c-.256 0-.512-.098-.707-.293l-5.707-5.707 5.707-5.707c.391-.391 1.023-.391 1.414 0s.391 1.023 0 1.414l-4.293 4.293 4.293 4.293c.391.391.391 1.023 0 1.414-.195.195-.451.293-.707.293"/></symbol><symbol viewBox="0 0 13 11" id="close"><title>close</title><path fill-rule="evenodd" d="m8 5v-1h1v-1h1v-1h1v-1h1v-1h-2v1h-1v1h-1v1h-1v1h-2v-1h-1v-1h-1v-1h-1v-1h-2v1h1v1h1v1h1v1h1v1h1v1h-1v1h-1v1h-1v1h-1v1h-1v1h2v-1h1v-1h1v-1h1v-1h2v1h1v1h1v1h1v1h2v-1h-1v-1h-1v-1h-1v-1h-1v-1h-1v-1z"/></symbol><symbol viewBox="0 0 8 4" id="head_arr"><title>head_arr</title><path fill-rule="evenodd" d="m0 0v1h1v1h1v1h1v1h2v-1h1v-1h1v-1h1v-1z"/></symbol><symbol viewBox="0 0 114 20" id="logo"><title>logo</title><path d="m113.9 16.7c-1.4-2.4-1.9-4.7-1.9-4.7h-1.9c.5 3.3 2.3 4.7 3.8 5 0 0 .2-.1 0-.3"/><path d="m92.9 9h-10.4c-.8 0-1.4 0-1.4-.2v7.5c0 1.5.6 1.7 2 1.7h12v-7.3c.1-1.5-.8-1.7-2.2-1.7m.3 8h-8.9c-.7 0-1.1 0-1.1-.5v-2.5h10v3m0-4h-10v-3h9c.7 0 1 0 1 .5v2.5"/><path d="m96.1 7h-2.3c.2 0 .3-.8.3-1.3v-.7h-2v.8c0 .7-.3 1.2-1 1.2h-5.9c-.7 0-1-.5-1-1.2v-.8h-2v.7c0 .5.1 1.3.3 1.3h-3.3c0 1 .3 1 1 1h17c-.1-1-.4-1-1.1-1"/><path d="m65.1 9h12.1c0-1-.3-1-1-1h-16c0 1 .3 1 1 1h1.8c0 0-.9 4.6-1.3 6.3-.1.6-.1.9 0 1.1.2 1.1 1.1 1.5 2.2 1.5h10.6c1.2 0 2-.4 2.2-1.5 0-.2.1-.6 0-1.1-.2-1-.7-3.3-.7-3.3h-2c0 0 .5 2.6.6 3.4.2.9-.4 1.6-1 1.6h-9c-1.1 0-1.1-1.1-1-1.6.5-1.7 1.5-6.4 1.5-6.4"/><path d="m113.2 10c0-1-.2-1-.7-1-1.4 0-5.3 0-5.3 0v-3h-2c0 0 0 2 0 3h-3.3c-.7 0-.7 0-.7-.7v-.1l.1-4.1c.9 0 7.7 0 11.5-.2.3 0 .2-1 0-1-4.5.2-11.6.1-11.6.1-1.5 0-2.1-.1-2.1-.1s-.3 4.1-.3 5.1c0 2 .9 2 2.3 2h4.1v6.1c0 .6-.2.8-2.1 1-.2 0-.5.9-.5.9h2.3c1.3 0 2.3-.4 2.3-1.7 0-1.5 0-6.3 0-6.3h5.3c.4 0 .7 0 .7 0"/><path d="m81.2 4h15c0-1-.3-1-1-1h-6v-1h-2v1h-7c0 1 .3 1 1 1"/><path d="m55.9 9h-10.9c-.5 0-.7-.1-.8-.3-.1-.2-.3-.2-.3-.2-.3 1.6-.6 2.1-2.1 2.9-.1 0-.4.3-.2.3.4 0 1-.1 1.4-.2.8-.2 1.7-.7 2.3-1.6h1.8c-1 1.4-3 4.5-5.8 5.9-.1.2-1.6.2-1.5.2h2c1.8 0 6.7-3.9 7.3-6h2.9c-1.2 2.7-3.7 6.3-6.8 7.7 0 0-.4.3-.2.3h.7c2.1 0 7.6-3.9 8.5-8h.9c.7 0 1 .3 1 1v3c0 1.5-.8 3.4-3.6 3.4-.2 0-.3.5-.3.5h1.9c4 0 4.1-2.2 4.1-4.1v-2.8c0-1.6-.9-2-2.3-2"/><path d="m98.4 16.7c-.1.3 0 .3 0 .3 1.4-.4 3.3-1.8 3.8-5h-1.9c0 0-.5 2.3-1.9 4.7"/><path d="m46.1 8h11.1v-2.9c0-1.5-1.3-2.1-2.7-2.1h-8.3c-1.5 0-2.1-.2-2.1-.7 0 .3 0 2.3 0 3.6.1 1.6.6 2.1 2 2.1m.1-4h8.1c.7 0 .9.2.9.9v.1h-9v-1m0 2h9v1h-8c-.7 0-1-.1-1-.8v-.2"/><path d="m36.5 3h-11.5c-1.4 0-2-.2-2-.7v15.7h2v-14h11c.7 0 1 .2 1 .9v11.3c0 .6-.4.8-2.2 1-.2 0-.3.9-.3.9h1.9c1.4 0 2.7-.5 2.7-2.1v-10.9c-.1-1.6-1.2-2.1-2.6-2.1"/><path d="m62.1 4h14c0-1-.3-1-1-1h-14c.1 1 .4 1 1 1"/><path d="m14.5 5.8c-.8-.5-1.9-.8-2.9-.9l-.3-.9c0 0 0-.1 0-.1l-.1-.3c-.2-.7.1-1.1.3-1.2 0 0 .1 0 .1-.1.7-.5 1.7.3 1.7.3.4.4 1.2.5 1.7.1.4-.4.3-1.3-.1-1.7-.7-.7-2.8-1.8-4.6-.6-1.5 1.2-1.6 2.7-1.3 3.5l.3 1.2c-.5.2-1 .4-1.5.7-1.8 1.1-2.6 2.9-2.4 5 .2 2.1 1.8 3.7 3.8 3.7 2.1 0 3.8-1.7 3.8-3.8 0-.5 0-.5-.1-.9-.1-.4-.7-2.5-.7-2.5.4.1.8.2 1.1.4 3.6 2.3 2.1 6.1 2 6.2-1 2.4-3.2 3.8-6 3.9-1.8.1-3.6-.6-4.9-1.9-1.4-1.4-2.2-3.3-2.2-5.2 0-3 1.9-5.7 4.7-6.7.6-.2 1-.8.7-1.6-.2-.6-.9-.8-1.5-.6-3.6 1.4-6.1 4.9-6.1 8.8 0 2.6 1.1 5.1 2.9 6.8 1.7 1.7 3.9 2.6 6.2 2.6.1 0 .2 0 .3 0 3.6-.1 6.6-2.1 7.9-5.3.9-1.9 1.4-6.2-2.8-8.9m-3.7 4.8c0 .9-.7 1.6-1.6 1.6-1 0-1.5-.9-1.6-1.7-.2-1.5.7-2.4 1.4-2.8.3-.2.6-.3.9-.4 0 0 .8 2.4.8 2.8.1.4.1.5.1.5"/><path d="m36 15.5c0 0 .1-1.1 0-1.2-.8-1-1.4-2-1.8-3 1.3-2.7 1.7-5.2 1.7-5.3h-1.7c0 0 0 1.6-.6 3.6-.7-2-.7-3.6-.7-3.6h-1.7c0 .1.5 2.6 1.8 5.3-.4 1-1 2-1.8 3-.1.2 0 1.2 0 1.2 1-.9 1.8-2 2.4-3 .6 1 1.4 2.1 2.4 3"/><path d="m28.8 6c0 0-.1 1.6-.7 3.6-.6-2-.6-3.6-.6-3.6h-1.7c0 .1.4 2.6 1.7 5.3-.4 1-1 2-1.8 3-.1.2 0 1.2 0 1.2 1-.9 1.8-2 2.4-3 .6 1.1 1.4 2.1 2.4 3 0 0 .1-1.1 0-1.2-.8-1-1.3-2-1.8-3 1.4-2.7 1.8-5.2 1.8-5.3h-1.7"/></symbol><symbol viewBox="0 0 13 11" id="mini"><title>mini</title><path d="M3,8h1V7H3V8z M4,7h1V6H4V7z M5,6h1V5H5V6z
				 M7,4H6v1h1V4z M8,3H7v1h1V3z M0,6v5h5L3,9V8H2L0,6z M0,0v4h1V1h11v9H7v1h6V0H0z" fill-rule="evenodd"/></symbol><symbol viewBox="-48 3 16 16" id="msg"><title>msg</title><path d="m-34 5h-12c-1.1 0-2 .9-2 2v8c0 1.1.9 2 2 2h12c1.1 0 2-.9 2-2v-8c0-1.1-.9-2-2-2m-12 1h12c.4 0 .8.2.9.6l-6.9 4.6-6.9-4.6c.1-.4.5-.6.9-.6m12 10h-12c-.6 0-1-.4-1-1v-7.3l6.7 4.5c.1.1.2.1.3.1s.2 0 .3-.1l6.7-4.5v7.3c0 .6-.4 1-1 1"/></symbol><symbol viewBox="0 0 26 22" id="next"><title>next</title><path d="m11 17c.256 0 .512-.098.707-.293l5.707-5.707-5.707-5.707c-.391-.391-1.023-.391-1.414 0s-.391 1.023 0 1.414l4.293 4.293-4.293 4.293c-.391.391-.391 1.023 0 1.414.195.195.451.293.707.293"/></symbol><symbol viewBox="0 0 13 13" id="search"><title>search</title><path d="m12.854 12.146l-3.128-3.127c.795-.954 1.274-2.18 1.274-3.519 0-3.038-2.462-5.5-5.5-5.5s-5.5 2.462-5.5 5.5 2.462 5.5 5.5 5.5c1.339 0 2.565-.479 3.519-1.274l3.128 3.128c.097.097.225.146.353.146s.256-.049.354-.146c.195-.196.195-.512 0-.708m-7.354-2.146c-2.481 0-4.5-2.02-4.5-4.5s2.02-4.5 4.5-4.5 4.5 2.02 4.5 4.5c0 1.061-.384 2.023-1 2.793-.209.262-.445.498-.707.707-.77.616-1.732 1-2.793 1"/></symbol><symbol viewBox="0 0 16 15" id="set"><title>set</title><path d="m7.5 5c-1.379 0-2.5 1.121-2.5 2.5s1.121 2.5 2.5 2.5 2.5-1.121 2.5-2.5-1.121-2.5-2.5-2.5m0 4c-.827 0-1.5-.673-1.5-1.5s.673-1.5 1.5-1.5 1.5.673 1.5 1.5-.673 1.5-1.5 1.5m5.492-.862c.024-.21.04-.422.04-.638 0-.216-.016-.428-.04-.638l1.476-1.665c.143-.161.167-.396.059-.582l-.999-1.73c-.09-.157-.257-.25-.434-.25-.033 0-.066.003-.099.001l-2.189.447c-.339-.252-.704-.47-1.097-.64l-.704-2.11c-.068-.204-.26-.342-.474-.342h-2.062c-.214 0-.406.138-.474.342l-.704 2.11c-.392.17-.758.387-1.097.64l-2.189-.448c-.033-.007-.066-.001-.099-.001-.176 0-.344.093-.434.25l-.999 1.73c-.107.188-.083.422.06.583l1.476 1.665c-.025.21-.041.422-.041.638 0 .216.016.428.04.638l-1.475 1.665c-.143.161-.167.396-.059.582l.999 1.73c.09.157.257.25.433.25.033 0 .066-.003.1-.001l2.189-.447c.262.195.54.367.835.513l.847 2.254c.072.196.258.325.466.325h2.313c.208 0 .395-.129.468-.324l.847-2.254c.294-.147.573-.318.835-.513l2.189.447c.033.007.066.001.1.001.176 0 .343-.093.433-.25l.999-1.73c.109-.187.084-.421-.059-.582l-1.476-1.666m-.151 3.165l-1.835-.375-.438-.09-.359.267c-.215.16-.445.302-.683.42l-.352.175-.139.37-.725 1.93h-1.62l-.725-1.93-.138-.368-.352-.175c-.238-.119-.468-.26-.683-.42l-.359-.267-.438.09-1.835.375-.64-1.109 1.237-1.396.296-.335-.051-.443c-.023-.193-.034-.364-.034-.522 0-.158.011-.329.034-.522l.051-.444-.296-.335-1.237-1.395.639-1.107 1.835.375.438.089.359-.267c.289-.216.591-.392.897-.524l.41-.178.141-.424.59-1.768h1.341l.59 1.768.141.424.41.178c.306.133.608.309.897.524l.359.267.438-.089 1.835-.375.639 1.107-1.237 1.396-.296.335.051.444c.023.193.034.364.034.522 0 .158-.011.329-.034.522l-.051.444.296.335 1.237 1.396-.638 1.105"/></symbol><symbol viewBox="-48 3 16 16" id="skin"><title>skin</title><path d="m-43 5.1c.6 1 1.7 1.9 3 1.9s2.4-.9 3-1.9c.1 0 .2.1.3.2.4.2 1 .5 1.6.9l1.9 1c-.2.4-.4 1-.6 1.4l-.8-.4c-.1-.1-.3-.1-.4-.1-.2 0-.4.1-.5.2-.3.2-.5.5-.5.8v7c0 .4-.6 1-1 1h-3-3c-.4 0-1-.6-1-1v-7c0-.3-.2-.7-.5-.8-.2-.1-.3-.2-.5-.2-.1 0-.3 0-.4.1l-.8.4c-.2-.4-.4-.9-.6-1.4l1.9-1c.6-.3 1.2-.6 1.6-.9.1-.1.2-.1.3-.2m6-1.1c-.3 0-.6.1-.7.3-.4.8-1.3 1.6-2.3 1.6s-1.9-.8-2.3-1.6c-.2-.2-.4-.3-.7-.3l-4.8 2.5c-.1.1-.2.2-.2.3v.1c.3.7 1.1 2.6 1.1 2.6.1.1.2.2.3.2s.1 0 .2 0l1.4-.6v7c0 1 1 2 2 2h3 3c1 0 2-1 2-2v-7l1.4.6c.1 0 .1 0 .2 0s.2-.1.3-.2c0 0 .8-1.8 1.1-2.6v-.1c0-.1 0-.3-.2-.3 0 0-4.8-2.5-4.8-2.5z"/></symbol><symbol viewBox="0 0 13 11" id="zoomin"><title>zoomin</title><path d="m11 1c.551 0 1 .449 1 1v7c0 .551-.449 1-1 1h-9c-.551 0-1-.449-1-1v-7c0-.551.449-1 1-1h9m0-1h-9c-1.105 0-2 .895-2 2v7c0 1.105.895 2 2 2h9c1.105 0 2-.895 2-2v-7c0-1.105-.895-2-2-2z"/></symbol><symbol viewBox="0 0 13 11" id="zoomout"><title>zoomout</title><path d="M0,5h13v1H0V5z" fill-rule="evenodd"/></symbol></svg>